font.ufo
<glyph name="numbersign.S" format="2">
	<unicode hex="0023"/>
	<advance width="479"/>
	<outline>
		<contour>
			<point x="95" y="-11" type="line"/>
			<point x="130" y="-11" type="line"/>
			<point x="154" y="163" type="line"/>
			<point x="303" y="163" type="line"/>
			<point x="280" y="-11" type="line"/>
			<point x="315" y="-11" type="line"/>
			<point x="338" y="163" type="line"/>
			<point x="429" y="163" type="line"/>
			<point x="429" y="199" type="line"/>
			<point x="343" y="199" type="line"/>
			<point x="364" y="369" type="line"/>
			<point x="449" y="369" type="line"/>
			<point x="449" y="405" type="line"/>
			<point x="367" y="405" type="line"/>
			<point x="387" y="560" type="line"/>
			<point x="352" y="560" type="line"/>
			<point x="332" y="405" type="line"/>
			<point x="183" y="405" type="line"/>
			<point x="202" y="560" type="line"/>
			<point x="167" y="560" type="line"/>
			<point x="148" y="405" type="line"/>
			<point x="56" y="405" type="line"/>
			<point x="56" y="369" type="line"/>
			<point x="144" y="369" type="line"/>
			<point x="123" y="199" type="line"/>
			<point x="36" y="199" type="line"/>
			<point x="36" y="163" type="line"/>
			<point x="119" y="163" type="line"/>
		</contour>
		<contour>
			<point x="158" y="199" type="line"/>
			<point x="179" y="369" type="line"/>
			<point x="329" y="369" type="line"/>
			<point x="308" y="199" type="line"/>
		</contour>
	</outline>
</glyph>
<glyph name="dollar.S" format="2">
	<unicode hex="0024"/>
	<advance width="479"/>
	<outline>
		<contour>
			<point x="246" y="-12" type="curve" smooth="yes"/>
			<point x="344" y="-12"/>
			<point x="415" y="46"/>
			<point x="415" y="141" type="curve" smooth="yes"/>
			<point x="415" y="311"/>
			<point x="128" y="293"/>
			<point x="128" y="419" type="curve" smooth="yes"/>
			<point x="128" y="474"/>
			<point x="175" y="518"/>
			<point x="245" y="518" type="curve" smooth="yes"/>
			<point x="301" y="518"/>
			<point x="333" y="505"/>
			<point x="374" y="470" type="curve"/>
			<point x="401" y="500" type="line"/>
			<point x="359" y="539"/>
			<point x="314" y="560"/>
			<point x="246" y="560" type="curve" smooth="yes"/>
			<point x="153" y="560"/>
			<point x="89" y="502"/>
			<point x="89" y="416" type="curve" smooth="yes"/>
			<point x="89" y="256"/>
			<point x="375" y="274"/>
			<point x="375" y="136" type="curve" smooth="yes"/>
			<point x="375" y="74"/>
			<point x="328" y="30"/>
			<point x="244" y="30" type="curve" smooth="yes"/>
			<point x="180" y="30"/>
			<point x="133" y="43"/>
			<point x="86" y="89" type="curve"/>
			<point x="59" y="58" type="line"/>
			<point x="108" y="8"/>
			<point x="172" y="-12"/>
		</contour>
		<contour>
			<point x="226" y="-110" type="line"/>
			<point x="263" y="-110" type="line"/>
			<point x="263" y="-1" type="line"/>
			<point x="226" y="-1" type="line"/>
		</contour>
		<contour>
			<point x="226" y="539" type="line"/>
			<point x="262" y="539" type="line"/>
			<point x="262" y="658" type="line"/>
			<point x="226" y="658" type="line"/>
		</contour>
	</outline>
</glyph>
<glyph name="gampersand" format="2">
	<unicode hex="0026"/>
	<advance width="596"/>
	<outline>
		<contour>
			<point x="47" y="-129" type="curve"/>
			<point x="90" y="-123" type="line"/>
			<point x="105" y="144"/>
			<point x="254" y="252"/>
			<point x="378" y="252" type="curve" smooth="yes"/>
			<point x="462" y="252"/>
			<point x="505" y="209"/>
			<point x="505" y="144" type="curve" smooth="yes"/>
			<point x="505" y="76"/>
			<point x="439" y="31"/>
			<point x="363" y="31" type="curve" smooth="yes"/>
			<point x="288" y="31"/>
			<point x="157" y="73"/>
			<point x="157" y="244" type="curve" smooth="yes"/>
			<point x="157" y="384"/>
			<point x="271" y="476"/>
			<point x="443" y="476" type="curve" smooth="yes"/>
			<point x="462" y="476" type="line"/>
			<point x="470" y="510" type="line"/>
			<point x="377" y="565"/>
			<point x="320" y="609"/>
			<point x="288" y="676" type="curve"/>
			<point x="241" y="670" type="line"/>
			<point x="280" y="592"/>
			<point x="348" y="546"/>
			<point x="432" y="496" type="curve"/>
			<point x="447" y="517" type="line"/>
			<point x="252" y="517"/>
			<point x="121" y="409"/>
			<point x="121" y="244" type="curve" smooth="yes"/>
			<point x="121" y="40"/>
			<point x="270" y="-12"/>
			<point x="362" y="-12" type="curve" smooth="yes"/>
			<point x="461" y="-12"/>
			<point x="541" y="49"/>
			<point x="541" y="147" type="curve" smooth="yes"/>
			<point x="541" y="244"/>
			<point x="478" y="291"/>
			<point x="381" y="291" type="curve" smooth="yes"/>
			<point x="238" y="291"/>
			<point x="63" y="162"/>
		</contour>
	</outline>
</glyph>
<glyph name="zero.S" format="2">
	<unicode hex="0030"/>
	<advance width="479"/>
	<outline>
		<contour>
			<point x="239" y="-12" type="curve" smooth="yes"/>
			<point x="361" y="-12"/>
			<point x="430" y="93"/>
			<point x="430" y="277" type="curve" smooth="yes"/>
			<point x="430" y="460"/>
			<point x="361" y="560"/>
			<point x="239" y="560" type="curve" smooth="yes"/>
			<point x="117" y="560"/>
			<point x="48" y="460"/>
			<point x="48" y="277" type="curve" smooth="yes"/>
			<point x="48" y="93"/>
			<point x="117" y="-12"/>
		</contour>
		<contour>
			<point x="239" y="26" type="curve" smooth="yes"/>
			<point x="151" y="26"/>
			<point x="93" y="114"/>
			<point x="93" y="277" type="curve" smooth="yes"/>
			<point x="93" y="439"/>
			<point x="151" y="522"/>
			<point x="239" y="522" type="curve" smooth="yes"/>
			<point x="328" y="522"/>
			<point x="385" y="439"/>
			<point x="385" y="277" type="curve" smooth="yes"/>
			<point x="385" y="114"/>
			<point x="328" y="26"/>
		</contour>
	</outline>
</glyph>
<glyph name="one.S" format="2">
	<unicode hex="0031"/>
	<advance width="479"/>
	<outline>
		<contour>
			<point x="84" y="0" type="line"/>
			<point x="418" y="0" type="line"/>
			<point x="418" y="40" type="line"/>
			<point x="279" y="40" type="line"/>
			<point x="279" y="548" type="line"/>
			<point x="243" y="548" type="line"/>
			<point x="213" y="531"/>
			<point x="172" y="516"/>
			<point x="120" y="508" type="curve"/>
			<point x="120" y="477" type="line"/>
			<point x="234" y="477" type="line"/>
			<point x="234" y="40" type="line"/>
			<point x="84" y="40" type="line"/>
		</contour>
	</outline>
</glyph>
<glyph name="two.S" format="2">
	<unicode hex="0032"/>
	<advance width="479"/>
	<outline>
		<contour>
			<point x="46" y="0" type="line"/>
			<point x="429" y="0" type="line"/>
			<point x="429" y="40" type="line"/>
			<point x="223" y="40" type="line" smooth="yes"/>
			<point x="188" y="40"/>
			<point x="150" y="37"/>
			<point x="115" y="35" type="curve"/>
			<point x="248" y="154"/>
			<point x="392" y="285"/>
			<point x="392" y="404" type="curve" smooth="yes"/>
			<point x="392" y="501"/>
			<point x="328" y="560"/>
			<point x="226" y="560" type="curve" smooth="yes"/>
			<point x="153" y="560"/>
			<point x="108" y="543"/>
			<point x="51" y="507" type="curve"/>
			<point x="66" y="473" type="line"/>
			<point x="125" y="510"/>
			<point x="164" y="522"/>
			<point x="221" y="522" type="curve" smooth="yes"/>
			<point x="307" y="522"/>
			<point x="348" y="473"/>
			<point x="348" y="401" type="curve" smooth="yes"/>
			<point x="348" y="297"/>
			<point x="214" y="172"/>
			<point x="46" y="29" type="curve"/>
		</contour>
	</outline>
</glyph>
<glyph name="three.S" format="2">
	<unicode hex="0033"/>
	<advance width="479"/>
	<outline>
		<contour>
			<point x="224" y="-52" type="curve" smooth="yes"/>
			<point x="339" y="-52"/>
			<point x="421" y="10"/>
			<point x="421" y="121" type="curve" smooth="yes"/>
			<point x="421" y="214"/>
			<point x="357" y="252"/>
			<point x="278" y="266" type="curve"/>
			<point x="278" y="270" type="line"/>
			<point x="349" y="293"/>
			<point x="397" y="339"/>
			<point x="397" y="421" type="curve" smooth="yes"/>
			<point x="397" y="515"/>
			<point x="323" y="560"/>
			<point x="227" y="560" type="curve" smooth="yes"/>
			<point x="154" y="560"/>
			<point x="113" y="544"/>
			<point x="58" y="500" type="curve"/>
			<point x="80" y="466" type="line"/>
			<point x="134" y="508"/>
			<point x="172" y="518"/>
			<point x="225" y="518" type="curve" smooth="yes"/>
			<point x="304" y="518"/>
			<point x="356" y="483"/>
			<point x="356" y="417" type="curve" smooth="yes"/>
			<point x="356" y="345"/>
			<point x="307" y="285"/>
			<point x="158" y="285" type="curve"/>
			<point x="158" y="245" type="line"/>
			<point x="319" y="245"/>
			<point x="379" y="200"/>
			<point x="379" y="121" type="curve" smooth="yes"/>
			<point x="379" y="39"/>
			<point x="320" y="-10"/>
			<point x="224" y="-10" type="curve" smooth="yes"/>
			<point x="168" y="-10"/>
			<point x="108" y="0"/>
			<point x="57" y="43" type="curve"/>
			<point x="35" y="8" type="line"/>
			<point x="89" y="-36"/>
			<point x="149" y="-52"/>
		</contour>
	</outline>
</glyph>
<glyph name="four.S" format="2">
	<unicode hex="0034"/>
	<advance width="479"/>
	<outline>
		<contour>
			<point x="312" y="-51" type="line"/>
			<point x="353" y="-51" type="line"/>
			<point x="353" y="554" type="line"/>
			<point x="312" y="554" type="line"/>
			<point x="20" y="144" type="line"/>
			<point x="20" y="119" type="line"/>
			<point x="448" y="119" type="line"/>
			<point x="448" y="157" type="line"/>
			<point x="73" y="157" type="line"/>
			<point x="258" y="416" type="line"/>
			<point x="277" y="445"/>
			<point x="296" y="473"/>
			<point x="312" y="498" type="curve"/>
			<point x="316" y="498" type="line"/>
			<point x="314" y="469"/>
			<point x="312" y="418"/>
			<point x="312" y="388" type="curve" smooth="yes"/>
		</contour>
	</outline>
</glyph>
<glyph name="five.S" format="2">
	<unicode hex="0035"/>
	<advance width="479"/>
	<outline>
		<contour>
			<point x="233" y="-52" type="curve" smooth="yes"/>
			<point x="335" y="-52"/>
			<point x="423" y="15"/>
			<point x="423" y="142" type="curve" smooth="yes"/>
			<point x="423" y="274"/>
			<point x="342" y="329"/>
			<point x="234" y="329" type="curve" smooth="yes"/>
			<point x="196" y="329"/>
			<point x="162" y="318"/>
			<point x="129" y="297" type="curve"/>
			<point x="149" y="509" type="line"/>
			<point x="395" y="509" type="line"/>
			<point x="395" y="548" type="line"/>
			<point x="110" y="548" type="line"/>
			<point x="86" y="271" type="line"/>
			<point x="115" y="251" type="line"/>
			<point x="150" y="277"/>
			<point x="185" y="291"/>
			<point x="229" y="291" type="curve" smooth="yes"/>
			<point x="325" y="291"/>
			<point x="379" y="238"/>
			<point x="379" y="140" type="curve" smooth="yes"/>
			<point x="379" y="40"/>
			<point x="310" y="-13"/>
			<point x="232" y="-13" type="curve" smooth="yes"/>
			<point x="168" y="-13"/>
			<point x="127" y="-8"/>
			<point x="62" y="31" type="curve"/>
			<point x="47" y="-2" type="line"/>
			<point x="109" y="-40"/>
			<point x="156" y="-52"/>
		</contour>
	</outline>
</glyph>
<glyph name="six.S" format="2">
	<unicode hex="0036"/>
	<advance width="479"/>
	<outline>
		<contour>
			<point x="256" y="-12" type="curve" smooth="yes"/>
			<point x="356" y="-12"/>
			<point x="431" y="62"/>
			<point x="431" y="182" type="curve" smooth="yes"/>
			<point x="431" y="304"/>
			<point x="369" y="369"/>
			<point x="258" y="369" type="curve" smooth="yes"/>
			<point x="193" y="369"/>
			<point x="133" y="339"/>
			<point x="89" y="283" type="curve"/>
			<point x="90" y="234" type="line"/>
			<point x="142" y="307"/>
			<point x="204" y="329"/>
			<point x="254" y="329" type="curve" smooth="yes"/>
			<point x="353" y="329"/>
			<point x="390" y="265"/>
			<point x="390" y="182" type="curve" smooth="yes"/>
			<point x="390" y="86"/>
			<point x="336" y="30"/>
			<point x="257" y="30" type="curve" smooth="yes"/>
			<point x="148" y="30"/>
			<point x="98" y="128"/>
			<point x="98" y="280" type="curve" smooth="yes"/>
			<point x="98" y="491"/>
			<point x="177" y="559"/>
			<point x="285" y="559" type="curve" smooth="yes"/>
			<point x="333" y="559"/>
			<point x="364" y="546"/>
			<point x="398" y="520" type="curve"/>
			<point x="421" y="552" type="line"/>
			<point x="383" y="583"/>
			<point x="344" y="600"/>
			<point x="284" y="600" type="curve" smooth="yes"/>
			<point x="155" y="600"/>
			<point x="56" y="520"/>
			<point x="56" y="280" type="curve" smooth="yes"/>
			<point x="56" y="93"/>
			<point x="128" y="-12"/>
		</contour>
	</outline>
</glyph>
<glyph name="seven.S" format="2">
	<unicode hex="0037"/>
	<advance width="479"/>
	<outline>
		<contour>
			<point x="190" y="-40" type="curve"/>
			<point x="234" y="-40" type="line"/>
			<point x="244" y="188"/>
			<point x="292" y="332"/>
			<point x="437" y="521" type="curve"/>
			<point x="437" y="548" type="line"/>
			<point x="44" y="548" type="line"/>
			<point x="44" y="509" type="line"/>
			<point x="384" y="509" type="line"/>
			<point x="262" y="342"/>
			<point x="200" y="194"/>
		</contour>
	</outline>
</glyph>
<glyph name="eight.S" format="2">
	<unicode hex="0038"/>
	<advance width="479"/>
	<outline>
		<contour>
			<point x="243" y="-12" type="curve" smooth="yes"/>
			<point x="364" y="-12"/>
			<point x="435" y="55"/>
			<point x="435" y="139" type="curve" smooth="yes"/>
			<point x="435" y="217"/>
			<point x="389" y="254"/>
			<point x="324" y="284" type="curve"/>
			<point x="324" y="288" type="line"/>
			<point x="360" y="313"/>
			<point x="420" y="371"/>
			<point x="420" y="450" type="curve" smooth="yes"/>
			<point x="420" y="542"/>
			<point x="351" y="600"/>
			<point x="243" y="600" type="curve" smooth="yes"/>
			<point x="144" y="600"/>
			<point x="73" y="547"/>
			<point x="73" y="457" type="curve" smooth="yes"/>
			<point x="73" y="388"/>
			<point x="114" y="350"/>
			<point x="169" y="315" type="curve"/>
			<point x="169" y="311" type="line"/>
			<point x="114" y="286"/>
			<point x="42" y="239"/>
			<point x="42" y="145" type="curve" smooth="yes"/>
			<point x="42" y="43"/>
			<point x="125" y="-12"/>
		</contour>
		<contour>
			<point x="290" y="301" type="curve"/>
			<point x="197" y="337"/>
			<point x="117" y="370"/>
			<point x="117" y="457" type="curve" smooth="yes"/>
			<point x="117" y="524"/>
			<point x="172" y="563"/>
			<point x="243" y="563" type="curve" smooth="yes"/>
			<point x="325" y="563"/>
			<point x="377" y="516"/>
			<point x="377" y="449" type="curve" smooth="yes"/>
			<point x="377" y="385"/>
			<point x="345" y="340"/>
		</contour>
		<contour>
			<point x="244" y="25" type="curve" smooth="yes"/>
			<point x="149" y="25"/>
			<point x="86" y="70"/>
			<point x="86" y="148" type="curve" smooth="yes"/>
			<point x="86" y="225"/>
			<point x="136" y="265"/>
			<point x="197" y="293" type="curve"/>
			<point x="292" y="252"/>
			<point x="391" y="235"/>
			<point x="391" y="139" type="curve" smooth="yes"/>
			<point x="391" y="77"/>
			<point x="340" y="25"/>
		</contour>
	</outline>
</glyph>
<glyph name="nine.S" format="2">
	<unicode hex="0039"/>
	<advance width="479"/>
	<outline>
		<contour>
			<point x="195" y="-52" type="curve" smooth="yes"/>
			<point x="325" y="-52"/>
			<point x="422" y="37"/>
			<point x="422" y="268" type="curve" smooth="yes"/>
			<point x="422" y="455"/>
			<point x="351" y="560"/>
			<point x="223" y="560" type="curve" smooth="yes"/>
			<point x="123" y="560"/>
			<point x="47" y="486"/>
			<point x="47" y="366" type="curve" smooth="yes"/>
			<point x="47" y="244"/>
			<point x="110" y="180"/>
			<point x="220" y="180" type="curve" smooth="yes"/>
			<point x="286" y="180"/>
			<point x="345" y="210"/>
			<point x="390" y="266" type="curve"/>
			<point x="389" y="314" type="line"/>
			<point x="336" y="241"/>
			<point x="274" y="217"/>
			<point x="225" y="217" type="curve" smooth="yes"/>
			<point x="126" y="217"/>
			<point x="89" y="282"/>
			<point x="89" y="366" type="curve" smooth="yes"/>
			<point x="89" y="464"/>
			<point x="143" y="522"/>
			<point x="222" y="522" type="curve" smooth="yes"/>
			<point x="330" y="522"/>
			<point x="380" y="423"/>
			<point x="380" y="268" type="curve" smooth="yes"/>
			<point x="380" y="64"/>
			<point x="302" y="-13"/>
			<point x="194" y="-13" type="curve" smooth="yes"/>
			<point x="152" y="-13"/>
			<point x="123" y="-7"/>
			<point x="79" y="16" type="curve"/>
			<point x="64" y="-18" type="line"/>
			<point x="106" y="-41"/>
			<point x="140" y="-52"/>
		</contour>
	</outline>
</glyph>
<glyph name="question.S" format="2">
	<unicode hex="003F"/>
	<advance width="402"/>
	<outline>
		<contour>
			<point x="161" y="184" type="curve"/>
			<point x="163" y="180" type="line"/>
			<point x="203" y="180" type="line"/>
			<point x="284" y="292"/>
			<point x="339" y="362"/>
			<point x="339" y="459" type="curve" smooth="yes"/>
			<point x="339" y="534"/>
			<point x="286" y="590"/>
			<point x="195" y="590" type="curve" smooth="yes"/>
			<point x="132" y="590"/>
			<point x="87" y="563"/>
			<point x="46" y="522" type="curve"/>
			<point x="71" y="493" type="line"/>
			<point x="109" y="528"/>
			<point x="147" y="549"/>
			<point x="192" y="549" type="curve" smooth="yes"/>
			<point x="268" y="549"/>
			<point x="299" y="502"/>
			<point x="299" y="452" type="curve" smooth="yes"/>
			<point x="299" y="369"/>
			<point x="252" y="303"/>
		</contour>
		<contour>
			<point x="186" y="-12" type="curve" smooth="yes"/>
			<point x="208" y="-12"/>
			<point x="229" y="5"/>
			<point x="229" y="33" type="curve" smooth="yes"/>
			<point x="229" y="62"/>
			<point x="208" y="79"/>
			<point x="186" y="79" type="curve" smooth="yes"/>
			<point x="164" y="79"/>
			<point x="144" y="62"/>
			<point x="144" y="33" type="curve" smooth="yes"/>
			<point x="144" y="5"/>
			<point x="164" y="-12"/>
		</contour>
	</outline>
</glyph>
<glyph name="at.S" format="2">
	<unicode hex="0040"/>
	<advance width="732"/>
	<outline>
		<contour>
			<point x="340" y="-56" type="curve" smooth="yes"/>
			<point x="396" y="-56"/>
			<point x="457" y="-42"/>
			<point x="503" y="-12" type="curve"/>
			<point x="484" y="19" type="line"/>
			<point x="447" y="-6"/>
			<point x="392" y="-16"/>
			<point x="343" y="-16" type="curve" smooth="yes"/>
			<point x="187" y="-16"/>
			<point x="87" y="67"/>
			<point x="87" y="232" type="curve" smooth="yes"/>
			<point x="87" y="432"/>
			<point x="240" y="561"/>
			<point x="405" y="561" type="curve" smooth="yes"/>
			<point x="556" y="561"/>
			<point x="646" y="475"/>
			<point x="646" y="336" type="curve" smooth="yes"/>
			<point x="646" y="202"/>
			<point x="581" y="130"/>
			<point x="528" y="130" type="curve" smooth="yes"/>
			<point x="471" y="130"/>
			<point x="457" y="169"/>
			<point x="478" y="265" type="curve" smooth="yes"/>
			<point x="515" y="434" type="line"/>
			<point x="483" y="434" type="line"/>
			<point x="473" y="394" type="line"/>
			<point x="471" y="394" type="line"/>
			<point x="453" y="426"/>
			<point x="425" y="442"/>
			<point x="392" y="442" type="curve" smooth="yes"/>
			<point x="288" y="442"/>
			<point x="215" y="337"/>
			<point x="215" y="226" type="curve" smooth="yes"/>
			<point x="215" y="144"/>
			<point x="264" y="101"/>
			<point x="318" y="101" type="curve" smooth="yes"/>
			<point x="367" y="101"/>
			<point x="404" y="133"/>
			<point x="437" y="171" type="curve"/>
			<point x="439" y="171" type="line"/>
			<point x="442" y="123"/>
			<point x="474" y="95"/>
			<point x="523" y="95" type="curve" smooth="yes"/>
			<point x="599" y="95"/>
			<point x="681" y="182"/>
			<point x="681" y="338" type="curve" smooth="yes"/>
			<point x="681" y="499"/>
			<point x="572" y="600"/>
			<point x="412" y="600" type="curve" smooth="yes"/>
			<point x="219" y="600"/>
			<point x="52" y="453"/>
			<point x="52" y="230" type="curve" smooth="yes"/>
			<point x="52" y="45"/>
			<point x="170" y="-56"/>
		</contour>
		<contour>
			<point x="326" y="142" type="curve" smooth="yes"/>
			<point x="284" y="142"/>
			<point x="251" y="172"/>
			<point x="251" y="235" type="curve" smooth="yes"/>
			<point x="251" y="312"/>
			<point x="304" y="402"/>
			<point x="390" y="402" type="curve" smooth="yes"/>
			<point x="421" y="402"/>
			<point x="439" y="392"/>
			<point x="462" y="358" type="curve"/>
			<point x="431" y="204" type="line"/>
			<point x="393" y="161"/>
			<point x="356" y="142"/>
		</contour>
	</outline>
</glyph>
<glyph name="I" format="2">
	<unicode hex="0049"/>
	<advance width="240"/>
	<outline>
		<contour>
			<point x="97" y="0" type="line"/>
			<point x="143" y="0" type="line"/>
			<point x="143" y="659" type="line"/>
			<point x="97" y="659" type="line"/>
		</contour>
	</outline>
	<anchor name="aboveUC" x="120" y="679"/>
	<anchor name="belowLC" x="120" y="-20"/>
	<anchor name="ogonekUC" x="95" y="0"/>
	<anchor name="baseLC" x="120" y="0"/>
</glyph>
<glyph name="L" format="2">
	<unicode hex="004C"/>
	<advance width="467"/>
	<outline>
		<contour>
			<point x="97" y="0" type="line"/>
			<point x="447" y="0" type="line"/>
			<point x="447" y="40" type="line"/>
			<point x="143" y="40" type="line"/>
			<point x="143" y="659" type="line"/>
			<point x="97" y="659" type="line"/>
		</contour>
	</outline>
	<anchor name="aboveUC" x="121" y="679"/>
	<anchor name="belowLC" x="288" y="-20"/>
	<anchor name="center" x="223" y="35"/>
	<anchor name="baseLC" x="236" y="0"/>
</glyph>
<glyph name="e" format="2">
	<unicode hex="0065"/>
	<advance width="483"/>
	<outline>
		<contour>
			<point x="274" y="-12" type="curve" smooth="yes"/>
			<point x="344" y="-12"/>
			<point x="387" y="12"/>
			<point x="425" y="35" type="curve"/>
			<point x="407" y="69" type="line"/>
			<point x="371" y="43"/>
			<point x="330" y="26"/>
			<point x="278" y="26" type="curve" smooth="yes"/>
			<point x="177" y="26"/>
			<point x="96" y="104"/>
			<point x="96" y="239" type="curve" smooth="yes"/>
			<point x="96" y="385"/>
			<point x="181" y="454"/>
			<point x="262" y="454" type="curve" smooth="yes"/>
			<point x="348" y="454"/>
			<point x="403" y="393"/>
			<point x="403" y="270" type="curve"/>
			<point x="85" y="270" type="line"/>
			<point x="85" y="234" type="line"/>
			<point x="442" y="234" type="line"/>
			<point x="445" y="246"/>
			<point x="445" y="258"/>
			<point x="445" y="270" type="curve" smooth="yes"/>
			<point x="445" y="411"/>
			<point x="375" y="492"/>
			<point x="261" y="492" type="curve" smooth="yes"/>
			<point x="154" y="492"/>
			<point x="52" y="396"/>
			<point x="52" y="239" type="curve" smooth="yes"/>
			<point x="52" y="82"/>
			<point x="151" y="-12"/>
		</contour>
	</outline>
	<anchor name="aboveLC" x="262" y="502"/>
	<anchor name="belowLC" x="252" y="-20"/>
	<anchor name="ogonekLC" x="379" y="0"/>
	<anchor name="baseLC" x="252" y="0"/>
</glyph>
<glyph name="i" format="2">
	<unicode hex="0069"/>
	<advance width="229"/>
	<outline>
		<contour>
			<point x="92" y="0" type="line"/>
			<point x="136" y="0" type="line"/>
			<point x="136" y="480" type="line"/>
			<point x="92" y="480" type="line"/>
		</contour>
		<contour>
			<point x="115" y="596" type="curve" smooth="yes"/>
			<point x="137" y="596"/>
			<point x="153" y="612"/>
			<point x="153" y="637" type="curve" smooth="yes"/>
			<point x="153" y="660"/>
			<point x="137" y="676"/>
			<point x="115" y="676" type="curve" smooth="yes"/>
			<point x="94" y="676"/>
			<point x="77" y="660"/>
			<point x="77" y="637" type="curve" smooth="yes"/>
			<point x="77" y="612"/>
			<point x="94" y="596"/>
		</contour>
	</outline>
	<anchor name="belowLC" x="113" y="-20"/>
	<anchor name="ogonekLC" x="136" y="0"/>
	<anchor name="aboveUC" x="114" y="523"/>
	<anchor name="baseLC" x="114" y="0"/>
</glyph>
<glyph name="j" format="2">
	<unicode hex="006A"/>
	<advance width="229"/>
	<outline>
		<contour>
			<point x="29" y="-229" type="curve" smooth="yes"/>
			<point x="103" y="-229"/>
			<point x="137" y="-183"/>
			<point x="137" y="-89" type="curve" smooth="yes"/>
			<point x="137" y="480" type="line"/>
			<point x="92" y="480" type="line"/>
			<point x="92" y="-86" type="line" smooth="yes"/>
			<point x="92" y="-147"/>
			<point x="82" y="-191"/>
			<point x="28" y="-191" type="curve" smooth="yes"/>
			<point x="9" y="-191"/>
			<point x="-10" y="-185"/>
			<point x="-22" y="-181" type="curve"/>
			<point x="-33" y="-217" type="line"/>
			<point x="-18" y="-223"/>
			<point x="6" y="-229"/>
		</contour>
		<contour>
			<point x="115" y="596" type="curve" smooth="yes"/>
			<point x="137" y="596"/>
			<point x="153" y="612"/>
			<point x="153" y="637" type="curve" smooth="yes"/>
			<point x="153" y="660"/>
			<point x="137" y="676"/>
			<point x="115" y="676" type="curve" smooth="yes"/>
			<point x="94" y="676"/>
			<point x="77" y="660"/>
			<point x="77" y="637" type="curve" smooth="yes"/>
			<point x="77" y="612"/>
			<point x="94" y="596"/>
		</contour>
	</outline>
	<anchor name="belowLC" x="114" y="-20"/>
	<anchor name="aboveUC" x="114" y="523"/>
</glyph>
<glyph name="l" format="2">
	<unicode hex="006C"/>
	<advance width="237"/>
	<outline>
		<contour>
			<point x="151" y="-12" type="curve" smooth="yes"/>
			<point x="165" y="-12"/>
			<point x="174" y="-10"/>
			<point x="183" y="-7" type="curve"/>
			<point x="175" y="29" type="line"/>
			<point x="165" y="27"/>
			<point x="161" y="27"/>
			<point x="157" y="27" type="curve" smooth="yes"/>
			<point x="145" y="27"/>
			<point x="136" y="37"/>
			<point x="136" y="58" type="curve" smooth="yes"/>
			<point x="136" y="719" type="line"/>
			<point x="92" y="719" type="line"/>
			<point x="92" y="64" type="line" smooth="yes"/>
			<point x="92" y="12"/>
			<point x="112" y="-12"/>
		</contour>
	</outline>
	<anchor name="aboveUC" x="113" y="730"/>
	<anchor name="belowLC" x="138" y="-20"/>
	<anchor name="center" x="118" y="36"/>
	<anchor name="baseLC" x="118" y="0"/>
</glyph>
<glyph name="z" format="2">
	<unicode hex="007A"/>
	<advance width="404"/>
	<outline>
		<contour>
			<point x="27" y="0" type="line"/>
			<point x="378" y="0" type="line"/>
			<point x="378" y="39" type="line"/>
			<point x="85" y="39" type="line"/>
			<point x="368" y="457" type="line"/>
			<point x="368" y="480" type="line"/>
			<point x="58" y="480" type="line"/>
			<point x="58" y="442" type="line"/>
			<point x="311" y="442" type="line"/>
			<point x="27" y="24" type="line"/>
		</contour>
	</outline>
	<anchor name="aboveLC" x="220" y="502"/>
	<anchor name="belowLC" x="218" y="-20"/>
	<anchor name="baseLC" x="203" y="0"/>
</glyph>
<glyph name="cent.S" format="2">
	<unicode hex="00A2"/>
	<advance width="479"/>
	<outline>
		<contour>
			<point x="298" y="40" type="curve" smooth="yes"/>
			<point x="357" y="40"/>
			<point x="406" y="66"/>
			<point x="440" y="97" type="curve"/>
			<point x="416" y="129" type="line"/>
			<point x="387" y="103"/>
			<point x="345" y="82"/>
			<point x="299" y="82" type="curve" smooth="yes"/>
			<point x="190" y="82"/>
			<point x="107" y="140"/>
			<point x="107" y="280" type="curve" smooth="yes"/>
			<point x="107" y="411"/>
			<point x="195" y="464"/>
			<point x="287" y="464" type="curve" smooth="yes"/>
			<point x="334" y="464"/>
			<point x="366" y="451"/>
			<point x="402" y="422" type="curve"/>
			<point x="427" y="454" type="line"/>
			<point x="386" y="488"/>
			<point x="345" y="506"/>
			<point x="287" y="506" type="curve" smooth="yes"/>
			<point x="172" y="506"/>
			<point x="68" y="440"/>
			<point x="68" y="280" type="curve" smooth="yes"/>
			<point x="68" y="111"/>
			<point x="167" y="40"/>
		</contour>
		<contour>
			<point x="258" y="-68" type="line"/>
			<point x="293" y="-68" type="line"/>
			<point x="293" y="613" type="line"/>
			<point x="258" y="613" type="line"/>
		</contour>
	</outline>
</glyph>
<glyph name="sterling.S" format="2">
	<unicode hex="00A3"/>
	<advance width="479"/>
	<outline>
		<contour>
			<point x="57" y="0" type="line"/>
			<point x="428" y="0" type="line"/>
			<point x="428" y="38" type="line"/>
			<point x="134" y="38" type="line"/>
			<point x="134" y="42" type="line"/>
			<point x="177" y="84"/>
			<point x="202" y="129"/>
			<point x="202" y="203" type="curve" smooth="yes"/>
			<point x="202" y="279"/>
			<point x="155" y="333"/>
			<point x="155" y="402" type="curve" smooth="yes"/>
			<point x="155" y="483"/>
			<point x="214" y="518"/>
			<point x="278" y="518" type="curve" smooth="yes"/>
			<point x="324" y="518"/>
			<point x="356" y="505"/>
			<point x="393" y="475" type="curve"/>
			<point x="417" y="507" type="line"/>
			<point x="376" y="542"/>
			<point x="335" y="560"/>
			<point x="276" y="560" type="curve" smooth="yes"/>
			<point x="191" y="560"/>
			<point x="115" y="514"/>
			<point x="115" y="404" type="curve" smooth="yes"/>
			<point x="115" y="334"/>
			<point x="165" y="273"/>
			<point x="165" y="203" type="curve" smooth="yes"/>
			<point x="165" y="132"/>
			<point x="131" y="70"/>
			<point x="57" y="28" type="curve"/>
		</contour>
		<contour>
			<point x="54" y="255" type="line"/>
			<point x="354" y="255" type="line"/>
			<point x="354" y="291" type="line"/>
			<point x="120" y="291" type="line"/>
			<point x="54" y="289" type="line"/>
		</contour>
	</outline>
</glyph>
<glyph name="yen.S" format="2">
	<unicode hex="00A5"/>
	<advance width="479"/>
	<outline>
		<contour>
			<point x="219" y="0" type="line"/>
			<point x="259" y="0" type="line"/>
			<point x="259" y="156" type="line"/>
			<point x="429" y="156" type="line"/>
			<point x="429" y="190" type="line"/>
			<point x="259" y="190" type="line"/>
			<point x="259" y="268" type="line"/>
			<point x="429" y="268" type="line"/>
			<point x="429" y="301" type="line"/>
			<point x="275" y="301" type="line"/>
			<point x="449" y="548" type="line"/>
			<point x="400" y="548" type="line"/>
			<point x="306" y="409" type="line" smooth="yes"/>
			<point x="282" y="371"/>
			<point x="268" y="351"/>
			<point x="242" y="306" type="curve"/>
			<point x="238" y="306" type="line"/>
			<point x="211" y="351"/>
			<point x="196" y="372"/>
			<point x="173" y="409" type="curve" smooth="yes"/>
			<point x="80" y="548" type="line"/>
			<point x="30" y="548" type="line"/>
			<point x="202" y="301" type="line"/>
			<point x="50" y="301" type="line"/>
			<point x="50" y="268" type="line"/>
			<point x="219" y="268" type="line"/>
			<point x="219" y="190" type="line"/>
			<point x="50" y="190" type="line"/>
			<point x="50" y="156" type="line"/>
			<point x="219" y="156" type="line"/>
		</contour>
	</outline>
</glyph>
<glyph name="copyright.S" format="2">
	<unicode hex="00A9"/>
	<advance width="741"/>
	<outline>
		<contour>
			<point x="371" y="-57" type="curve" smooth="yes"/>
			<point x="544" y="-57"/>
			<point x="688" y="71"/>
			<point x="688" y="273" type="curve" smooth="yes"/>
			<point x="688" y="476"/>
			<point x="544" y="605"/>
			<point x="371" y="605" type="curve" smooth="yes"/>
			<point x="197" y="605"/>
			<point x="53" y="476"/>
			<point x="53" y="273" type="curve" smooth="yes"/>
			<point x="53" y="71"/>
			<point x="197" y="-57"/>
		</contour>
		<contour>
			<point x="371" y="-23" type="curve" smooth="yes"/>
			<point x="215" y="-23"/>
			<point x="83" y="94"/>
			<point x="83" y="273" type="curve" smooth="yes"/>
			<point x="83" y="453"/>
			<point x="215" y="571"/>
			<point x="371" y="571" type="curve" smooth="yes"/>
			<point x="526" y="571"/>
			<point x="658" y="453"/>
			<point x="658" y="273" type="curve" smooth="yes"/>
			<point x="658" y="94"/>
			<point x="526" y="-23"/>
		</contour>
		<contour>
			<point x="377" y="83" type="curve" smooth="yes"/>
			<point x="438" y="83"/>
			<point x="469" y="100"/>
			<point x="503" y="136" type="curve"/>
			<point x="482" y="163" type="line"/>
			<point x="449" y="134"/>
			<point x="429" y="123"/>
			<point x="380" y="123" type="curve" smooth="yes"/>
			<point x="299" y="123"/>
			<point x="243" y="180"/>
			<point x="243" y="275" type="curve" smooth="yes"/>
			<point x="243" y="368"/>
			<point x="300" y="427"/>
			<point x="378" y="427" type="curve" smooth="yes"/>
			<point x="416" y="427"/>
			<point x="439" y="419"/>
			<point x="470" y="391" type="curve"/>
			<point x="493" y="418" type="line"/>
			<point x="463" y="451"/>
			<point x="427" y="467"/>
			<point x="379" y="467" type="curve" smooth="yes"/>
			<point x="288" y="467"/>
			<point x="208" y="396"/>
			<point x="208" y="275" type="curve" smooth="yes"/>
			<point x="208" y="153"/>
			<point x="285" y="83"/>
		</contour>
	</outline>
</glyph>
<glyph name="paragraph.S" format="2">
	<unicode hex="00B6"/>
	<advance width="515"/>
	<outline>
		<contour>
			<point x="373" y="-120" type="line"/>
			<point x="419" y="-120" type="line"/>
			<point x="419" y="548" type="line"/>
			<point x="373" y="548" type="line"/>
		</contour>
		<contour>
			<point x="291" y="133" type="curve" smooth="yes"/>
			<point x="319" y="133" type="line"/>
			<point x="319" y="548" type="line"/>
			<point x="275" y="548" type="line" smooth="yes"/>
			<point x="138" y="548"/>
			<point x="42" y="491"/>
			<point x="42" y="340" type="curve" smooth="yes"/>
			<point x="42" y="192"/>
			<point x="144" y="133"/>
		</contour>
	</outline>
</glyph>
<glyph name="Eth" format="2">
	<unicode hex="00D0"/>
	<advance width="624"/>
	<outline>
		<contour>
			<point x="22" y="332" type="line"/>
			<point x="326" y="332" type="line"/>
			<point x="326" y="368" type="line"/>
			<point x="119" y="368" type="line"/>
			<point x="22" y="364" type="line"/>
		</contour>
		<component base="D" xOffset="20"/>
	</outline>
	<anchor name="aboveUC" x="323" y="681"/>
	<anchor name="belowLC" x="313" y="-22"/>
</glyph>
<glyph name="Oslash" format="2">
	<unicode hex="00D8"/>
	<advance width="652"/>
	<outline>
		<contour>
			<point x="84" y="-23" type="line"/>
			<point x="595" y="660" type="line"/>
			<point x="566" y="682" type="line"/>
			<point x="56" y="-1" type="line"/>
		</contour>
		<component base="O" xOffset="4"/>
	</outline>
	<anchor name="aboveUC" x="330" y="679"/>
	<anchor name="baseLC" x="326" y="0"/>
</glyph>
<glyph name="ismall" format="2">
	<unicode hex="026A"/>
	<advance width="310"/>
	<outline>
		<contour>
			<point x="43" y="0" type="line"/>
			<point x="267" y="0" type="line"/>
			<point x="267" y="39" type="line"/>
			<point x="177" y="39" type="line"/>
			<point x="177" y="442" type="line"/>
			<point x="267" y="442" type="line"/>
			<point x="267" y="480" type="line"/>
			<point x="43" y="480" type="line"/>
			<point x="43" y="442" type="line"/>
			<point x="133" y="442" type="line"/>
			<point x="133" y="39" type="line"/>
			<point x="43" y="39" type="line"/>
		</contour>
	</outline>
	<anchor name="aboveLC" x="156" y="502"/>
	<anchor name="belowLC" x="156" y="-20"/>
	<anchor name="ogonekUC" x="131" y="0"/>
</glyph>
<glyph name="rsmallinverted" format="2">
	<unicode hex="0281"/>
	<advance width="474"/>
	<outline>
		<contour>
			<point x="229" y="0" type="curve" smooth="yes"/>
			<point x="382" y="0" type="line"/>
			<point x="382" y="480" type="line"/>
			<point x="338" y="480" type="line"/>
			<point x="338" y="274" type="line"/>
			<point x="222" y="274" type="line"/>
			<point x="133" y="274"/>
			<point x="57" y="232"/>
			<point x="57" y="134" type="curve" smooth="yes"/>
			<point x="57" y="37"/>
			<point x="129" y="0"/>
		</contour>
		<contour>
			<point x="240" y="38" type="line" smooth="yes"/>
			<point x="155" y="38"/>
			<point x="103" y="67"/>
			<point x="103" y="135" type="curve" smooth="yes"/>
			<point x="103" y="202"/>
			<point x="155" y="238"/>
			<point x="240" y="238" type="curve" smooth="yes"/>
			<point x="338" y="238" type="line"/>
			<point x="338" y="38" type="line"/>
		</contour>
		<contour>
			<point x="194" y="253" type="line"/>
			<point x="230" y="268" type="line"/>
			<point x="92" y="480" type="line"/>
			<point x="42" y="480" type="line"/>
		</contour>
	</outline>
	<anchor name="belowLC" x="270" y="-20"/>
	<anchor name="aboveUC" x="250" y="506"/>
	<anchor name="aboveLC" x="237" y="502"/>
</glyph>
<glyph name="dezh" format="2">
	<unicode hex="02A4"/>
	<advance width="855"/>
	<outline>
		<contour>
			<point x="434" y="442" type="line"/>
			<point x="534" y="442" type="line"/>
			<point x="534" y="480" type="line"/>
			<point x="434" y="480" type="line"/>
		</contour>
		<component base="d"/>
		<component base="ezh" xOffset="451"/>
	</outline>
	<anchor name="aboveUC" x="426" y="730"/>
	<anchor name="belowLC" x="311" y="-20"/>
</glyph>
<glyph name="primemod" format="2">
	<unicode hex="02B9"/>
	<advance width="219"/>
	<outline>
		<contour>
			<point x="110" y="523" type="line"/>
			<point x="138" y="659" type="line"/>
			<point x="149" y="728" type="line"/>
			<point x="107" y="732" type="line"/>
			<point x="81" y="525" type="line"/>
		</contour>
	</outline>
</glyph>
<glyph name="gravecmb" format="2">
	<unicode hex="0300"/>
	<outline>
		<contour>
			<point x="29" y="574" type="line"/>
			<point x="53" y="597" type="line"/>
			<point x="-81" y="754" type="line"/>
			<point x="-115" y="725" type="line"/>
		</contour>
	</outline>
	<anchor name="_aboveLC" x="0" y="502"/>
	<anchor name="aboveLC" x="0" y="502"/>
</glyph>
<glyph name="heSheva" format="2">
	<unicode hex="05B0"/>
	<outline>
		<contour>
			<point x="0" y="-156" type="curve" smooth="yes"/>
			<point x="20" y="-156"/>
			<point x="36" y="-140"/>
			<point x="36" y="-120" type="curve" smooth="yes"/>
			<point x="36" y="-99"/>
			<point x="20" y="-84"/>
			<point x="0" y="-84" type="curve" smooth="yes"/>
			<point x="-20" y="-84"/>
			<point x="-36" y="-99"/>
			<point x="-36" y="-120" type="curve" smooth="yes"/>
			<point x="-36" y="-140"/>
			<point x="-20" y="-156"/>
		</contour>
		<contour>
			<point x="0" y="-277" type="curve" smooth="yes"/>
			<point x="20" y="-277"/>
			<point x="36" y="-262"/>
			<point x="36" y="-241" type="curve" smooth="yes"/>
			<point x="36" y="-221"/>
			<point x="20" y="-205"/>
			<point x="0" y="-205" type="curve" smooth="yes"/>
			<point x="-20" y="-205"/>
			<point x="-36" y="-221"/>
			<point x="-36" y="-241" type="curve" smooth="yes"/>
			<point x="-36" y="-262"/>
			<point x="-20" y="-277"/>
		</contour>
	</outline>
	<anchor name="_belowPrimaryHE" x="0" y="-30"/>
	<anchor name="_belowLeftHE" x="-26" y="-30"/>
	<anchor name="_belowRightHE" x="26" y="-30"/>
	<anchor name="belowPrimaryHE" x="-101" y="-30"/>
	<anchor name="_belowSecondaryHE" x="0" y="-30"/>
</glyph>
<glyph name="heHatafSegol" format="2">
	<unicode hex="05B1"/>
	<outline>
		<contour>
			<point x="122" y="-271" type="curve" smooth="yes"/>
			<point x="141" y="-271"/>
			<point x="155" y="-256"/>
			<point x="155" y="-238" type="curve" smooth="yes"/>
			<point x="155" y="-220"/>
			<point x="141" y="-206"/>
			<point x="122" y="-206" type="curve" smooth="yes"/>
			<point x="103" y="-206"/>
			<point x="90" y="-220"/>
			<point x="90" y="-238" type="curve" smooth="yes"/>
			<point x="90" y="-256"/>
			<point x="103" y="-271"/>
		</contour>
		<contour>
			<point x="122" y="-148" type="curve" smooth="yes"/>
			<point x="141" y="-148"/>
			<point x="155" y="-135"/>
			<point x="155" y="-117" type="curve" smooth="yes"/>
			<point x="155" y="-98"/>
			<point x="141" y="-84"/>
			<point x="122" y="-84" type="curve" smooth="yes"/>
			<point x="103" y="-84"/>
			<point x="90" y="-98"/>
			<point x="90" y="-117" type="curve" smooth="yes"/>
			<point x="90" y="-135"/>
			<point x="103" y="-148"/>
		</contour>
		<contour>
			<point x="1" y="-148" type="curve" smooth="yes"/>
			<point x="20" y="-148"/>
			<point x="33" y="-135"/>
			<point x="33" y="-117" type="curve" smooth="yes"/>
			<point x="33" y="-98"/>
			<point x="20" y="-84"/>
			<point x="1" y="-84" type="curve" smooth="yes"/>
			<point x="-17" y="-84"/>
			<point x="-32" y="-98"/>
			<point x="-32" y="-117" type="curve" smooth="yes"/>
			<point x="-32" y="-135"/>
			<point x="-17" y="-148"/>
		</contour>
		<contour>
			<point x="-59" y="-271" type="curve" smooth="yes"/>
			<point x="-42" y="-271"/>
			<point x="-29" y="-256"/>
			<point x="-29" y="-238" type="curve" smooth="yes"/>
			<point x="-29" y="-220"/>
			<point x="-42" y="-206"/>
			<point x="-59" y="-206" type="curve" smooth="yes"/>
			<point x="-78" y="-206"/>
			<point x="-92" y="-220"/>
			<point x="-92" y="-238" type="curve" smooth="yes"/>
			<point x="-92" y="-256"/>
			<point x="-78" y="-271"/>
		</contour>
		<contour>
			<point x="-122" y="-148" type="curve" smooth="yes"/>
			<point x="-103" y="-148"/>
			<point x="-91" y="-135"/>
			<point x="-91" y="-117" type="curve" smooth="yes"/>
			<point x="-91" y="-98"/>
			<point x="-103" y="-84"/>
			<point x="-122" y="-84" type="curve" smooth="yes"/>
			<point x="-140" y="-84"/>
			<point x="-154" y="-98"/>
			<point x="-154" y="-117" type="curve" smooth="yes"/>
			<point x="-154" y="-135"/>
			<point x="-140" y="-148"/>
		</contour>
	</outline>
	<anchor name="_belowPrimaryHE" x="0" y="-30"/>
	<anchor name="_belowLeftHE" x="-136" y="-30"/>
	<anchor name="belowPrimaryHE" x="-222" y="-30"/>
	<anchor name="_belowSecondaryHE" x="70" y="-30"/>
</glyph>
<glyph name="heHiriq" format="2">
	<unicode hex="05B4"/>
	<outline>
		<contour>
			<point x="0" y="-156" type="curve" smooth="yes"/>
			<point x="20" y="-156"/>
			<point x="36" y="-140"/>
			<point x="36" y="-120" type="curve" smooth="yes"/>
			<point x="36" y="-99"/>
			<point x="20" y="-84"/>
			<point x="0" y="-84" type="curve" smooth="yes"/>
			<point x="-20" y="-84"/>
			<point x="-36" y="-99"/>
			<point x="-36" y="-120" type="curve" smooth="yes"/>
			<point x="-36" y="-140"/>
			<point x="-20" y="-156"/>
		</contour>
	</outline>
	<anchor name="_belowPrimaryHE" x="0" y="-30"/>
	<anchor name="_belowLeftHE" x="-26" y="-30"/>
	<anchor name="_belowRightHE" x="26" y="-30"/>
	<anchor name="belowPrimaryHE" x="-101" y="-30"/>
	<anchor name="_belowSecondaryHE" x="0" y="-30"/>
	<guideline y="-133" identifier="4QcKMXi29o"/>
</glyph>
<glyph name="heTsere" format="2">
	<unicode hex="05B5"/>
	<outline>
		<contour>
			<point x="-62" y="-156" type="curve" smooth="yes"/>
			<point x="-41" y="-156"/>
			<point x="-26" y="-140"/>
			<point x="-26" y="-120" type="curve" smooth="yes"/>
			<point x="-26" y="-99"/>
			<point x="-41" y="-84"/>
			<point x="-62" y="-84" type="curve" smooth="yes"/>
			<point x="-82" y="-84"/>
			<point x="-98" y="-99"/>
			<point x="-98" y="-120" type="curve" smooth="yes"/>
			<point x="-98" y="-140"/>
			<point x="-82" y="-156"/>
		</contour>
		<contour>
			<point x="62" y="-156" type="curve" smooth="yes"/>
			<point x="82" y="-156"/>
			<point x="97" y="-140"/>
			<point x="97" y="-120" type="curve" smooth="yes"/>
			<point x="97" y="-99"/>
			<point x="82" y="-84"/>
			<point x="62" y="-84" type="curve" smooth="yes"/>
			<point x="41" y="-84"/>
			<point x="26" y="-99"/>
			<point x="26" y="-120" type="curve" smooth="yes"/>
			<point x="26" y="-140"/>
			<point x="41" y="-156"/>
		</contour>
	</outline>
	<anchor name="_belowPrimaryHE" x="0" y="-30"/>
	<anchor name="_belowLeftHE" x="-86" y="-30"/>
	<anchor name="_belowRightHE" x="86" y="-30"/>
	<anchor name="belowPrimaryHE" x="-162" y="-30"/>
	<anchor name="_belowSecondaryHE" x="0" y="-30"/>
</glyph>
<glyph name="hePatah" format="2">
	<unicode hex="05B7"/>
	<outline>
		<contour>
			<point x="-102" y="-128" type="line"/>
			<point x="102" y="-128" type="line"/>
			<point x="102" y="-88" type="line"/>
			<point x="-102" y="-88" type="line"/>
		</contour>
	</outline>
	<anchor name="_belowPrimaryHE" x="0" y="-30"/>
	<anchor name="_belowLeftHE" x="-101" y="-30"/>
	<anchor name="_belowRightHE" x="101" y="-30"/>
	<anchor name="belowPrimaryHE" x="-162" y="-30"/>
	<anchor name="_belowSecondaryHE" x="19" y="-30"/>
	<guideline x="-152" identifier="QGO5vhQEkK"/>
</glyph>
<glyph name="heQamats" format="2">
	<unicode hex="05B8"/>
	<outline>
		<contour>
			<point x="-16" y="-242" type="line"/>
			<point x="16" y="-242" type="line"/>
			<point x="16" y="-137" type="line"/>
			<point x="88" y="-137" type="line"/>
			<point x="88" y="-105" type="line"/>
			<point x="-88" y="-105" type="line"/>
			<point x="-88" y="-137" type="line"/>
			<point x="-16" y="-137" type="line"/>
		</contour>
	</outline>
	<anchor name="_belowPrimaryHE" x="0" y="-29"/>
	<anchor name="_belowLeftHE" x="-96" y="-29"/>
	<anchor name="_belowRightHE" x="96" y="-29"/>
	<anchor name="belowPrimaryHE" x="-162" y="-29"/>
	<anchor name="_belowSecondaryHE" x="0" y="-29"/>
	<guideline y="46" identifier="Ota23jXeoc"/>
	<guideline x="-87" identifier="sFmUGK18RC"/>
	<guideline x="-162" identifier="prZ02GHauW"/>
</glyph>
<glyph name="heHolam" format="2">
	<unicode hex="05B9"/>
	<outline>
		<contour>
			<point x="0" y="630" type="curve" smooth="yes"/>
			<point x="20" y="630"/>
			<point x="36" y="645"/>
			<point x="36" y="666" type="curve" smooth="yes"/>
			<point x="36" y="687"/>
			<point x="20" y="702"/>
			<point x="0" y="702" type="curve" smooth="yes"/>
			<point x="-20" y="702"/>
			<point x="-36" y="687"/>
			<point x="-36" y="666" type="curve" smooth="yes"/>
			<point x="-36" y="645"/>
			<point x="-20" y="630"/>
		</contour>
	</outline>
	<anchor name="_aboveLeftHE" x="0" y="584"/>
</glyph>
<glyph name="heQubuts" format="2">
	<unicode hex="05BB"/>
	<outline>
		<contour>
			<point x="-74" y="-147" type="curve" smooth="yes"/>
			<point x="-54" y="-147"/>
			<point x="-39" y="-133"/>
			<point x="-39" y="-113" type="curve" smooth="yes"/>
			<point x="-39" y="-93"/>
			<point x="-54" y="-78"/>
			<point x="-74" y="-78" type="curve" smooth="yes"/>
			<point x="-94" y="-78"/>
			<point x="-108" y="-93"/>
			<point x="-108" y="-113" type="curve" smooth="yes"/>
			<point x="-108" y="-133"/>
			<point x="-94" y="-147"/>
		</contour>
		<contour>
			<point x="0" y="-232" type="curve" smooth="yes"/>
			<point x="20" y="-232"/>
			<point x="35" y="-216"/>
			<point x="35" y="-198" type="curve" smooth="yes"/>
			<point x="35" y="-177"/>
			<point x="20" y="-164"/>
			<point x="0" y="-164" type="curve" smooth="yes"/>
			<point x="-20" y="-164"/>
			<point x="-35" y="-177"/>
			<point x="-35" y="-198" type="curve" smooth="yes"/>
			<point x="-35" y="-216"/>
			<point x="-20" y="-232"/>
		</contour>
		<contour>
			<point x="74" y="-318" type="curve" smooth="yes"/>
			<point x="91" y="-318"/>
			<point x="107" y="-304"/>
			<point x="107" y="-284" type="curve" smooth="yes"/>
			<point x="107" y="-264"/>
			<point x="91" y="-249"/>
			<point x="74" y="-249" type="curve" smooth="yes"/>
			<point x="53" y="-249"/>
			<point x="39" y="-264"/>
			<point x="39" y="-284" type="curve" smooth="yes"/>
			<point x="39" y="-304"/>
			<point x="53" y="-318"/>
		</contour>
	</outline>
	<anchor name="_belowPrimaryHE" x="0" y="-30"/>
	<anchor name="_belowLeftHE" x="-114" y="-30"/>
	<anchor name="_belowRightHE" x="65" y="-30"/>
	<anchor name="belowPrimaryHE" x="-172" y="-30"/>
	<anchor name="_belowSecondaryHE" x="0" y="-30"/>
	<guideline x="-173" identifier="q1OXs8zNLH"/>
</glyph>
<glyph name="heDagesh" format="2">
	<unicode hex="05BC"/>
	<outline>
		<contour>
			<point x="0" y="246" type="curve" smooth="yes"/>
			<point x="20" y="246"/>
			<point x="36" y="261"/>
			<point x="36" y="282" type="curve" smooth="yes"/>
			<point x="36" y="302"/>
			<point x="20" y="317"/>
			<point x="0" y="317" type="curve" smooth="yes"/>
			<point x="-20" y="317"/>
			<point x="-36" y="302"/>
			<point x="-36" y="282" type="curve" smooth="yes"/>
			<point x="-36" y="261"/>
			<point x="-20" y="246"/>
		</contour>
	</outline>
	<anchor name="_centerHE" x="0" y="282"/>
	<anchor name="centerSecondaryHE" x="0" y="230"/>
	<anchor name="_centerSecondaryHE" x="0" y="371"/>
	<guideline y="285" identifier="znpAucETLd"/>
</glyph>
<glyph name="heMeteg" format="2">
	<unicode hex="05BD"/>
	<outline>
		<contour>
			<point x="-16" y="-264" type="line"/>
			<point x="16" y="-264" type="line"/>
			<point x="16" y="-92" type="line"/>
			<point x="-16" y="-92" type="line"/>
		</contour>
	</outline>
	<anchor name="_belowPrimaryHE" x="0" y="-30"/>
	<anchor name="_belowLeftHE" x="-20" y="-30"/>
	<anchor name="_belowRightHE" x="20" y="-30"/>
	<anchor name="_belowSecondaryHE" x="0" y="-30"/>
</glyph>
<glyph name="heMaqaf" format="2">
	<unicode hex="05BE"/>
	<advance width="334"/>
	<outline>
		<contour>
			<point x="39" y="493" type="line"/>
			<point x="295" y="493" type="line"/>
			<point x="295" y="553" type="line"/>
			<point x="39" y="553" type="line"/>
		</contour>
	</outline>
</glyph>
<glyph name="heRafe" format="2">
	<unicode hex="05BF"/>
	<outline>
		<contour>
			<point x="-102" y="638" type="line"/>
			<point x="102" y="638" type="line"/>
			<point x="102" y="679" type="line"/>
			<point x="-102" y="679" type="line"/>
		</contour>
	</outline>
	<anchor name="_aboveHE" x="0" y="584"/>
</glyph>
<glyph name="hePaseq" format="2">
	<unicode hex="05C0"/>
	<advance width="265"/>
	<outline>
		<contour>
			<point x="100" y="-106" type="line"/>
			<point x="152" y="-106" type="line"/>
			<point x="152" y="660" type="line"/>
			<point x="100" y="661" type="line"/>
		</contour>
	</outline>
</glyph>
<glyph name="heSinDot" format="2">
	<unicode hex="05C2"/>
	<outline>
		<contour>
			<point x="0" y="630" type="curve" smooth="yes"/>
			<point x="20" y="630"/>
			<point x="36" y="645"/>
			<point x="36" y="666" type="curve" smooth="yes"/>
			<point x="36" y="687"/>
			<point x="20" y="702"/>
			<point x="0" y="702" type="curve" smooth="yes"/>
			<point x="-20" y="702"/>
			<point x="-36" y="687"/>
			<point x="-36" y="666" type="curve" smooth="yes"/>
			<point x="-36" y="645"/>
			<point x="-20" y="630"/>
		</contour>
	</outline>
	<anchor name="_sinHE" x="0" y="584"/>
</glyph>
<glyph name="heSofPasuq" format="2">
	<unicode hex="05C3"/>
	<advance width="250"/>
	<outline>
		<contour>
			<point x="125" y="409" type="curve" smooth="yes"/>
			<point x="153" y="409"/>
			<point x="171" y="432"/>
			<point x="171" y="459" type="curve" smooth="yes"/>
			<point x="171" y="488"/>
			<point x="153" y="508"/>
			<point x="126" y="508" type="curve" smooth="yes"/>
			<point x="99" y="508"/>
			<point x="80" y="488"/>
			<point x="80" y="459" type="curve" smooth="yes"/>
			<point x="79" y="432"/>
			<point x="98" y="409"/>
		</contour>
		<contour>
			<point x="125" y="-11" type="curve" smooth="yes"/>
			<point x="153" y="-11"/>
			<point x="171" y="11"/>
			<point x="171" y="38" type="curve" smooth="yes"/>
			<point x="171" y="68"/>
			<point x="153" y="88"/>
			<point x="126" y="88" type="curve" smooth="yes"/>
			<point x="99" y="88"/>
			<point x="80" y="67"/>
			<point x="80" y="38" type="curve" smooth="yes"/>
			<point x="79" y="11"/>
			<point x="98" y="-11"/>
		</contour>
	</outline>
</glyph>
<glyph name="heAlef" format="2">
	<unicode hex="05D0"/>
	<advance width="596"/>
	<outline>
		<contour>
			<point x="414" y="170" type="line"/>
			<point x="488" y="270"/>
			<point x="542" y="365"/>
			<point x="542" y="446" type="curve" smooth="yes"/>
			<point x="542" y="520"/>
			<point x="508" y="548"/>
			<point x="434" y="548" type="curve" smooth="yes"/>
			<point x="363" y="548" type="line"/>
			<point x="363" y="508" type="line"/>
			<point x="411" y="508" type="line" smooth="yes"/>
			<point x="470" y="508"/>
			<point x="495" y="493"/>
			<point x="495" y="441" type="curve" smooth="yes"/>
			<point x="495" y="377"/>
			<point x="456" y="285"/>
			<point x="387" y="195" type="curve"/>
		</contour>
		<contour>
			<point x="96" y="0" type="curve"/>
			<point x="143" y="0" type="line"/>
			<point x="141" y="24"/>
			<point x="138" y="46"/>
			<point x="138" y="67" type="curve" smooth="yes"/>
			<point x="138" y="211"/>
			<point x="165" y="297"/>
			<point x="210" y="390" type="curve"/>
			<point x="180" y="409" type="line"/>
			<point x="129" y="314"/>
			<point x="94" y="218"/>
			<point x="94" y="62" type="curve" smooth="yes"/>
			<point x="94" y="42"/>
			<point x="94" y="21"/>
		</contour>
		<contour>
			<point x="525" y="-5" type="curve"/>
			<point x="574" y="3" type="line"/>
			<point x="410" y="176"/>
			<point x="233" y="370"/>
			<point x="126" y="553" type="curve"/>
			<point x="76" y="545" type="line"/>
			<point x="200" y="355"/>
			<point x="376" y="153"/>
		</contour>
	</outline>
	<anchor name="aboveHE" x="312" y="590"/>
	<anchor name="belowPrimaryHE" x="319" y="-29"/>
	<anchor name="aboveLeftHE" x="38" y="590"/>
	<anchor name="centerHE" x="253" y="117"/>
</glyph>
<glyph name="heBet" format="2">
	<unicode hex="05D1"/>
	<advance width="525"/>
	<outline>
		<contour>
			<point x="53" y="0" type="line"/>
			<point x="482" y="0" type="line"/>
			<point x="482" y="42" type="line"/>
			<point x="53" y="42" type="line"/>
		</contour>
		<contour>
			<point x="417" y="0" type="line"/>
			<point x="422" y="107"/>
			<point x="428" y="190"/>
			<point x="428" y="300" type="curve" smooth="yes"/>
			<point x="428" y="481"/>
			<point x="356" y="548"/>
			<point x="217" y="548" type="curve" smooth="yes"/>
			<point x="73" y="548" type="line"/>
			<point x="73" y="504" type="line"/>
			<point x="203" y="504" type="line" smooth="yes"/>
			<point x="328" y="504"/>
			<point x="388" y="452"/>
			<point x="388" y="285" type="curve" smooth="yes"/>
			<point x="388" y="194"/>
			<point x="385" y="129"/>
			<point x="380" y="42" type="curve"/>
		</contour>
	</outline>
	<anchor name="aboveHE" x="224" y="584"/>
	<anchor name="belowPrimaryHE" x="222" y="-30"/>
	<anchor name="centerHE" x="207" y="282"/>
	<anchor name="aboveLeftHE" x="0" y="584"/>
</glyph>
<glyph name="heGimel" format="2">
	<unicode hex="05D2"/>
	<advance width="376"/>
	<outline>
		<contour>
			<point x="257" y="0" type="line"/>
			<point x="302" y="0" type="line"/>
			<point x="266" y="417" type="line" smooth="yes"/>
			<point x="258" y="502"/>
			<point x="220" y="548"/>
			<point x="139" y="548" type="curve" smooth="yes"/>
			<point x="73" y="548" type="line"/>
			<point x="73" y="508" type="line"/>
			<point x="122" y="508" type="line" smooth="yes"/>
			<point x="190" y="508"/>
			<point x="220" y="480"/>
			<point x="226" y="404" type="curve" smooth="yes"/>
		</contour>
		<contour>
			<point x="53" y="-8" type="line"/>
			<point x="162" y="-2"/>
			<point x="254" y="84"/>
			<point x="262" y="156" type="curve"/>
			<point x="251" y="186" type="line"/>
			<point x="237" y="104"/>
			<point x="147" y="41"/>
			<point x="53" y="33" type="curve"/>
		</contour>
	</outline>
	<anchor name="aboveHE" x="166" y="590"/>
	<anchor name="belowPrimaryHE" x="174" y="-29"/>
	<anchor name="centerHE" x="140" y="299"/>
	<anchor name="aboveLeftHE" x="33" y="590"/>
	<anchor name="belowPrimaryHECXT" x="203" y="-29"/>
</glyph>
<glyph name="heDalet" format="2">
	<unicode hex="05D3"/>
	<advance width="477"/>
	<outline>
		<contour>
			<point x="5" y="504" type="line"/>
			<point x="434" y="504" type="line"/>
			<point x="434" y="548" type="line"/>
			<point x="5" y="548" type="line"/>
		</contour>
		<contour>
			<point x="300" y="0" type="line"/>
			<point x="340" y="0" type="line"/>
			<point x="340" y="504" type="line"/>
			<point x="308" y="504" type="line"/>
			<point x="301" y="476"/>
			<point x="300" y="446"/>
			<point x="300" y="408" type="curve" smooth="yes"/>
		</contour>
	</outline>
	<anchor name="aboveHE" x="234" y="584"/>
	<anchor name="belowSecondaryHE" x="335" y="-30"/>
	<anchor name="centerHE" x="170" y="248"/>
	<anchor name="aboveLeftHE" x="-1" y="584"/>
</glyph>
<glyph name="heHe" format="2">
	<unicode hex="05D4"/>
	<advance width="648"/>
	<outline>
		<contour>
			<point x="509" y="0" type="line"/>
			<point x="549" y="0" type="line"/>
			<point x="549" y="350" type="line" smooth="yes"/>
			<point x="549" y="495"/>
			<point x="478" y="548"/>
			<point x="370" y="548" type="curve" smooth="yes"/>
			<point x="90" y="548" type="line"/>
			<point x="90" y="504" type="line"/>
			<point x="357" y="504" type="line" smooth="yes"/>
			<point x="450" y="504"/>
			<point x="509" y="464"/>
			<point x="509" y="337" type="curve" smooth="yes"/>
		</contour>
		<contour>
			<point x="113" y="0" type="line"/>
			<point x="153" y="0" type="line"/>
			<point x="153" y="334" type="line"/>
			<point x="121" y="334" type="line"/>
			<point x="114" y="306"/>
			<point x="113" y="276"/>
			<point x="113" y="238" type="curve" smooth="yes"/>
		</contour>
	</outline>
</glyph>
<glyph name="heVav" format="2">
	<unicode hex="05D5"/>
	<advance width="284"/>
	<outline>
		<contour>
			<point x="145" y="0" type="line"/>
			<point x="185" y="0" type="line"/>
			<point x="185" y="388" type="line" smooth="yes"/>
			<point x="185" y="514"/>
			<point x="138" y="548"/>
			<point x="44" y="548" type="curve" smooth="yes"/>
			<point x="5" y="548" type="line"/>
			<point x="5" y="504" type="line"/>
			<point x="31" y="504" type="line" smooth="yes"/>
			<point x="108" y="504"/>
			<point x="145" y="483"/>
			<point x="145" y="375" type="curve" smooth="yes"/>
		</contour>
	</outline>
	<anchor name="aboveHE" x="114" y="584"/>
	<anchor name="belowSecondaryHE" x="174" y="-30"/>
	<anchor name="centerHE" x="56" y="248"/>
	<anchor name="holamHE" x="-1" y="584"/>
	<anchor name="aboveLeftHE" x="114" y="554"/>
</glyph>
<glyph name="heZayin" format="2">
	<unicode hex="05D6"/>
	<advance width="285"/>
	<outline>
		<contour>
			<point x="5" y="504" type="line"/>
			<point x="242" y="504" type="line"/>
			<point x="242" y="548" type="line"/>
			<point x="5" y="548" type="line"/>
		</contour>
		<contour>
			<point x="132" y="0" type="curve"/>
			<point x="172" y="0" type="line"/>
			<point x="153" y="181"/>
			<point x="141" y="337"/>
			<point x="141" y="413" type="curve" smooth="yes"/>
			<point x="141" y="444"/>
			<point x="141" y="473"/>
			<point x="147" y="504" type="curve"/>
			<point x="115" y="504" type="line"/>
			<point x="106" y="476"/>
			<point x="101" y="448"/>
			<point x="101" y="411" type="curve" smooth="yes"/>
			<point x="101" y="329"/>
			<point x="116" y="172"/>
		</contour>
	</outline>
	<anchor name="aboveHE" x="106" y="575"/>
	<anchor name="belowPrimaryHE" x="114" y="-30"/>
	<anchor name="centerHE" x="-10" y="253"/>
	<anchor name="aboveLeftHE" x="-39" y="584"/>
</glyph>
<glyph name="heHet" format="2">
	<unicode hex="05D7"/>
	<advance width="662"/>
	<outline>
		<contour>
			<point x="523" y="0" type="line"/>
			<point x="563" y="0" type="line"/>
			<point x="563" y="350" type="line" smooth="yes"/>
			<point x="563" y="495"/>
			<point x="492" y="548"/>
			<point x="384" y="548" type="curve" smooth="yes"/>
			<point x="36" y="548" type="line"/>
			<point x="36" y="504" type="line"/>
			<point x="371" y="504" type="line" smooth="yes"/>
			<point x="464" y="504"/>
			<point x="523" y="464"/>
			<point x="523" y="337" type="curve" smooth="yes"/>
		</contour>
		<contour>
			<point x="113" y="0" type="line"/>
			<point x="153" y="0" type="line"/>
			<point x="153" y="504" type="line"/>
			<point x="121" y="504" type="line"/>
			<point x="114" y="476"/>
			<point x="113" y="446"/>
			<point x="113" y="408" type="curve" smooth="yes"/>
		</contour>
	</outline>
</glyph>
<glyph name="heTet" format="2">
	<unicode hex="05D8"/>
	<advance width="596"/>
	<outline>
		<contour>
			<point x="307" y="-12" type="curve" smooth="yes"/>
			<point x="434" y="-12"/>
			<point x="541" y="102"/>
			<point x="541" y="360" type="curve" smooth="yes"/>
			<point x="541" y="501"/>
			<point x="494" y="548"/>
			<point x="395" y="548" type="curve" smooth="yes"/>
			<point x="333" y="548" type="line"/>
			<point x="333" y="502" type="line"/>
			<point x="387" y="502" type="line" smooth="yes"/>
			<point x="466" y="502"/>
			<point x="501" y="469"/>
			<point x="501" y="356" type="curve" smooth="yes"/>
			<point x="501" y="128"/>
			<point x="405" y="34"/>
			<point x="309" y="34" type="curve" smooth="yes"/>
			<point x="210" y="34"/>
			<point x="145" y="127"/>
			<point x="145" y="281" type="curve" smooth="yes"/>
			<point x="145" y="329"/>
			<point x="149" y="380"/>
			<point x="149" y="427" type="curve" smooth="yes"/>
			<point x="149" y="523"/>
			<point x="114" y="548"/>
			<point x="45" y="548" type="curve" smooth="yes"/>
			<point x="24" y="548" type="line"/>
			<point x="24" y="504" type="line"/>
			<point x="36" y="504" type="line" smooth="yes"/>
			<point x="86" y="504"/>
			<point x="109" y="490"/>
			<point x="109" y="414" type="curve" smooth="yes"/>
			<point x="109" y="368"/>
			<point x="105" y="320"/>
			<point x="105" y="275" type="curve" smooth="yes"/>
			<point x="105" y="97"/>
			<point x="189" y="-12"/>
		</contour>
	</outline>
	<anchor name="aboveHE" x="314" y="584"/>
	<anchor name="belowPrimaryHE" x="324" y="-30"/>
	<anchor name="centerHE" x="314" y="296"/>
	<anchor name="aboveLeftHE" x="2" y="584"/>
</glyph>
<glyph name="heYod" format="2">
	<unicode hex="05D9"/>
	<advance width="240"/>
	<outline>
		<contour>
			<point x="100" y="235" type="line"/>
			<point x="147" y="305"/>
			<point x="185" y="384"/>
			<point x="185" y="444" type="curve" smooth="yes"/>
			<point x="185" y="516"/>
			<point x="159" y="548"/>
			<point x="78" y="548" type="curve" smooth="yes"/>
			<point x="5" y="548" type="line"/>
			<point x="5" y="504" type="line"/>
			<point x="60" y="504" type="line" smooth="yes"/>
			<point x="131" y="504"/>
			<point x="145" y="483"/>
			<point x="145" y="439" type="curve" smooth="yes"/>
			<point x="145" y="389"/>
			<point x="112" y="316"/>
			<point x="67" y="253" type="curve"/>
		</contour>
	</outline>
	<anchor name="aboveHE" x="85" y="584"/>
	<anchor name="belowPrimaryHE" x="123" y="-30"/>
	<anchor name="centerHE" x="26" y="392"/>
	<anchor name="aboveLeftHE" x="-10" y="584"/>
</glyph>
<glyph name="heKafFin" format="2">
	<unicode hex="05DA"/>
	<advance width="460"/>
	<outline>
		<contour>
			<point x="321" y="-200" type="line"/>
			<point x="361" y="-200" type="line"/>
			<point x="361" y="350" type="line" smooth="yes"/>
			<point x="361" y="495"/>
			<point x="290" y="548"/>
			<point x="182" y="548" type="curve" smooth="yes"/>
			<point x="5" y="548" type="line"/>
			<point x="5" y="504" type="line"/>
			<point x="169" y="504" type="line" smooth="yes"/>
			<point x="262" y="504"/>
			<point x="321" y="464"/>
			<point x="321" y="337" type="curve" smooth="yes"/>
		</contour>
	</outline>
	<anchor name="aboveHE" x="190" y="584"/>
	<anchor name="centerSecondaryHE" x="167" y="381"/>
	<anchor name="aboveLeftHE" x="-12" y="584"/>
	<anchor name="belowPrimaryHE" x="167" y="-30"/>
</glyph>
<glyph name="heKaf" format="2">
	<unicode hex="05DB"/>
	<advance width="530"/>
	<outline>
		<contour>
			<point x="53" y="0" type="line"/>
			<point x="416" y="0" type="line"/>
			<point x="428" y="98"/>
			<point x="437" y="190"/>
			<point x="437" y="300" type="curve" smooth="yes"/>
			<point x="437" y="481"/>
			<point x="365" y="548"/>
			<point x="227" y="548" type="curve" smooth="yes"/>
			<point x="73" y="548" type="line"/>
			<point x="73" y="504" type="line"/>
			<point x="213" y="504" type="line" smooth="yes"/>
			<point x="338" y="504"/>
			<point x="397" y="452"/>
			<point x="397" y="285" type="curve" smooth="yes"/>
			<point x="397" y="195"/>
			<point x="390" y="122"/>
			<point x="380" y="44" type="curve"/>
			<point x="53" y="44" type="line"/>
		</contour>
	</outline>
	<anchor name="aboveHE" x="229" y="584"/>
	<anchor name="belowPrimaryHE" x="220" y="-30"/>
	<anchor name="centerHE" x="208" y="282"/>
	<anchor name="aboveLeftHE" x="14" y="584"/>
</glyph>
<glyph name="heLamed" format="2">
	<unicode hex="05DC"/>
	<advance width="463"/>
	<outline>
		<contour>
			<point x="108" y="-12" type="line"/>
			<point x="316" y="114"/>
			<point x="407" y="262"/>
			<point x="407" y="397" type="curve" smooth="yes"/>
			<point x="407" y="501"/>
			<point x="366" y="548"/>
			<point x="240" y="548" type="curve" smooth="yes"/>
			<point x="99" y="548" type="line"/>
			<point x="99" y="735" type="line"/>
			<point x="55" y="735" type="line"/>
			<point x="55" y="508" type="line"/>
			<point x="227" y="508" type="line" smooth="yes"/>
			<point x="322" y="508"/>
			<point x="361" y="483"/>
			<point x="361" y="393" type="curve" smooth="yes"/>
			<point x="361" y="271"/>
			<point x="283" y="145"/>
			<point x="84" y="24" type="curve"/>
		</contour>
	</outline>
	<anchor name="aboveHE" x="243" y="590"/>
	<anchor name="belowLeftHE" x="168" y="-29"/>
	<anchor name="centerHE" x="172" y="318"/>
	<anchor name="aboveLeftHE" x="-74" y="590"/>
</glyph>
<glyph name="heMemFin" format="2">
	<unicode hex="05DD"/>
	<advance width="635"/>
	<outline>
		<contour>
			<point x="135" y="0" type="line"/>
			<point x="538" y="0" type="line"/>
			<point x="538" y="350" type="line" smooth="yes"/>
			<point x="538" y="495"/>
			<point x="467" y="548"/>
			<point x="359" y="548" type="curve" smooth="yes"/>
			<point x="37" y="548" type="line"/>
			<point x="37" y="508" type="line"/>
			<point x="342" y="508" type="line" smooth="yes"/>
			<point x="435" y="508"/>
			<point x="494" y="468"/>
			<point x="494" y="341" type="curve" smooth="yes"/>
			<point x="494" y="40" type="line"/>
			<point x="135" y="40" type="line"/>
		</contour>
		<contour>
			<point x="112" y="0" type="line"/>
			<point x="156" y="0" type="line"/>
			<point x="156" y="508" type="line"/>
			<point x="122" y="508" type="line"/>
			<point x="114" y="481"/>
			<point x="112" y="448"/>
			<point x="112" y="410" type="curve" smooth="yes"/>
		</contour>
	</outline>
	<anchor name="aboveHE" x="322" y="590"/>
	<anchor name="belowPrimaryHE" x="331" y="-29"/>
	<anchor name="centerHE" x="331" y="280"/>
	<anchor name="aboveLeftHE" x="4" y="590"/>
</glyph>
<glyph name="heMem" format="2">
	<unicode hex="05DE"/>
	<advance width="661"/>
	<outline>
		<contour>
			<point x="286" y="0" type="line"/>
			<point x="558" y="0" type="line"/>
			<point x="568" y="125"/>
			<point x="568" y="201"/>
			<point x="568" y="280" type="curve" smooth="yes"/>
			<point x="568" y="490"/>
			<point x="506" y="560"/>
			<point x="386" y="560" type="curve" smooth="yes"/>
			<point x="210" y="560"/>
			<point x="99" y="287"/>
			<point x="99" y="0" type="curve"/>
			<point x="139" y="0" type="line"/>
			<point x="139" y="270"/>
			<point x="239" y="514"/>
			<point x="382" y="514" type="curve" smooth="yes"/>
			<point x="478" y="514"/>
			<point x="526" y="459"/>
			<point x="526" y="280" type="curve" smooth="yes"/>
			<point x="526" y="200"/>
			<point x="526" y="144"/>
			<point x="519" y="42" type="curve"/>
			<point x="286" y="44" type="line"/>
		</contour>
		<contour>
			<point x="135" y="278" type="curve"/>
			<point x="162" y="277" type="line"/>
			<point x="174" y="330"/>
			<point x="188" y="421"/>
			<point x="188" y="445" type="curve" smooth="yes"/>
			<point x="188" y="516"/>
			<point x="160" y="548"/>
			<point x="85" y="548" type="curve" smooth="yes"/>
			<point x="43" y="548" type="line"/>
			<point x="43" y="504" type="line"/>
			<point x="72" y="504" type="line" smooth="yes"/>
			<point x="139" y="504"/>
			<point x="156" y="484"/>
			<point x="156" y="439" type="curve" smooth="yes"/>
			<point x="156" y="404"/>
			<point x="147" y="324"/>
		</contour>
	</outline>
	<anchor name="aboveHE" x="343" y="575"/>
	<anchor name="belowPrimaryHE" x="349" y="-30"/>
	<anchor name="centerHE" x="353" y="282"/>
	<anchor name="aboveLeftHE" x="-4" y="584"/>
</glyph>
<glyph name="heNunFin" format="2">
	<unicode hex="05DF"/>
	<advance width="285"/>
	<outline>
		<contour>
			<point x="146" y="-200" type="line"/>
			<point x="186" y="-200" type="line"/>
			<point x="186" y="388" type="line" smooth="yes"/>
			<point x="186" y="514"/>
			<point x="139" y="548"/>
			<point x="45" y="548" type="curve" smooth="yes"/>
			<point x="5" y="548" type="line"/>
			<point x="5" y="504" type="line"/>
			<point x="32" y="504" type="line" smooth="yes"/>
			<point x="109" y="504"/>
			<point x="146" y="483"/>
			<point x="146" y="375" type="curve" smooth="yes"/>
		</contour>
	</outline>
</glyph>
<glyph name="heNun" format="2">
	<unicode hex="05E0"/>
	<advance width="400"/>
	<outline>
		<contour>
			<point x="54" y="0" type="line"/>
			<point x="300" y="0" type="line"/>
			<point x="300" y="388" type="line" smooth="yes"/>
			<point x="300" y="514"/>
			<point x="253" y="548"/>
			<point x="159" y="548" type="curve" smooth="yes"/>
			<point x="79" y="548" type="line"/>
			<point x="79" y="504" type="line"/>
			<point x="146" y="504" type="line" smooth="yes"/>
			<point x="223" y="504"/>
			<point x="260" y="483"/>
			<point x="260" y="375" type="curve" smooth="yes"/>
			<point x="260" y="44" type="line"/>
			<point x="54" y="44" type="line"/>
		</contour>
	</outline>
</glyph>
<glyph name="heSamekh" format="2">
	<unicode hex="05E1"/>
	<advance width="579"/>
	<outline>
		<contour>
			<point x="298" y="-12" type="curve" smooth="yes"/>
			<point x="425" y="-12"/>
			<point x="524" y="131"/>
			<point x="524" y="387" type="curve" smooth="yes"/>
			<point x="524" y="507"/>
			<point x="487" y="548"/>
			<point x="407" y="548" type="curve" smooth="yes"/>
			<point x="4" y="548" type="line"/>
			<point x="4" y="504" type="line"/>
			<point x="399" y="504" type="line" smooth="yes"/>
			<point x="459" y="504"/>
			<point x="486" y="476"/>
			<point x="486" y="383" type="curve" smooth="yes"/>
			<point x="486" y="156"/>
			<point x="396" y="34"/>
			<point x="300" y="34" type="curve" smooth="yes"/>
			<point x="191" y="34"/>
			<point x="114" y="199"/>
			<point x="112" y="524" type="curve"/>
			<point x="74" y="514" type="line"/>
			<point x="76" y="163"/>
			<point x="165" y="-12"/>
		</contour>
	</outline>
	<anchor name="aboveHE" x="304" y="584"/>
	<anchor name="belowPrimaryHE" x="314" y="-30"/>
	<anchor name="centerHE" x="304" y="296"/>
	<anchor name="aboveLeftHE" x="-8" y="584"/>
</glyph>
<glyph name="heAyin" format="2">
	<unicode hex="05E2"/>
	<advance width="569"/>
	<outline>
		<contour>
			<point x="215" y="16" type="curve"/>
			<point x="254" y="24" type="line"/>
			<point x="230" y="210"/>
			<point x="160" y="423"/>
			<point x="100" y="554" type="curve"/>
			<point x="58" y="545" type="line"/>
			<point x="120" y="410"/>
			<point x="192" y="200"/>
		</contour>
		<contour>
			<point x="53" y="0" type="line"/>
			<point x="137" y="0" type="line" smooth="yes"/>
			<point x="375" y="0"/>
			<point x="514" y="201"/>
			<point x="514" y="378" type="curve" smooth="yes"/>
			<point x="514" y="505"/>
			<point x="467" y="548"/>
			<point x="368" y="548" type="curve" smooth="yes"/>
			<point x="307" y="548" type="line"/>
			<point x="307" y="502" type="line"/>
			<point x="360" y="502" type="line" smooth="yes"/>
			<point x="439" y="502"/>
			<point x="474" y="474"/>
			<point x="474" y="374" type="curve" smooth="yes"/>
			<point x="474" y="217"/>
			<point x="351" y="42"/>
			<point x="139" y="42" type="curve" smooth="yes"/>
			<point x="53" y="42" type="line"/>
		</contour>
	</outline>
	<anchor name="aboveHE" x="262" y="584"/>
	<anchor name="belowPrimaryHE" x="316" y="-30"/>
	<anchor name="aboveLeftHE" x="-11" y="584"/>
</glyph>
<glyph name="hePeFin" format="2">
	<unicode hex="05E3"/>
	<advance width="544"/>
	<outline>
		<contour>
			<point x="406" y="-200" type="line"/>
			<point x="446" y="-200" type="line"/>
			<point x="446" y="340" type="line" smooth="yes"/>
			<point x="446" y="509"/>
			<point x="368" y="560"/>
			<point x="249" y="560" type="curve" smooth="yes"/>
			<point x="140" y="560"/>
			<point x="59" y="492"/>
			<point x="59" y="376" type="curve" smooth="yes"/>
			<point x="59" y="268"/>
			<point x="120" y="232"/>
			<point x="202" y="232" type="curve" smooth="yes"/>
			<point x="235" y="232" type="line"/>
			<point x="235" y="278" type="line"/>
			<point x="208" y="278" type="line" smooth="yes"/>
			<point x="147" y="278"/>
			<point x="99" y="300"/>
			<point x="99" y="378" type="curve" smooth="yes"/>
			<point x="99" y="467"/>
			<point x="159" y="516"/>
			<point x="245" y="516" type="curve" smooth="yes"/>
			<point x="342" y="516"/>
			<point x="406" y="482"/>
			<point x="406" y="328" type="curve" smooth="yes"/>
		</contour>
	</outline>
	<anchor name="aboveHE" x="260" y="584"/>
	<anchor name="belowRightHE" x="334" y="-30"/>
	<anchor name="centerHE" x="294" y="227"/>
	<anchor name="aboveLeftHE" x="20" y="584"/>
</glyph>
<glyph name="hePe" format="2">
	<unicode hex="05E4"/>
	<advance width="562"/>
	<outline>
		<contour>
			<point x="55" y="0" type="line"/>
			<point x="435" y="0" type="line"/>
			<point x="457" y="105"/>
			<point x="472" y="202"/>
			<point x="472" y="319" type="curve" smooth="yes"/>
			<point x="472" y="496"/>
			<point x="393" y="560"/>
			<point x="251" y="560" type="curve" smooth="yes"/>
			<point x="140" y="560"/>
			<point x="56" y="493"/>
			<point x="56" y="378" type="curve" smooth="yes"/>
			<point x="56" y="271"/>
			<point x="117" y="236"/>
			<point x="199" y="236" type="curve" smooth="yes"/>
			<point x="230" y="236" type="line"/>
			<point x="230" y="276" type="line"/>
			<point x="206" y="276" type="line" smooth="yes"/>
			<point x="147" y="276"/>
			<point x="100" y="300"/>
			<point x="100" y="381" type="curve" smooth="yes"/>
			<point x="100" y="471"/>
			<point x="160" y="520"/>
			<point x="249" y="520" type="curve" smooth="yes"/>
			<point x="366" y="520"/>
			<point x="427" y="470"/>
			<point x="427" y="311" type="curve" smooth="yes"/>
			<point x="427" y="212"/>
			<point x="417" y="127"/>
			<point x="400" y="40" type="curve"/>
			<point x="55" y="40" type="line"/>
		</contour>
	</outline>
	<anchor name="aboveHE" x="264" y="590"/>
	<anchor name="belowPrimaryHE" x="244" y="-29"/>
	<anchor name="centerHE" x="321" y="253"/>
	<anchor name="aboveLeftHE" x="41" y="590"/>
</glyph>
<glyph name="heTsadiFin" format="2">
	<unicode hex="05E5"/>
	<advance width="526"/>
	<outline>
		<contour>
			<point x="163" y="83" type="line"/>
			<point x="368" y="206"/>
			<point x="471" y="332"/>
			<point x="471" y="445" type="curve" smooth="yes"/>
			<point x="471" y="517"/>
			<point x="444" y="548"/>
			<point x="365" y="548" type="curve" smooth="yes"/>
			<point x="294" y="548" type="line"/>
			<point x="294" y="504" type="line"/>
			<point x="348" y="504" type="line" smooth="yes"/>
			<point x="417" y="504"/>
			<point x="431" y="483"/>
			<point x="431" y="439" type="curve" smooth="yes"/>
			<point x="431" y="338"/>
			<point x="338" y="232"/>
			<point x="152" y="124" type="curve"/>
		</contour>
		<contour>
			<point x="124" y="-200" type="line"/>
			<point x="164" y="-200" type="line"/>
			<point x="164" y="408" type="line" smooth="yes"/>
			<point x="164" y="518"/>
			<point x="122" y="548"/>
			<point x="41" y="548" type="curve" smooth="yes"/>
			<point x="5" y="548" type="line"/>
			<point x="5" y="504" type="line"/>
			<point x="32" y="504" type="line" smooth="yes"/>
			<point x="94" y="504"/>
			<point x="124" y="486"/>
			<point x="124" y="395" type="curve" smooth="yes"/>
		</contour>
	</outline>
	<anchor name="aboveHE" x="230" y="584"/>
	<anchor name="belowLeftHE" x="304" y="-30"/>
	<anchor name="aboveLeftHE" x="-4" y="584"/>
</glyph>
<glyph name="heTsadi" format="2">
	<unicode hex="05E6"/>
	<advance width="520"/>
	<outline>
		<contour>
			<point x="49" y="0" type="line"/>
			<point x="466" y="0" type="line"/>
			<point x="475" y="44" type="line"/>
			<point x="49" y="44" type="line"/>
		</contour>
		<contour>
			<point x="442" y="17" type="curve"/>
			<point x="475" y="44" type="line"/>
			<point x="287" y="201"/>
			<point x="157" y="359"/>
			<point x="66" y="550" type="curve"/>
			<point x="26" y="530" type="line"/>
			<point x="121" y="332"/>
			<point x="261" y="162"/>
		</contour>
		<contour>
			<point x="297" y="204" type="line"/>
			<point x="397" y="292"/>
			<point x="462" y="383"/>
			<point x="462" y="445" type="curve" smooth="yes"/>
			<point x="462" y="517"/>
			<point x="435" y="548"/>
			<point x="356" y="548" type="curve" smooth="yes"/>
			<point x="282" y="548" type="line"/>
			<point x="282" y="504" type="line"/>
			<point x="337" y="504" type="line" smooth="yes"/>
			<point x="408" y="504"/>
			<point x="422" y="483"/>
			<point x="422" y="439" type="curve" smooth="yes"/>
			<point x="422" y="382"/>
			<point x="366" y="308"/>
			<point x="259" y="223" type="curve"/>
		</contour>
	</outline>
</glyph>
<glyph name="heQof" format="2">
	<unicode hex="05E7"/>
	<advance width="557"/>
	<outline>
		<contour>
			<point x="233" y="-12" type="line"/>
			<point x="443" y="100"/>
			<point x="502" y="262"/>
			<point x="502" y="399" type="curve" smooth="yes"/>
			<point x="502" y="503"/>
			<point x="460" y="548"/>
			<point x="335" y="548" type="curve" smooth="yes"/>
			<point x="91" y="548" type="line"/>
			<point x="91" y="504" type="line"/>
			<point x="326" y="504" type="line" smooth="yes"/>
			<point x="421" y="504"/>
			<point x="460" y="480"/>
			<point x="460" y="393" type="curve" smooth="yes"/>
			<point x="460" y="271"/>
			<point x="412" y="136"/>
			<point x="213" y="29" type="curve"/>
		</contour>
		<contour>
			<point x="112" y="-200" type="line"/>
			<point x="152" y="-200" type="line"/>
			<point x="152" y="334" type="line"/>
			<point x="120" y="334" type="line"/>
			<point x="113" y="306"/>
			<point x="112" y="276"/>
			<point x="112" y="238" type="curve" smooth="yes"/>
		</contour>
	</outline>
	<anchor name="aboveHE" x="284" y="584"/>
	<anchor name="belowLeftHE" x="229" y="-30"/>
	<anchor name="centerHE" x="279" y="301"/>
	<anchor name="aboveLeftHE" x="0" y="584"/>
	<anchor name="belowLeftHECXT" x="296" y="-30"/>
</glyph>
<glyph name="heResh" format="2">
	<unicode hex="05E8"/>
	<advance width="458"/>
	<outline>
		<contour>
			<point x="317" y="0" type="line"/>
			<point x="361" y="0" type="line"/>
			<point x="361" y="350" type="line" smooth="yes"/>
			<point x="361" y="495"/>
			<point x="290" y="548"/>
			<point x="182" y="548" type="curve" smooth="yes"/>
			<point x="5" y="548" type="line"/>
			<point x="5" y="508" type="line"/>
			<point x="165" y="508" type="line" smooth="yes"/>
			<point x="258" y="508"/>
			<point x="317" y="468"/>
			<point x="317" y="341" type="curve" smooth="yes"/>
		</contour>
	</outline>
	<anchor name="aboveHE" x="176" y="590"/>
	<anchor name="belowSecondaryHE" x="343" y="-29"/>
	<anchor name="centerHE" x="150" y="256"/>
	<anchor name="aboveLeftHE" x="-1" y="590"/>
</glyph>
<glyph name="heShin" format="2">
	<unicode hex="05E9"/>
	<advance width="695"/>
	<outline>
		<contour>
			<point x="339" y="-12" type="curve" smooth="yes"/>
			<point x="506" y="-12"/>
			<point x="640" y="202"/>
			<point x="640" y="391" type="curve" smooth="yes"/>
			<point x="640" y="516"/>
			<point x="606" y="548"/>
			<point x="523" y="548" type="curve" smooth="yes"/>
			<point x="489" y="548" type="line"/>
			<point x="489" y="504" type="line"/>
			<point x="517" y="504" type="line" smooth="yes"/>
			<point x="577" y="504"/>
			<point x="602" y="483"/>
			<point x="602" y="383" type="curve" smooth="yes"/>
			<point x="602" y="225"/>
			<point x="486" y="31"/>
			<point x="341" y="31" type="curve" smooth="yes"/>
			<point x="199" y="31"/>
			<point x="120" y="161"/>
			<point x="109" y="552" type="curve"/>
			<point x="60" y="542" type="line"/>
			<point x="80" y="127"/>
			<point x="173" y="-12"/>
		</contour>
		<contour>
			<point x="241" y="40" type="line"/>
			<point x="350" y="209"/>
			<point x="410" y="365"/>
			<point x="410" y="442" type="curve" smooth="yes"/>
			<point x="410" y="511"/>
			<point x="388" y="548"/>
			<point x="314" y="548" type="curve" smooth="yes"/>
			<point x="278" y="548" type="line"/>
			<point x="278" y="504" type="line"/>
			<point x="298" y="504" type="line" smooth="yes"/>
			<point x="362" y="504"/>
			<point x="372" y="476"/>
			<point x="372" y="433" type="curve" smooth="yes"/>
			<point x="372" y="372"/>
			<point x="313" y="223"/>
			<point x="212" y="64" type="curve"/>
		</contour>
	</outline>
	<anchor name="aboveHE" x="324" y="584"/>
	<anchor name="belowPrimaryHE" x="358" y="-30"/>
	<anchor name="sinHE" x="53" y="554"/>
	<anchor name="centerHE" x="423" y="256"/>
	<anchor name="shinHE" x="518" y="554"/>
	<anchor name="aboveLeftHE" x="-47" y="584"/>
</glyph>
<glyph name="heTav" format="2">
	<unicode hex="05EA"/>
	<advance width="663"/>
	<outline>
		<contour>
			<point x="522" y="0" type="line"/>
			<point x="566" y="0" type="line"/>
			<point x="566" y="350" type="line" smooth="yes"/>
			<point x="566" y="495"/>
			<point x="496" y="548"/>
			<point x="387" y="548" type="curve" smooth="yes"/>
			<point x="75" y="548" type="line"/>
			<point x="75" y="508" type="line"/>
			<point x="370" y="508" type="line" smooth="yes"/>
			<point x="463" y="508"/>
			<point x="522" y="468"/>
			<point x="522" y="341" type="curve" smooth="yes"/>
		</contour>
		<contour>
			<point x="53" y="0" type="line"/>
			<point x="210" y="0" type="line"/>
			<point x="216" y="32" type="line"/>
			<point x="200" y="179"/>
			<point x="195" y="312"/>
			<point x="195" y="418" type="curve" smooth="yes"/>
			<point x="195" y="508" type="line"/>
			<point x="160" y="508" type="line"/>
			<point x="152" y="480"/>
			<point x="151" y="448"/>
			<point x="151" y="409" type="curve" smooth="yes"/>
			<point x="151" y="301"/>
			<point x="158" y="177"/>
			<point x="169" y="40" type="curve"/>
			<point x="53" y="40" type="line"/>
		</contour>
	</outline>
	<anchor name="aboveHE" x="332" y="590"/>
	<anchor name="belowPrimaryHE" x="351" y="-29"/>
	<anchor name="centerHE" x="351" y="256"/>
	<anchor name="aboveLeftHE" x="24" y="590"/>
</glyph>
<glyph name="heGeresh" format="2">
	<unicode hex="05F3"/>
	<advance width="219"/>
	<outline>
		<contour>
			<point x="80" y="376" type="line"/>
			<point x="115" y="444"/>
			<point x="136" y="516"/>
			<point x="136" y="600" type="curve" smooth="yes"/>
			<point x="136" y="611"/>
			<point x="135" y="628"/>
			<point x="134" y="635" type="curve"/>
			<point x="89" y="635" type="line"/>
			<point x="92" y="618"/>
			<point x="92" y="607"/>
			<point x="92" y="595" type="curve" smooth="yes"/>
			<point x="92" y="519"/>
			<point x="80" y="454"/>
			<point x="51" y="388" type="curve"/>
		</contour>
	</outline>
</glyph>
<glyph name="heGershayim" format="2">
	<unicode hex="05F4"/>
	<advance width="371"/>
	<outline>
		<contour>
			<point x="192" y="416" type="line"/>
			<point x="238" y="418" type="line"/>
			<point x="338" y="640" type="line"/>
			<point x="272" y="634" type="line"/>
		</contour>
		<contour>
			<point x="35" y="416" type="line"/>
			<point x="82" y="418" type="line"/>
			<point x="182" y="640" type="line"/>
			<point x="115" y="634" type="line"/>
		</contour>
	</outline>
</glyph>
<glyph name="fraction.S" format="2">
	<unicode hex="2044"/>
	<advance width="80"/>
	<outline>
		<contour>
			<point x="-153" y="-12" type="line"/>
			<point x="-115" y="-12" type="line"/>
			<point x="233" y="560" type="line"/>
			<point x="195" y="560" type="line"/>
		</contour>
	</outline>
</glyph>
<glyph name="fraction" format="2">
	<unicode hex="2044"/>
	<advance width="80"/>
	<outline>
		<contour>
			<point x="-163" y="-12" type="line"/>
			<point x="-125" y="-12" type="line"/>
			<point x="243" y="671" type="line"/>
			<point x="205" y="671" type="line"/>
		</contour>
	</outline>
</glyph>
<glyph name="newsheqel" format="2">
	<unicode hex="20AA"/>
	<advance width="479"/>
	<outline>
		<contour>
			<point x="38" y="0" type="line"/>
			<point x="78" y="0" type="line"/>
			<point x="78" y="602" type="line"/>
			<point x="170" y="602" type="line" smooth="yes"/>
			<point x="239" y="602"/>
			<point x="282" y="574"/>
			<point x="282" y="483" type="curve" smooth="yes"/>
			<point x="282" y="164" type="line"/>
			<point x="318" y="164" type="line"/>
			<point x="318" y="491" type="line" smooth="yes"/>
			<point x="318" y="600"/>
			<point x="263" y="639"/>
			<point x="178" y="639" type="curve" smooth="yes"/>
			<point x="38" y="639" type="line"/>
		</contour>
		<contour>
			<point x="161" y="0" type="line"/>
			<point x="291" y="0" type="line" smooth="yes"/>
			<point x="382" y="0"/>
			<point x="441" y="40"/>
			<point x="441" y="148" type="curve" smooth="yes"/>
			<point x="441" y="639" type="line"/>
			<point x="401" y="639" type="line"/>
			<point x="401" y="156" type="line" smooth="yes"/>
			<point x="401" y="65"/>
			<point x="354" y="37"/>
			<point x="279" y="37" type="curve" smooth="yes"/>
			<point x="196" y="37" type="line"/>
			<point x="196" y="476" type="line"/>
			<point x="161" y="476" type="line"/>
		</contour>
	</outline>
	<guideline x="239" y="273" angle="90" identifier="51LWLohGsJ"/>
</glyph>
<glyph name="Euro.S" format="2">
	<unicode hex="20AC"/>
	<advance width="479"/>
	<outline>
		<contour>
			<point x="317" y="-12" type="curve" smooth="yes"/>
			<point x="375" y="-12"/>
			<point x="424" y="13"/>
			<point x="458" y="45" type="curve"/>
			<point x="434" y="76" type="line"/>
			<point x="405" y="50"/>
			<point x="364" y="29"/>
			<point x="318" y="29" type="curve" smooth="yes"/>
			<point x="210" y="29"/>
			<point x="127" y="103"/>
			<point x="127" y="277" type="curve" smooth="yes"/>
			<point x="127" y="448"/>
			<point x="215" y="519"/>
			<point x="306" y="519" type="curve" smooth="yes"/>
			<point x="353" y="519"/>
			<point x="384" y="506"/>
			<point x="420" y="477" type="curve"/>
			<point x="445" y="508" type="line"/>
			<point x="404" y="542"/>
			<point x="364" y="560"/>
			<point x="306" y="560" type="curve" smooth="yes"/>
			<point x="192" y="560"/>
			<point x="88" y="477"/>
			<point x="88" y="276" type="curve" smooth="yes"/>
			<point x="88" y="73"/>
			<point x="187" y="-12"/>
		</contour>
		<contour>
			<point x="24" y="201" type="line"/>
			<point x="374" y="201" type="line"/>
			<point x="374" y="235" type="line"/>
			<point x="91" y="235" type="line"/>
			<point x="24" y="231" type="line"/>
		</contour>
		<contour>
			<point x="24" y="313" type="line"/>
			<point x="414" y="313" type="line"/>
			<point x="414" y="347" type="line"/>
			<point x="92" y="347" type="line"/>
			<point x="24" y="343" type="line"/>
		</contour>
	</outline>
</glyph>
<glyph name="ruble" format="2">
	<unicode hex="20BD"/>
	<advance width="479"/>
	<outline>
		<contour>
			<point x="135" y="0" type="line"/>
			<point x="179" y="0" type="line"/>
			<point x="179" y="280" type="line"/>
			<point x="226" y="280" type="line" smooth="yes"/>
			<point x="351" y="280"/>
			<point x="439" y="340"/>
			<point x="439" y="467" type="curve" smooth="yes"/>
			<point x="439" y="591"/>
			<point x="352" y="639"/>
			<point x="226" y="639" type="curve" smooth="yes"/>
			<point x="135" y="639" type="line"/>
		</contour>
		<contour>
			<point x="179" y="314" type="line"/>
			<point x="179" y="601" type="line"/>
			<point x="215" y="601" type="line" smooth="yes"/>
			<point x="330" y="601"/>
			<point x="394" y="566"/>
			<point x="394" y="464" type="curve" smooth="yes"/>
			<point x="394" y="362"/>
			<point x="330" y="314"/>
			<point x="215" y="314" type="curve" smooth="yes"/>
		</contour>
		<contour>
			<point x="53" y="170" type="line"/>
			<point x="383" y="170" type="line"/>
			<point x="383" y="204" type="line"/>
			<point x="135" y="204" type="line"/>
			<point x="53" y="199" type="line"/>
		</contour>
		<contour>
			<point x="53" y="280" type="line"/>
			<point x="157" y="280" type="line"/>
			<point x="157" y="314" type="line"/>
			<point x="135" y="314" type="line"/>
			<point x="53" y="309" type="line"/>
		</contour>
	</outline>
</glyph>
<glyph name="arrowleft.S" format="2">
	<unicode hex="2190"/>
	<advance width="620"/>
	<outline>
		<contour>
			<point x="298" y="7" type="line"/>
			<point x="324" y="34" type="line"/>
			<point x="93" y="254" type="line"/>
			<point x="580" y="254" type="line"/>
			<point x="580" y="293" type="line"/>
			<point x="93" y="293" type="line"/>
			<point x="324" y="512" type="line"/>
			<point x="298" y="540" type="line"/>
			<point x="29" y="275" type="line"/>
			<point x="29" y="271" type="line"/>
		</contour>
	</outline>
</glyph>
<glyph name="arrowup.S" format="2">
	<unicode hex="2191"/>
	<advance width="620"/>
	<outline>
		<contour>
			<point x="290" y="-3" type="line"/>
			<point x="329" y="-3" type="line"/>
			<point x="329" y="483" type="line"/>
			<point x="549" y="252" type="line"/>
			<point x="576" y="278" type="line"/>
			<point x="312" y="548" type="line"/>
			<point x="308" y="548" type="line"/>
			<point x="43" y="278" type="line"/>
			<point x="71" y="252" type="line"/>
			<point x="290" y="483" type="line"/>
		</contour>
	</outline>
</glyph>
<glyph name="arrowright.S" format="2">
	<unicode hex="2192"/>
	<advance width="620"/>
	<outline>
		<contour>
			<point x="320" y="7" type="line"/>
			<point x="589" y="271" type="line"/>
			<point x="589" y="275" type="line"/>
			<point x="320" y="540" type="line"/>
			<point x="294" y="512" type="line"/>
			<point x="524" y="293" type="line"/>
			<point x="38" y="293" type="line"/>
			<point x="38" y="254" type="line"/>
			<point x="524" y="254" type="line"/>
			<point x="294" y="34" type="line"/>
		</contour>
	</outline>
</glyph>
<glyph name="arrowdown.S" format="2">
	<unicode hex="2193"/>
	<advance width="620"/>
	<outline>
		<contour>
			<point x="308" y="-3" type="line"/>
			<point x="312" y="-3" type="line"/>
			<point x="576" y="266" type="line"/>
			<point x="549" y="292" type="line"/>
			<point x="329" y="61" type="line"/>
			<point x="329" y="548" type="line"/>
			<point x="290" y="548" type="line"/>
			<point x="290" y="61" type="line"/>
			<point x="71" y="292" type="line"/>
			<point x="43" y="266" type="line"/>
		</contour>
	</outline>
</glyph>
<glyph name="arrowupleft.S" format="2">
	<unicode hex="2196"/>
	<advance width="620"/>
	<outline>
		<contour>
			<point x="486" y="65" type="line"/>
			<point x="512" y="92" type="line"/>
			<point x="169" y="436" type="line"/>
			<point x="487" y="428" type="line"/>
			<point x="488" y="466" type="line"/>
			<point x="111" y="469" type="line"/>
			<point x="108" y="466" type="line"/>
			<point x="112" y="89" type="line"/>
			<point x="149" y="90" type="line"/>
			<point x="141" y="409" type="line"/>
		</contour>
	</outline>
</glyph>
<glyph name="arrowupright.S" format="2">
	<unicode hex="2197"/>
	<advance width="620"/>
	<outline>
		<contour>
			<point x="128" y="64" type="line"/>
			<point x="473" y="408" type="line"/>
			<point x="465" y="89" type="line"/>
			<point x="502" y="88" type="line"/>
			<point x="506" y="466" type="line"/>
			<point x="503" y="468" type="line"/>
			<point x="126" y="465" type="line"/>
			<point x="127" y="428" type="line"/>
			<point x="445" y="435" type="line"/>
			<point x="102" y="91" type="line"/>
		</contour>
	</outline>
</glyph>
<glyph name="arrowdownright.S" format="2">
	<unicode hex="2198"/>
	<advance width="620"/>
	<outline>
		<contour>
			<point x="507" y="77" type="line"/>
			<point x="510" y="80" type="line"/>
			<point x="506" y="457" type="line"/>
			<point x="469" y="456" type="line"/>
			<point x="476" y="138" type="line"/>
			<point x="132" y="481" type="line"/>
			<point x="105" y="454" type="line"/>
			<point x="449" y="110" type="line"/>
			<point x="130" y="118" type="line"/>
			<point x="130" y="80" type="line"/>
		</contour>
	</outline>
</glyph>
<glyph name="arrowdownleft.S" format="2">
	<unicode hex="2199"/>
	<advance width="620"/>
	<outline>
		<contour>
			<point x="117" y="76" type="line"/>
			<point x="494" y="80" type="line"/>
			<point x="493" y="117" type="line"/>
			<point x="174" y="109" type="line"/>
			<point x="518" y="454" type="line"/>
			<point x="491" y="480" type="line"/>
			<point x="147" y="137" type="line"/>
			<point x="154" y="455" type="line"/>
			<point x="117" y="456" type="line"/>
			<point x="114" y="79" type="line"/>
		</contour>
	</outline>
</glyph>
<glyph name="arrowdblleft.S" format="2">
	<unicode hex="21D0"/>
	<advance width="620"/>
	<outline>
		<contour>
			<point x="298" y="7" type="line"/>
			<point x="324" y="34" type="line"/>
			<point x="75" y="271" type="line"/>
			<point x="75" y="275" type="line"/>
			<point x="324" y="512" type="line"/>
			<point x="298" y="540" type="line"/>
			<point x="29" y="275" type="line"/>
			<point x="29" y="271" type="line"/>
		</contour>
		<contour>
			<point x="148" y="353" type="line"/>
			<point x="580" y="353" type="line"/>
			<point x="580" y="388" type="line"/>
			<point x="148" y="388" type="line"/>
		</contour>
		<contour>
			<point x="148" y="158" type="line"/>
			<point x="580" y="158" type="line"/>
			<point x="580" y="193" type="line"/>
			<point x="148" y="193" type="line"/>
		</contour>
	</outline>
</glyph>
<glyph name="arrowdblup.S" format="2">
	<unicode hex="21D1"/>
	<advance width="620"/>
	<outline>
		<contour>
			<point x="71" y="252" type="line"/>
			<point x="308" y="502" type="line"/>
			<point x="312" y="502" type="line"/>
			<point x="549" y="252" type="line"/>
			<point x="576" y="278" type="line"/>
			<point x="312" y="548" type="line"/>
			<point x="308" y="548" type="line"/>
			<point x="43" y="278" type="line"/>
		</contour>
		<contour>
			<point x="390" y="-3" type="line"/>
			<point x="425" y="-3" type="line"/>
			<point x="425" y="428" type="line"/>
			<point x="390" y="428" type="line"/>
		</contour>
		<contour>
			<point x="195" y="-3" type="line"/>
			<point x="230" y="-3" type="line"/>
			<point x="230" y="428" type="line"/>
			<point x="195" y="428" type="line"/>
		</contour>
	</outline>
</glyph>
<glyph name="arrowdblright.S" format="2">
	<unicode hex="21D2"/>
	<advance width="620"/>
	<outline>
		<contour>
			<point x="320" y="7" type="line"/>
			<point x="589" y="271" type="line"/>
			<point x="589" y="275" type="line"/>
			<point x="320" y="540" type="line"/>
			<point x="294" y="512" type="line"/>
			<point x="543" y="275" type="line"/>
			<point x="543" y="271" type="line"/>
			<point x="294" y="34" type="line"/>
		</contour>
		<contour>
			<point x="38" y="158" type="line"/>
			<point x="469" y="158" type="line"/>
			<point x="469" y="193" type="line"/>
			<point x="38" y="193" type="line"/>
		</contour>
		<contour>
			<point x="38" y="353" type="line"/>
			<point x="469" y="353" type="line"/>
			<point x="469" y="388" type="line"/>
			<point x="38" y="388" type="line"/>
		</contour>
	</outline>
</glyph>
<glyph name="arrowdbldown.S" format="2">
	<unicode hex="21D3"/>
	<advance width="620"/>
	<outline>
		<contour>
			<point x="308" y="-3" type="line"/>
			<point x="312" y="-3" type="line"/>
			<point x="576" y="266" type="line"/>
			<point x="549" y="292" type="line"/>
			<point x="312" y="43" type="line"/>
			<point x="308" y="43" type="line"/>
			<point x="71" y="292" type="line"/>
			<point x="43" y="266" type="line"/>
		</contour>
		<contour>
			<point x="195" y="116" type="line"/>
			<point x="230" y="116" type="line"/>
			<point x="230" y="548" type="line"/>
			<point x="195" y="548" type="line"/>
		</contour>
		<contour>
			<point x="390" y="116" type="line"/>
			<point x="425" y="116" type="line"/>
			<point x="425" y="548" type="line"/>
			<point x="390" y="548" type="line"/>
		</contour>
	</outline>
</glyph>
<glyph name="heVarikaJud" format="2">
	<unicode hex="FB1E"/>
	<outline>
		<contour>
			<point x="0" y="629" type="curve" smooth="yes"/>
			<point x="82" y="629"/>
			<point x="113" y="694"/>
			<point x="119" y="747" type="curve"/>
			<point x="88" y="752" type="line"/>
			<point x="82" y="707"/>
			<point x="54" y="665"/>
			<point x="0" y="665" type="curve" smooth="yes"/>
			<point x="-54" y="665"/>
			<point x="-82" y="707"/>
			<point x="-88" y="752" type="curve"/>
			<point x="-119" y="747" type="line"/>
			<point x="-113" y="694"/>
			<point x="-82" y="629"/>
		</contour>
	</outline>
	<anchor name="_aboveHE" x="0" y="584"/>
	<guideline y="629" identifier="004QOttTDm"/>
</glyph>
<glyph name="heAlefWide" format="2">
	<unicode hex="FB21"/>
	<advance width="1396"/>
	<outline>
		<contour>
			<point x="1159" y="79" type="line"/>
			<point x="1294" y="255"/>
			<point x="1342" y="356"/>
			<point x="1342" y="446" type="curve" smooth="yes"/>
			<point x="1342" y="520"/>
			<point x="1308" y="548"/>
			<point x="1234" y="548" type="curve" smooth="yes"/>
			<point x="1163" y="548" type="line"/>
			<point x="1163" y="504" type="line"/>
			<point x="1215" y="504" type="line" smooth="yes"/>
			<point x="1276" y="504"/>
			<point x="1302" y="489"/>
			<point x="1302" y="440" type="curve" smooth="yes"/>
			<point x="1302" y="373"/>
			<point x="1269" y="270"/>
			<point x="1135" y="102" type="curve"/>
		</contour>
		<contour>
			<point x="96" y="0" type="curve"/>
			<point x="140" y="0" type="line"/>
			<point x="138" y="24"/>
			<point x="136" y="46"/>
			<point x="136" y="67" type="curve" smooth="yes"/>
			<point x="136" y="232"/>
			<point x="167" y="345"/>
			<point x="238" y="462" type="curve"/>
			<point x="211" y="479" type="line"/>
			<point x="132" y="363"/>
			<point x="94" y="241"/>
			<point x="94" y="62" type="curve" smooth="yes"/>
			<point x="94" y="42"/>
			<point x="94" y="21"/>
		</contour>
		<contour>
			<point x="1322" y="-5" type="curve"/>
			<point x="1375" y="10" type="line"/>
			<point x="787" y="236"/>
			<point x="566" y="331"/>
			<point x="132" y="553" type="curve"/>
			<point x="79" y="539" type="line"/>
			<point x="540" y="299"/>
			<point x="773" y="193"/>
		</contour>
	</outline>
	<anchor name="aboveHE" x="672" y="590"/>
	<anchor name="belowPrimaryHE" x="679" y="-29"/>
	<anchor name="aboveLeftHE" x="38" y="590"/>
	<anchor name="centerHE" x="433" y="117"/>
</glyph>
<glyph name="heDaletWide" format="2">
	<unicode hex="FB22"/>
	<advance width="1277"/>
	<outline>
		<contour>
			<point x="5" y="504" type="line"/>
			<point x="1234" y="504" type="line"/>
			<point x="1234" y="548" type="line"/>
			<point x="5" y="548" type="line"/>
		</contour>
		<contour>
			<point x="1100" y="0" type="line"/>
			<point x="1140" y="0" type="line"/>
			<point x="1140" y="504" type="line"/>
			<point x="1108" y="504" type="line"/>
			<point x="1101" y="476"/>
			<point x="1100" y="446"/>
			<point x="1100" y="408" type="curve" smooth="yes"/>
		</contour>
	</outline>
	<anchor name="aboveHE" x="612" y="590"/>
	<anchor name="belowSecondaryHE" x="1122" y="-29"/>
	<anchor name="centerHE" x="558" y="256"/>
	<anchor name="aboveLeftHE" x="-1" y="590"/>
</glyph>
<glyph name="heHeWide" format="2">
	<unicode hex="FB23"/>
	<advance width="1425"/>
	<outline>
		<contour>
			<point x="1288" y="0" type="line"/>
			<point x="1328" y="0" type="line"/>
			<point x="1328" y="350" type="line" smooth="yes"/>
			<point x="1328" y="495"/>
			<point x="1258" y="548"/>
			<point x="1149" y="548" type="curve" smooth="yes"/>
			<point x="91" y="548" type="line"/>
			<point x="91" y="504" type="line"/>
			<point x="1136" y="504" type="line" smooth="yes"/>
			<point x="1229" y="504"/>
			<point x="1288" y="464"/>
			<point x="1288" y="337" type="curve" smooth="yes"/>
		</contour>
		<contour>
			<point x="112" y="0" type="line"/>
			<point x="152" y="0" type="line"/>
			<point x="152" y="334" type="line"/>
			<point x="120" y="334" type="line"/>
			<point x="113" y="306"/>
			<point x="112" y="276"/>
			<point x="112" y="238" type="curve" smooth="yes"/>
		</contour>
	</outline>
	<anchor name="aboveHE" x="703" y="590"/>
	<anchor name="belowPrimaryHE" x="713" y="-29"/>
	<anchor name="centerHE" x="713" y="256"/>
	<anchor name="aboveLeftHE" x="22" y="590"/>
</glyph>
<glyph name="heKafWide" format="2">
	<unicode hex="FB24"/>
	<advance width="1321"/>
	<outline>
		<contour>
			<point x="53" y="0" type="line"/>
			<point x="1206" y="0" type="line"/>
			<point x="1218" y="98"/>
			<point x="1228" y="190"/>
			<point x="1228" y="300" type="curve" smooth="yes"/>
			<point x="1228" y="481"/>
			<point x="1155" y="548"/>
			<point x="1017" y="548" type="curve" smooth="yes"/>
			<point x="73" y="548" type="line"/>
			<point x="73" y="504" type="line"/>
			<point x="1004" y="504" type="line" smooth="yes"/>
			<point x="1128" y="504"/>
			<point x="1188" y="452"/>
			<point x="1188" y="285" type="curve" smooth="yes"/>
			<point x="1188" y="194"/>
			<point x="1180" y="121"/>
			<point x="1170" y="42" type="curve"/>
			<point x="53" y="42" type="line"/>
		</contour>
	</outline>
	<anchor name="aboveHE" x="624" y="590"/>
	<anchor name="belowPrimaryHE" x="624" y="-29"/>
	<anchor name="centerHE" x="610" y="280"/>
	<anchor name="aboveLeftHE" x="31" y="590"/>
</glyph>
<glyph name="heLamedWide" format="2">
	<unicode hex="FB25"/>
	<advance width="1263"/>
	<outline>
		<contour>
			<point x="562" y="-12" type="line"/>
			<point x="979" y="105"/>
			<point x="1207" y="248"/>
			<point x="1207" y="397" type="curve" smooth="yes"/>
			<point x="1207" y="501"/>
			<point x="1166" y="548"/>
			<point x="1040" y="548" type="curve" smooth="yes"/>
			<point x="90" y="548" type="line"/>
			<point x="90" y="735" type="line"/>
			<point x="50" y="735" type="line"/>
			<point x="50" y="504" type="line"/>
			<point x="1033" y="504" type="line" smooth="yes"/>
			<point x="1129" y="504"/>
			<point x="1167" y="480"/>
			<point x="1167" y="393" type="curve" smooth="yes"/>
			<point x="1167" y="263"/>
			<point x="955" y="140"/>
			<point x="542" y="26" type="curve"/>
		</contour>
	</outline>
	<anchor name="aboveHE" x="644" y="590"/>
	<anchor name="belowLeftHE" x="569" y="-29"/>
	<anchor name="centerHE" x="573" y="316"/>
	<anchor name="aboveLeftHE" x="-74" y="590"/>
</glyph>
<glyph name="heMemFinWide" format="2">
	<unicode hex="FB26"/>
	<advance width="1433"/>
	<outline>
		<contour>
			<point x="135" y="0" type="line"/>
			<point x="1336" y="0" type="line"/>
			<point x="1336" y="350" type="line" smooth="yes"/>
			<point x="1336" y="495"/>
			<point x="1265" y="548"/>
			<point x="1157" y="548" type="curve" smooth="yes"/>
			<point x="37" y="548" type="line"/>
			<point x="37" y="504" type="line"/>
			<point x="1144" y="504" type="line" smooth="yes"/>
			<point x="1237" y="504"/>
			<point x="1296" y="464"/>
			<point x="1296" y="337" type="curve" smooth="yes"/>
			<point x="1296" y="42" type="line"/>
			<point x="135" y="42" type="line"/>
		</contour>
		<contour>
			<point x="112" y="0" type="line"/>
			<point x="152" y="0" type="line"/>
			<point x="152" y="504" type="line"/>
			<point x="120" y="504" type="line"/>
			<point x="113" y="476"/>
			<point x="112" y="446"/>
			<point x="112" y="408" type="curve" smooth="yes"/>
		</contour>
	</outline>
	<anchor name="aboveHE" x="722" y="590"/>
	<anchor name="belowPrimaryHE" x="731" y="-29"/>
	<anchor name="centerHE" x="731" y="280"/>
	<anchor name="aboveLeftHE" x="4" y="590"/>
</glyph>
<glyph name="heTavWide" format="2">
	<unicode hex="FB28"/>
	<advance width="1461"/>
	<outline>
		<contour>
			<point x="1324" y="0" type="line"/>
			<point x="1364" y="0" type="line"/>
			<point x="1364" y="350" type="line" smooth="yes"/>
			<point x="1364" y="495"/>
			<point x="1294" y="548"/>
			<point x="1185" y="548" type="curve" smooth="yes"/>
			<point x="75" y="548" type="line"/>
			<point x="75" y="504" type="line"/>
			<point x="1173" y="504" type="line" smooth="yes"/>
			<point x="1265" y="504"/>
			<point x="1324" y="464"/>
			<point x="1324" y="337" type="curve" smooth="yes"/>
		</contour>
		<contour>
			<point x="53" y="0" type="line"/>
			<point x="206" y="0" type="line"/>
			<point x="212" y="34" type="line"/>
			<point x="196" y="181"/>
			<point x="190" y="313"/>
			<point x="190" y="419" type="curve" smooth="yes"/>
			<point x="190" y="504" type="line"/>
			<point x="158" y="504" type="line"/>
			<point x="151" y="478"/>
			<point x="151" y="449"/>
			<point x="151" y="412" type="curve" smooth="yes"/>
			<point x="151" y="303"/>
			<point x="158" y="179"/>
			<point x="169" y="42" type="curve"/>
			<point x="53" y="42" type="line"/>
		</contour>
	</outline>
	<anchor name="aboveHE" x="732" y="590"/>
	<anchor name="belowPrimaryHE" x="751" y="-29"/>
	<anchor name="centerHE" x="751" y="256"/>
	<anchor name="aboveLeftHE" x="24" y="590"/>
</glyph>
<glyph name="heAlefLamed" format="2">
	<unicode hex="FB4F"/>
	<advance width="521"/>
	<outline>
		<contour>
			<point x="341" y="0" type="curve" smooth="yes"/>
			<point x="455" y="0" type="line"/>
			<point x="455" y="44" type="line"/>
			<point x="347" y="44" type="line" smooth="yes"/>
			<point x="232" y="44"/>
			<point x="141" y="116"/>
			<point x="141" y="280" type="curve"/>
			<point x="141" y="433"/>
			<point x="215" y="504"/>
			<point x="366" y="504" type="curve" smooth="yes"/>
			<point x="435" y="504" type="line"/>
			<point x="435" y="548" type="line"/>
			<point x="352" y="548" type="line" smooth="yes"/>
			<point x="245" y="548"/>
			<point x="162" y="506"/>
			<point x="131" y="401" type="curve"/>
			<point x="141" y="397" type="line"/>
			<point x="141" y="735" type="line"/>
			<point x="101" y="735" type="line"/>
			<point x="101" y="278" type="line" smooth="yes"/>
			<point x="101" y="90"/>
			<point x="205" y="0"/>
		</contour>
	</outline>
</glyph>
<glyph name="ugAlpa" format="2">
	<unicode hex="10380"/>
	<advance width="668"/>
	<outline>
		<contour>
			<point x="28" y="230" type="line"/>
			<point x="81" y="257"/>
			<point x="232" y="262"/>
			<point x="458" y="262" type="curve"/>
			<point x="458" y="288" type="line"/>
			<point x="232" y="288"/>
			<point x="81" y="293"/>
			<point x="28" y="320" type="curve"/>
		</contour>
		<contour>
			<point x="303" y="230" type="line"/>
			<point x="346" y="255"/>
			<point x="465" y="262"/>
			<point x="642" y="262" type="curve"/>
			<point x="642" y="288" type="line"/>
			<point x="465" y="288"/>
			<point x="346" y="295"/>
			<point x="303" y="320" type="curve"/>
		</contour>
	</outline>
</glyph>
<glyph name="ugBeta" format="2">
	<unicode hex="10381"/>
	<advance width="668"/>
	<outline>
		<contour>
			<point x="141" y="241" type="curve"/>
			<point x="167" y="241" type="line"/>
			<point x="167" y="430"/>
			<point x="174" y="557"/>
			<point x="199" y="603" type="curve"/>
			<point x="110" y="603" type="line"/>
			<point x="134" y="557"/>
			<point x="141" y="430"/>
		</contour>
		<contour>
			<point x="416" y="241" type="curve"/>
			<point x="441" y="241" type="line"/>
			<point x="441" y="430"/>
			<point x="449" y="557"/>
			<point x="474" y="603" type="curve"/>
			<point x="384" y="603" type="line"/>
			<point x="409" y="557"/>
			<point x="416" y="430"/>
		</contour>
		<component base="ugAlpa" yOffset="-32"/>
	</outline>
</glyph>
<glyph name="ugGamla" format="2">
	<unicode hex="10382"/>
	<advance width="279"/>
	<outline>
		<contour>
			<point x="125" y="-56" type="curve"/>
			<point x="154" y="-56" type="line"/>
			<point x="154" y="291"/>
			<point x="154" y="528"/>
			<point x="186" y="603" type="curve"/>
			<point x="93" y="603" type="line"/>
			<point x="125" y="528"/>
			<point x="125" y="291"/>
		</contour>
	</outline>
</glyph>
<glyph name="ugKha" format="2">
	<unicode hex="10383"/>
	<advance width="279"/>
	<outline>
		<contour>
			<point x="125" y="-56" type="curve"/>
			<point x="154" y="-56" type="line"/>
			<point x="154" y="68"/>
			<point x="165" y="161"/>
			<point x="186" y="193" type="curve"/>
			<point x="93" y="193" type="line"/>
			<point x="114" y="161"/>
			<point x="125" y="68"/>
		</contour>
		<contour>
			<point x="125" y="364" type="curve"/>
			<point x="154" y="364" type="line"/>
			<point x="154" y="483"/>
			<point x="165" y="572"/>
			<point x="186" y="603" type="curve"/>
			<point x="93" y="603" type="line"/>
			<point x="114" y="572"/>
			<point x="125" y="483"/>
		</contour>
		<contour>
			<point x="125" y="159" type="curve"/>
			<point x="154" y="159" type="line"/>
			<point x="154" y="278"/>
			<point x="165" y="366"/>
			<point x="186" y="397" type="curve"/>
			<point x="93" y="397" type="line"/>
			<point x="114" y="366"/>
			<point x="125" y="278"/>
		</contour>
	</outline>
</glyph>
<glyph name="ugDelta" format="2">
	<unicode hex="10384"/>
	<advance width="672"/>
	<outline>
		<contour>
			<point x="116" y="241" type="curve"/>
			<point x="142" y="241" type="line"/>
			<point x="142" y="430"/>
			<point x="149" y="557"/>
			<point x="173" y="603" type="curve"/>
			<point x="85" y="603" type="line"/>
			<point x="109" y="557"/>
			<point x="116" y="430"/>
		</contour>
		<contour>
			<point x="302" y="241" type="curve"/>
			<point x="327" y="241" type="line"/>
			<point x="327" y="430"/>
			<point x="334" y="557"/>
			<point x="358" y="603" type="curve"/>
			<point x="271" y="603" type="line"/>
			<point x="294" y="557"/>
			<point x="302" y="430"/>
		</contour>
		<contour>
			<point x="486" y="241" type="curve"/>
			<point x="512" y="241" type="line"/>
			<point x="512" y="430"/>
			<point x="519" y="557"/>
			<point x="544" y="603" type="curve"/>
			<point x="456" y="603" type="line"/>
			<point x="479" y="557"/>
			<point x="486" y="430"/>
		</contour>
		<component base="ugNun" yOffset="-32"/>
	</outline>
</glyph>
<glyph name="ugWo" format="2">
	<unicode hex="10386"/>
	<advance width="891"/>
	<outline>
		<contour>
			<point x="28" y="120" type="line"/>
			<point x="67" y="143"/>
			<point x="171" y="152"/>
			<point x="315" y="152" type="curve"/>
			<point x="315" y="178" type="line"/>
			<point x="171" y="178"/>
			<point x="67" y="187"/>
			<point x="28" y="209" type="curve"/>
		</contour>
		<contour>
			<point x="28" y="342" type="line"/>
			<point x="67" y="364"/>
			<point x="171" y="373"/>
			<point x="315" y="373" type="curve"/>
			<point x="315" y="399" type="line"/>
			<point x="171" y="399"/>
			<point x="67" y="408"/>
			<point x="28" y="431" type="curve"/>
		</contour>
		<contour>
			<point x="332" y="230" type="line"/>
			<point x="374" y="254"/>
			<point x="487" y="262"/>
			<point x="643" y="262" type="curve"/>
			<point x="643" y="288" type="line"/>
			<point x="487" y="288"/>
			<point x="374" y="296"/>
			<point x="332" y="320" type="curve"/>
		</contour>
		<contour>
			<point x="555" y="230" type="line"/>
			<point x="596" y="254"/>
			<point x="710" y="262"/>
			<point x="865" y="262" type="curve"/>
			<point x="865" y="288" type="line"/>
			<point x="710" y="288"/>
			<point x="596" y="296"/>
			<point x="555" y="320" type="curve"/>
		</contour>
	</outline>
</glyph>
<glyph name="ugZeta" format="2">
	<unicode hex="10387"/>
	<advance width="279"/>
	<outline>
		<contour>
			<point x="125" y="192" type="curve"/>
			<point x="154" y="192" type="line"/>
			<point x="154" y="408"/>
			<point x="160" y="552"/>
			<point x="187" y="603" type="curve"/>
			<point x="93" y="603" type="line"/>
			<point x="120" y="552"/>
			<point x="125" y="408"/>
		</contour>
		<contour>
			<point x="125" y="-56" type="curve"/>
			<point x="154" y="-56" type="line"/>
			<point x="154" y="157"/>
			<point x="161" y="299"/>
			<point x="187" y="349" type="curve"/>
			<point x="93" y="349" type="line"/>
			<point x="119" y="299"/>
			<point x="125" y="157"/>
		</contour>
	</outline>
</glyph>
<glyph name="ugHota" format="2">
	<unicode hex="10388"/>
	<advance width="646"/>
	<outline>
		<contour>
			<point x="307" y="273" type="curve"/>
			<point x="337" y="273" type="line"/>
			<point x="337" y="446"/>
			<point x="344" y="560"/>
			<point x="369" y="603" type="curve"/>
			<point x="275" y="603" type="line"/>
			<point x="299" y="560"/>
			<point x="307" y="446"/>
		</contour>
		<contour>
			<point x="275" y="-58" type="curve"/>
			<point x="369" y="-58" type="line"/>
			<point x="345" y="-15"/>
			<point x="337" y="99"/>
			<point x="337" y="273" type="curve"/>
			<point x="307" y="273" type="line"/>
			<point x="307" y="99"/>
			<point x="299" y="-15"/>
		</contour>
		<contour>
			<point x="28" y="229" type="line"/>
			<point x="67" y="252"/>
			<point x="168" y="261"/>
			<point x="322" y="261" type="curve"/>
			<point x="322" y="286" type="line"/>
			<point x="168" y="286"/>
			<point x="67" y="295"/>
			<point x="28" y="318" type="curve"/>
		</contour>
		<contour>
			<point x="618" y="229" type="curve"/>
			<point x="618" y="318" type="line"/>
			<point x="580" y="295"/>
			<point x="477" y="286"/>
			<point x="322" y="286" type="curve"/>
			<point x="322" y="261" type="line"/>
			<point x="477" y="261"/>
			<point x="580" y="252"/>
		</contour>
	</outline>
</glyph>
<glyph name="ugTet" format="2">
	<unicode hex="10389"/>
	<advance width="647"/>
	<outline>
		<contour>
			<point x="307" y="192" type="curve"/>
			<point x="337" y="192" type="line"/>
			<point x="337" y="408"/>
			<point x="342" y="552"/>
			<point x="369" y="603" type="curve"/>
			<point x="275" y="603" type="line"/>
			<point x="303" y="552"/>
			<point x="307" y="408"/>
		</contour>
		<contour>
			<point x="28" y="230" type="line"/>
			<point x="67" y="252"/>
			<point x="168" y="262"/>
			<point x="322" y="262" type="curve"/>
			<point x="322" y="287" type="line"/>
			<point x="168" y="287"/>
			<point x="67" y="296"/>
			<point x="28" y="319" type="curve"/>
		</contour>
		<contour>
			<point x="619" y="230" type="curve"/>
			<point x="619" y="319" type="line"/>
			<point x="581" y="296"/>
			<point x="478" y="287"/>
			<point x="322" y="287" type="curve"/>
			<point x="322" y="262" type="line"/>
			<point x="478" y="262"/>
			<point x="581" y="252"/>
		</contour>
	</outline>
</glyph>
<glyph name="ugKaf" format="2">
	<unicode hex="1038B"/>
	<advance width="668"/>
	<outline>
		<contour>
			<point x="28" y="120" type="line"/>
			<point x="67" y="143"/>
			<point x="171" y="152"/>
			<point x="314" y="152" type="curve"/>
			<point x="314" y="178" type="line"/>
			<point x="171" y="178"/>
			<point x="67" y="187"/>
			<point x="28" y="209" type="curve"/>
		</contour>
		<contour>
			<point x="28" y="342" type="line"/>
			<point x="67" y="364"/>
			<point x="171" y="373"/>
			<point x="314" y="373" type="curve"/>
			<point x="314" y="399" type="line"/>
			<point x="171" y="399"/>
			<point x="67" y="408"/>
			<point x="28" y="431" type="curve"/>
		</contour>
		<contour>
			<point x="332" y="230" type="line"/>
			<point x="374" y="254"/>
			<point x="487" y="262"/>
			<point x="642" y="262" type="curve"/>
			<point x="642" y="288" type="line"/>
			<point x="487" y="288"/>
			<point x="374" y="296"/>
			<point x="332" y="320" type="curve"/>
		</contour>
	</outline>
</glyph>
<glyph name="ugMem" format="2">
	<unicode hex="1038E"/>
	<advance width="588"/>
	<outline>
		<contour>
			<point x="28" y="230" type="line"/>
			<point x="82" y="258"/>
			<point x="234" y="263"/>
			<point x="459" y="263" type="curve"/>
			<point x="459" y="288" type="line"/>
			<point x="234" y="288"/>
			<point x="82" y="294"/>
			<point x="28" y="320" type="curve"/>
		</contour>
		<component base="ugGamla" xOffset="309"/>
	</outline>
</glyph>
<glyph name="ugDhal" format="2">
	<unicode hex="1038F"/>
	<advance width="839"/>
	<outline>
		<contour>
			<point x="406" y="-56" type="curve"/>
			<point x="435" y="-56" type="line"/>
			<point x="621" y="220"/>
			<point x="760" y="423"/>
			<point x="826" y="463" type="curve"/>
			<point x="751" y="518" type="line"/>
			<point x="733" y="440"/>
			<point x="600" y="243"/>
			<point x="420" y="-26" type="curve"/>
			<point x="241" y="242"/>
			<point x="108" y="440"/>
			<point x="90" y="518" type="curve"/>
			<point x="15" y="462" type="line"/>
			<point x="81" y="422"/>
			<point x="220" y="219"/>
		</contour>
	</outline>
</glyph>
<glyph name="ugNun" format="2">
	<unicode hex="10390"/>
	<advance width="672"/>
	<outline>
		<contour>
			<point x="397" y="230" type="line"/>
			<point x="461" y="254"/>
			<point x="554" y="262"/>
			<point x="645" y="262" type="curve"/>
			<point x="645" y="288" type="line"/>
			<point x="554" y="288"/>
			<point x="461" y="296"/>
			<point x="397" y="320" type="curve"/>
		</contour>
		<contour>
			<point x="28" y="230" type="line"/>
			<point x="91" y="254"/>
			<point x="180" y="262"/>
			<point x="267" y="262" type="curve"/>
			<point x="267" y="288" type="line"/>
			<point x="180" y="288"/>
			<point x="91" y="296"/>
			<point x="28" y="320" type="curve"/>
		</contour>
		<contour>
			<point x="213" y="230" type="line"/>
			<point x="276" y="254"/>
			<point x="365" y="262"/>
			<point x="452" y="262" type="curve"/>
			<point x="452" y="288" type="line"/>
			<point x="365" y="288"/>
			<point x="276" y="296"/>
			<point x="213" y="320" type="curve"/>
		</contour>
	</outline>
</glyph>
<glyph name="ugZu" format="2">
	<unicode hex="10391"/>
	<advance width="516"/>
	<outline>
		<contour>
			<point x="28" y="342" type="line"/>
			<point x="82" y="368"/>
			<point x="228" y="374"/>
			<point x="439" y="374" type="curve"/>
			<point x="439" y="399" type="line"/>
			<point x="228" y="399"/>
			<point x="82" y="405"/>
			<point x="28" y="431" type="curve"/>
		</contour>
		<contour>
			<point x="28" y="120" type="line"/>
			<point x="82" y="147"/>
			<point x="228" y="153"/>
			<point x="439" y="153" type="curve"/>
			<point x="439" y="178" type="line"/>
			<point x="228" y="178"/>
			<point x="82" y="184"/>
			<point x="28" y="209" type="curve"/>
		</contour>
		<contour>
			<point x="485" y="86" type="line"/>
			<point x="489" y="88" type="line"/>
			<point x="448" y="148"/>
			<point x="426" y="209"/>
			<point x="426" y="274" type="curve" smooth="yes"/>
			<point x="426" y="338"/>
			<point x="448" y="399"/>
			<point x="489" y="459" type="curve"/>
			<point x="485" y="462" type="line"/>
			<point x="284" y="274" type="line"/>
		</contour>
	</outline>
</glyph>
<glyph name="ugSamka" format="2">
	<unicode hex="10392"/>
	<advance width="428"/>
	<outline>
		<contour>
			<point x="125" y="294" type="curve"/>
			<point x="154" y="294" type="line"/>
			<point x="154" y="458"/>
			<point x="164" y="565"/>
			<point x="187" y="603" type="curve"/>
			<point x="93" y="603" type="line"/>
			<point x="116" y="565"/>
			<point x="125" y="458"/>
		</contour>
		<contour>
			<point x="226" y="-55" type="curve"/>
			<point x="256" y="-55" type="line"/>
			<point x="256" y="120"/>
			<point x="264" y="236"/>
			<point x="288" y="278" type="curve"/>
			<point x="194" y="278" type="line"/>
			<point x="218" y="236"/>
			<point x="226" y="120"/>
		</contour>
		<contour>
			<point x="327" y="294" type="curve"/>
			<point x="357" y="294" type="line"/>
			<point x="357" y="458"/>
			<point x="367" y="565"/>
			<point x="390" y="603" type="curve"/>
			<point x="296" y="603" type="line"/>
			<point x="318" y="565"/>
			<point x="327" y="458"/>
		</contour>
	</outline>
	<guideline x="215" y="273" angle="90" identifier="n037E1FBxO"/>
</glyph>
<glyph name="ugAin" format="2">
	<unicode hex="10393"/>
	<advance width="427"/>
	<outline>
		<contour>
			<point x="25" y="181" type="line"/>
			<point x="28" y="176" type="line"/>
			<point x="90" y="221"/>
			<point x="151" y="244"/>
			<point x="213" y="244" type="curve" smooth="yes"/>
			<point x="276" y="244"/>
			<point x="337" y="221"/>
			<point x="399" y="176" type="curve"/>
			<point x="401" y="181" type="line"/>
			<point x="213" y="392" type="line"/>
		</contour>
	</outline>
</glyph>
<glyph name="ugQopa" format="2">
	<unicode hex="10396"/>
	<advance width="528"/>
	<outline>
		<contour>
			<point x="28" y="230" type="line"/>
			<point x="62" y="253"/>
			<point x="152" y="262"/>
			<point x="263" y="262" type="curve"/>
			<point x="263" y="288" type="line"/>
			<point x="152" y="288"/>
			<point x="62" y="297"/>
			<point x="28" y="320" type="curve"/>
		</contour>
		<contour>
			<point x="500" y="230" type="curve"/>
			<point x="500" y="320" type="line"/>
			<point x="467" y="297"/>
			<point x="376" y="288"/>
			<point x="263" y="288" type="curve"/>
			<point x="263" y="262" type="line"/>
			<point x="376" y="262"/>
			<point x="467" y="253"/>
		</contour>
	</outline>
	<guideline x="225" y="274" angle="90" identifier="VFyrfB9JO7"/>
</glyph>
<glyph name="ugRasha" format="2">
	<unicode hex="10397"/>
	<advance width="892"/>
	<outline>
		<contour>
			<point x="28" y="341" type="line"/>
			<point x="64" y="362"/>
			<point x="151" y="371"/>
			<point x="283" y="371" type="curve"/>
			<point x="283" y="397" type="line"/>
			<point x="151" y="397"/>
			<point x="64" y="406"/>
			<point x="28" y="429" type="curve"/>
		</contour>
		<contour>
			<point x="249" y="341" type="line"/>
			<point x="285" y="362"/>
			<point x="380" y="371"/>
			<point x="523" y="371" type="curve"/>
			<point x="523" y="397" type="line"/>
			<point x="380" y="397"/>
			<point x="285" y="406"/>
			<point x="249" y="429" type="curve"/>
		</contour>
		<contour>
			<point x="28" y="121" type="line"/>
			<point x="64" y="144"/>
			<point x="151" y="153"/>
			<point x="283" y="153" type="curve"/>
			<point x="283" y="179" type="line"/>
			<point x="151" y="179"/>
			<point x="64" y="188"/>
			<point x="28" y="209" type="curve"/>
		</contour>
		<contour>
			<point x="529" y="230" type="line"/>
			<point x="572" y="258"/>
			<point x="691" y="262"/>
			<point x="866" y="262" type="curve"/>
			<point x="866" y="288" type="line"/>
			<point x="691" y="288"/>
			<point x="572" y="292"/>
			<point x="529" y="320" type="curve"/>
		</contour>
		<contour>
			<point x="249" y="121" type="line"/>
			<point x="285" y="144"/>
			<point x="380" y="153"/>
			<point x="523" y="153" type="curve"/>
			<point x="523" y="179" type="line"/>
			<point x="380" y="179"/>
			<point x="285" y="188"/>
			<point x="249" y="209" type="curve"/>
		</contour>
	</outline>
</glyph>
<glyph name="ugThanna" format="2">
	<unicode hex="10398"/>
	<advance width="279"/>
	<outline>
		<contour>
			<point x="125" y="60" type="curve"/>
			<point x="154" y="60" type="line"/>
			<point x="154" y="228"/>
			<point x="160" y="336"/>
			<point x="186" y="376" type="curve"/>
			<point x="93" y="376" type="line"/>
			<point x="119" y="336"/>
			<point x="125" y="228"/>
		</contour>
		<contour>
			<point x="93" y="171" type="curve"/>
			<point x="186" y="171" type="line"/>
			<point x="160" y="210"/>
			<point x="154" y="321"/>
			<point x="154" y="486" type="curve"/>
			<point x="125" y="486" type="line"/>
			<point x="125" y="321"/>
			<point x="119" y="210"/>
		</contour>
	</outline>
</glyph>
<glyph name="ugTo" format="2">
	<unicode hex="1039A"/>
	<advance width="668"/>
	<outline>
		<contour>
			<point x="28" y="230" type="line"/>
			<point x="101" y="262"/>
			<point x="320" y="262"/>
			<point x="642" y="262" type="curve"/>
			<point x="642" y="288" type="line"/>
			<point x="320" y="288"/>
			<point x="101" y="288"/>
			<point x="28" y="320" type="curve"/>
		</contour>
	</outline>
</glyph>
<glyph name="ugI" format="2">
	<unicode hex="1039B"/>
	<advance width="668"/>
	<outline>
		<contour>
			<point x="149" y="-294" type="curve"/>
			<point x="174" y="-294" type="line"/>
			<point x="174" y="-170"/>
			<point x="186" y="-86"/>
			<point x="208" y="-55" type="curve"/>
			<point x="114" y="-55" type="line"/>
			<point x="136" y="-86"/>
			<point x="149" y="-170"/>
		</contour>
		<component base="ugHo"/>
	</outline>
</glyph>
<glyph name="ugU" format="2">
	<unicode hex="1039C"/>
	<advance width="672"/>
	<outline>
		<contour>
			<point x="116" y="241" type="curve"/>
			<point x="142" y="241" type="line"/>
			<point x="142" y="430"/>
			<point x="149" y="557"/>
			<point x="173" y="603" type="curve"/>
			<point x="85" y="603" type="line"/>
			<point x="109" y="557"/>
			<point x="116" y="430"/>
		</contour>
		<contour>
			<point x="302" y="241" type="curve"/>
			<point x="327" y="241" type="line"/>
			<point x="327" y="430"/>
			<point x="334" y="557"/>
			<point x="358" y="603" type="curve"/>
			<point x="271" y="603" type="line"/>
			<point x="294" y="557"/>
			<point x="302" y="430"/>
		</contour>
		<contour>
			<point x="486" y="241" type="curve"/>
			<point x="512" y="241" type="line"/>
			<point x="512" y="430"/>
			<point x="519" y="557"/>
			<point x="544" y="603" type="curve"/>
			<point x="456" y="603" type="line"/>
			<point x="479" y="557"/>
			<point x="486" y="430"/>
		</contour>
		<component base="ugTo" yOffset="-32"/>
	</outline>
</glyph>
<glyph name="ugSsu" format="2">
	<unicode hex="1039D"/>
	<advance width="629"/>
	<outline>
		<contour>
			<point x="95" y="446" type="curve"/>
			<point x="186" y="446" type="line"/>
			<point x="165" y="471"/>
			<point x="151" y="527"/>
			<point x="151" y="602" type="curve"/>
			<point x="128" y="602" type="line"/>
			<point x="128" y="527"/>
			<point x="116" y="471"/>
		</contour>
		<contour>
			<point x="93" y="-56" type="curve"/>
			<point x="186" y="-56" type="line"/>
			<point x="165" y="-33"/>
			<point x="151" y="21"/>
			<point x="151" y="90" type="curve"/>
			<point x="128" y="90" type="line"/>
			<point x="128" y="21"/>
			<point x="114" y="-33"/>
		</contour>
		<contour>
			<point x="95" y="195" type="curve"/>
			<point x="186" y="195" type="line"/>
			<point x="165" y="218"/>
			<point x="151" y="272"/>
			<point x="151" y="341" type="curve"/>
			<point x="128" y="341" type="line"/>
			<point x="128" y="272"/>
			<point x="116" y="218"/>
		</contour>
		<contour>
			<point x="443" y="446" type="curve"/>
			<point x="536" y="446" type="line"/>
			<point x="515" y="471"/>
			<point x="501" y="527"/>
			<point x="501" y="602" type="curve"/>
			<point x="478" y="602" type="line"/>
			<point x="478" y="527"/>
			<point x="464" y="471"/>
		</contour>
		<contour>
			<point x="443" y="-56" type="curve"/>
			<point x="536" y="-56" type="line"/>
			<point x="515" y="-33"/>
			<point x="501" y="21"/>
			<point x="501" y="90" type="curve"/>
			<point x="478" y="90" type="line"/>
			<point x="478" y="21"/>
			<point x="464" y="-33"/>
		</contour>
		<contour>
			<point x="443" y="195" type="curve"/>
			<point x="536" y="195" type="line"/>
			<point x="515" y="218"/>
			<point x="501" y="272"/>
			<point x="501" y="341" type="curve"/>
			<point x="478" y="341" type="line"/>
			<point x="478" y="272"/>
			<point x="464" y="218"/>
		</contour>
		<component base="ugGamla" xOffset="175"/>
	</outline>
</glyph>
<glyph name="aiAleph" format="2">
	<unicode hex="10840"/>
	<advance width="596"/>
	<outline>
		<contour>
			<point x="526" y="-5" type="curve"/>
			<point x="577" y="4" type="line"/>
			<point x="412" y="176"/>
			<point x="236" y="370"/>
			<point x="128" y="553" type="curve"/>
			<point x="78" y="545" type="line"/>
			<point x="201" y="356"/>
			<point x="377" y="153"/>
		</contour>
		<contour>
			<point x="55" y="0" type="line"/>
			<point x="121" y="0" type="line" smooth="yes"/>
			<point x="365" y="0"/>
			<point x="503" y="236"/>
			<point x="503" y="484" type="curve" smooth="yes"/>
			<point x="503" y="505"/>
			<point x="503" y="526"/>
			<point x="501" y="548" type="curve"/>
			<point x="454" y="548" type="line"/>
			<point x="456" y="525"/>
			<point x="458" y="502"/>
			<point x="458" y="471" type="curve" smooth="yes"/>
			<point x="458" y="238"/>
			<point x="342" y="42"/>
			<point x="123" y="42" type="curve" smooth="yes"/>
			<point x="55" y="42" type="line"/>
		</contour>
	</outline>
</glyph>
<glyph name="aiBeth" format="2">
	<unicode hex="10841"/>
	<advance width="481"/>
	<outline>
		<contour>
			<point x="53" y="0" type="line"/>
			<point x="140" y="0" type="line" smooth="yes"/>
			<point x="325" y="0"/>
			<point x="426" y="109"/>
			<point x="426" y="305" type="curve" smooth="yes"/>
			<point x="426" y="482"/>
			<point x="354" y="548"/>
			<point x="217" y="548" type="curve" smooth="yes"/>
			<point x="158" y="548" type="line" smooth="yes"/>
			<point x="115" y="548"/>
			<point x="104" y="562"/>
			<point x="104" y="595" type="curve" smooth="yes"/>
			<point x="104" y="641"/>
			<point x="113" y="685"/>
			<point x="126" y="735" type="curve"/>
			<point x="85" y="731" type="line"/>
			<point x="70" y="675"/>
			<point x="62" y="629"/>
			<point x="62" y="582" type="curve" smooth="yes"/>
			<point x="62" y="528"/>
			<point x="92" y="504"/>
			<point x="140" y="504" type="curve" smooth="yes"/>
			<point x="206" y="504" type="line" smooth="yes"/>
			<point x="326" y="504"/>
			<point x="385" y="454"/>
			<point x="385" y="294" type="curve" smooth="yes"/>
			<point x="385" y="128"/>
			<point x="300" y="42"/>
			<point x="141" y="42" type="curve" smooth="yes"/>
			<point x="53" y="42" type="line"/>
		</contour>
	</outline>
</glyph>
<glyph name="aiGimel" format="2">
	<unicode hex="10842"/>
	<advance width="537"/>
	<outline>
		<contour>
			<point x="0" y="0" type="curve"/>
			<point x="50" y="0" type="line"/>
			<point x="114" y="112"/>
			<point x="203" y="296"/>
			<point x="264" y="462" type="curve"/>
			<point x="233" y="491" type="line"/>
			<point x="165" y="307"/>
			<point x="79" y="133"/>
		</contour>
		<contour>
			<point x="452" y="-5" type="curve"/>
			<point x="501" y="0" type="line"/>
			<point x="450" y="338"/>
			<point x="299" y="500"/>
			<point x="127" y="560" type="curve"/>
			<point x="92" y="532" type="line"/>
			<point x="275" y="463"/>
			<point x="412" y="304"/>
		</contour>
	</outline>
</glyph>
<glyph name="aiZayin" format="2">
	<unicode hex="10846"/>
	<advance width="251"/>
	<outline>
		<contour>
			<point x="112" y="0" type="line"/>
			<point x="152" y="0" type="line"/>
			<point x="152" y="548" type="line"/>
			<point x="112" y="548" type="line"/>
		</contour>
	</outline>
</glyph>
<glyph name="aiTeth" format="2">
	<unicode hex="10848"/>
	<advance width="585"/>
	<outline>
		<contour>
			<point x="296" y="-12" type="curve" smooth="yes"/>
			<point x="425" y="-12"/>
			<point x="530" y="124"/>
			<point x="530" y="310" type="curve" smooth="yes"/>
			<point x="530" y="426"/>
			<point x="486" y="464"/>
			<point x="395" y="464" type="curve" smooth="yes"/>
			<point x="318" y="464"/>
			<point x="203" y="441"/>
			<point x="100" y="422" type="curve"/>
			<point x="100" y="378" type="line"/>
			<point x="200" y="399"/>
			<point x="321" y="420"/>
			<point x="389" y="420" type="curve" smooth="yes"/>
			<point x="459" y="420"/>
			<point x="491" y="394"/>
			<point x="491" y="306" type="curve" smooth="yes"/>
			<point x="491" y="148"/>
			<point x="401" y="34"/>
			<point x="298" y="34" type="curve" smooth="yes"/>
			<point x="222" y="34"/>
			<point x="114" y="121"/>
			<point x="114" y="357" type="curve" smooth="yes"/>
			<point x="114" y="459"/>
			<point x="120" y="585"/>
			<point x="146" y="736" type="curve"/>
			<point x="100" y="730" type="line"/>
			<point x="78" y="588"/>
			<point x="71" y="467"/>
			<point x="71" y="365" type="curve" smooth="yes"/>
			<point x="71" y="86"/>
			<point x="198" y="-12"/>
		</contour>
	</outline>
</glyph>
<glyph name="aiLamedh" format="2">
	<unicode hex="1084B"/>
	<advance width="480"/>
	<outline>
		<contour>
			<point x="278" y="-12" type="curve" smooth="yes"/>
			<point x="332" y="-12"/>
			<point x="386" y="-7"/>
			<point x="439" y="1" type="curve"/>
			<point x="439" y="45" type="line"/>
			<point x="388" y="37"/>
			<point x="336" y="32"/>
			<point x="285" y="32" type="curve" smooth="yes"/>
			<point x="161" y="32"/>
			<point x="112" y="90"/>
			<point x="112" y="234" type="curve" smooth="yes"/>
			<point x="112" y="391"/>
			<point x="159" y="601"/>
			<point x="196" y="736" type="curve"/>
			<point x="150" y="730" type="line"/>
			<point x="118" y="604"/>
			<point x="72" y="394"/>
			<point x="72" y="230" type="curve" smooth="yes"/>
			<point x="72" y="73"/>
			<point x="126" y="-12"/>
		</contour>
	</outline>
</glyph>
<glyph name="aiMem" format="2">
	<unicode hex="1084C"/>
	<advance width="470"/>
	<outline>
		<contour>
			<point x="82" y="230" type="line"/>
			<point x="229" y="321"/>
			<point x="267" y="487"/>
			<point x="267" y="615" type="curve" smooth="yes"/>
			<point x="267" y="655"/>
			<point x="265" y="693"/>
			<point x="261" y="735" type="curve"/>
			<point x="221" y="731" type="line"/>
			<point x="225" y="689"/>
			<point x="226" y="650"/>
			<point x="226" y="598" type="curve" smooth="yes"/>
			<point x="226" y="486"/>
			<point x="197" y="351"/>
			<point x="58" y="266" type="curve"/>
		</contour>
		<contour>
			<point x="77" y="-208" type="line"/>
			<point x="284" y="-43"/>
			<point x="414" y="218"/>
			<point x="414" y="397" type="curve" smooth="yes"/>
			<point x="414" y="501"/>
			<point x="373" y="548"/>
			<point x="247" y="548" type="curve" smooth="yes"/>
			<point x="131" y="548" type="line" smooth="yes"/>
			<point x="88" y="548"/>
			<point x="77" y="562"/>
			<point x="77" y="595" type="curve" smooth="yes"/>
			<point x="77" y="641"/>
			<point x="86" y="685"/>
			<point x="99" y="735" type="curve"/>
			<point x="58" y="731" type="line"/>
			<point x="43" y="675"/>
			<point x="35" y="629"/>
			<point x="35" y="582" type="curve" smooth="yes"/>
			<point x="35" y="528"/>
			<point x="65" y="504"/>
			<point x="113" y="504" type="curve" smooth="yes"/>
			<point x="240" y="504" type="line" smooth="yes"/>
			<point x="336" y="504"/>
			<point x="374" y="480"/>
			<point x="374" y="393" type="curve" smooth="yes"/>
			<point x="374" y="235"/>
			<point x="247" y="-28"/>
			<point x="51" y="-173" type="curve"/>
		</contour>
	</outline>
</glyph>
<glyph name="aiNun" format="2">
	<unicode hex="1084D"/>
	<advance width="276"/>
	<outline>
		<contour>
			<point x="-43" y="-208" type="line"/>
			<point x="130" y="-38"/>
			<point x="218" y="156"/>
			<point x="220" y="283" type="curve" smooth="yes"/>
			<point x="224" y="510"/>
			<point x="77" y="475"/>
			<point x="77" y="599" type="curve" smooth="yes"/>
			<point x="77" y="644"/>
			<point x="86" y="687"/>
			<point x="99" y="735" type="curve"/>
			<point x="58" y="731" type="line"/>
			<point x="43" y="676"/>
			<point x="35" y="632"/>
			<point x="35" y="586" type="curve" smooth="yes"/>
			<point x="35" y="455"/>
			<point x="180" y="501"/>
			<point x="180" y="275" type="curve" smooth="yes"/>
			<point x="180" y="165"/>
			<point x="101" y="-9"/>
			<point x="-70" y="-174" type="curve"/>
		</contour>
	</outline>
</glyph>
<glyph name="aiSamekh" format="2">
	<unicode hex="1084E"/>
	<advance width="468"/>
	<outline>
		<contour>
			<point x="80" y="230" type="line"/>
			<point x="227" y="321"/>
			<point x="265" y="487"/>
			<point x="265" y="615" type="curve" smooth="yes"/>
			<point x="265" y="655"/>
			<point x="263" y="693"/>
			<point x="259" y="735" type="curve"/>
			<point x="219" y="731" type="line"/>
			<point x="223" y="689"/>
			<point x="224" y="650"/>
			<point x="224" y="598" type="curve" smooth="yes"/>
			<point x="224" y="486"/>
			<point x="195" y="351"/>
			<point x="56" y="266" type="curve"/>
		</contour>
		<contour>
			<point x="75" y="-208" type="line"/>
			<point x="282" y="-43"/>
			<point x="412" y="218"/>
			<point x="412" y="397" type="curve" smooth="yes"/>
			<point x="412" y="501"/>
			<point x="371" y="548"/>
			<point x="245" y="548" type="curve" smooth="yes"/>
			<point x="5" y="548" type="line"/>
			<point x="5" y="504" type="line"/>
			<point x="238" y="504" type="line" smooth="yes"/>
			<point x="334" y="504"/>
			<point x="372" y="480"/>
			<point x="372" y="393" type="curve" smooth="yes"/>
			<point x="372" y="235"/>
			<point x="245" y="-28"/>
			<point x="49" y="-173" type="curve"/>
		</contour>
	</outline>
</glyph>
<glyph name="aiAyin" format="2">
	<unicode hex="1084F"/>
	<advance width="546"/>
	<outline>
		<contour>
			<point x="276" y="203" type="curve" smooth="yes"/>
			<point x="411" y="203"/>
			<point x="489" y="293"/>
			<point x="492" y="548" type="curve"/>
			<point x="452" y="548" type="line"/>
			<point x="452" y="327"/>
			<point x="390" y="248"/>
			<point x="277" y="248" type="curve" smooth="yes"/>
			<point x="165" y="248"/>
			<point x="105" y="328"/>
			<point x="105" y="553" type="curve"/>
			<point x="60" y="547" type="line"/>
			<point x="63" y="290"/>
			<point x="141" y="203"/>
		</contour>
	</outline>
</glyph>
<glyph name="aiPe" format="2">
	<unicode hex="10850"/>
	<advance width="526"/>
	<outline>
		<contour>
			<point x="97" y="-208" type="line"/>
			<point x="325" y="-40"/>
			<point x="471" y="183"/>
			<point x="471" y="347" type="curve" smooth="yes"/>
			<point x="471" y="471"/>
			<point x="408" y="558"/>
			<point x="287" y="558" type="curve" smooth="yes"/>
			<point x="147" y="558"/>
			<point x="64" y="471"/>
			<point x="62" y="219" type="curve"/>
			<point x="102" y="219" type="line"/>
			<point x="102" y="437"/>
			<point x="167" y="513"/>
			<point x="285" y="513" type="curve" smooth="yes"/>
			<point x="374" y="513"/>
			<point x="431" y="456"/>
			<point x="431" y="346" type="curve" smooth="yes"/>
			<point x="431" y="200"/>
			<point x="291" y="-24"/>
			<point x="73" y="-171" type="curve"/>
		</contour>
	</outline>
</glyph>
<glyph name="aiSadhe" format="2">
	<unicode hex="10851"/>
	<advance width="514"/>
	<outline>
		<contour>
			<point x="237" y="88" type="line"/>
			<point x="382" y="190"/>
			<point x="458" y="296"/>
			<point x="458" y="397" type="curve" smooth="yes"/>
			<point x="458" y="501"/>
			<point x="417" y="548"/>
			<point x="291" y="548" type="curve" smooth="yes"/>
			<point x="141" y="548" type="line"/>
			<point x="125" y="504" type="line"/>
			<point x="284" y="504" type="line" smooth="yes"/>
			<point x="380" y="504"/>
			<point x="418" y="480"/>
			<point x="418" y="393" type="curve" smooth="yes"/>
			<point x="418" y="302"/>
			<point x="351" y="214"/>
			<point x="212" y="119" type="curve"/>
		</contour>
		<contour>
			<point x="112" y="-197" type="line"/>
			<point x="152" y="-197" type="line"/>
			<point x="152" y="735" type="line"/>
			<point x="112" y="735" type="line"/>
		</contour>
	</outline>
</glyph>
<glyph name="aiQoph" format="2">
	<unicode hex="10852"/>
	<advance width="552"/>
	<outline>
		<contour>
			<point x="275" y="88" type="line"/>
			<point x="420" y="190"/>
			<point x="496" y="296"/>
			<point x="496" y="397" type="curve" smooth="yes"/>
			<point x="496" y="501"/>
			<point x="455" y="548"/>
			<point x="329" y="548" type="curve" smooth="yes"/>
			<point x="129" y="548" type="line" smooth="yes"/>
			<point x="86" y="548"/>
			<point x="75" y="562"/>
			<point x="75" y="595" type="curve" smooth="yes"/>
			<point x="75" y="641"/>
			<point x="84" y="685"/>
			<point x="97" y="735" type="curve"/>
			<point x="56" y="731" type="line"/>
			<point x="41" y="675"/>
			<point x="33" y="630"/>
			<point x="33" y="582" type="curve" smooth="yes"/>
			<point x="33" y="528"/>
			<point x="63" y="504"/>
			<point x="111" y="504" type="curve" smooth="yes"/>
			<point x="322" y="504" type="line" smooth="yes"/>
			<point x="418" y="504"/>
			<point x="456" y="480"/>
			<point x="456" y="393" type="curve" smooth="yes"/>
			<point x="456" y="302"/>
			<point x="389" y="214"/>
			<point x="250" y="119" type="curve"/>
		</contour>
		<contour>
			<point x="150" y="-196" type="line"/>
			<point x="190" y="-196" type="line"/>
			<point x="190" y="548" type="line"/>
			<point x="158" y="548" type="line"/>
			<point x="151" y="520"/>
			<point x="150" y="490"/>
			<point x="150" y="452" type="curve" smooth="yes"/>
		</contour>
	</outline>
</glyph>
<glyph name="aiShin" format="2">
	<unicode hex="10854"/>
	<advance width="695"/>
	<outline>
		<contour>
			<point x="338" y="-12" type="curve" smooth="yes"/>
			<point x="497" y="-12"/>
			<point x="640" y="173"/>
			<point x="659" y="548" type="curve"/>
			<point x="620" y="548" type="line"/>
			<point x="602" y="199"/>
			<point x="478" y="32"/>
			<point x="340" y="32" type="curve" smooth="yes"/>
			<point x="184" y="32"/>
			<point x="110" y="166"/>
			<point x="109" y="553" type="curve"/>
			<point x="60" y="547" type="line"/>
			<point x="70" y="131"/>
			<point x="157" y="-12"/>
		</contour>
		<contour>
			<point x="166" y="104" type="line"/>
			<point x="339" y="280"/>
			<point x="401" y="338"/>
			<point x="428" y="550" type="curve"/>
			<point x="387" y="548" type="line"/>
			<point x="360" y="361"/>
			<point x="310" y="301"/>
			<point x="152" y="138" type="curve"/>
		</contour>
	</outline>
</glyph>
<glyph name="aiTaw" format="2">
	<unicode hex="10855"/>
	<advance width="635"/>
	<outline>
		<contour>
			<point x="496" y="0" type="line"/>
			<point x="536" y="0" type="line"/>
			<point x="536" y="350" type="line" smooth="yes"/>
			<point x="536" y="495"/>
			<point x="466" y="548"/>
			<point x="357" y="548" type="curve" smooth="yes"/>
			<point x="128" y="548" type="line"/>
			<point x="128" y="504" type="line"/>
			<point x="345" y="504" type="line" smooth="yes"/>
			<point x="437" y="504"/>
			<point x="496" y="464"/>
			<point x="496" y="337" type="curve" smooth="yes"/>
		</contour>
		<contour>
			<point x="112" y="-197" type="line"/>
			<point x="152" y="-197" type="line"/>
			<point x="152" y="735" type="line"/>
			<point x="112" y="735" type="line"/>
		</contour>
	</outline>
</glyph>
<glyph name="pmAleph" format="2">
	<unicode hex="10860"/>
	<advance width="597"/>
	<outline>
		<contour>
			<point x="199" y="0" type="curve" smooth="yes"/>
			<point x="270" y="0" type="line"/>
			<point x="270" y="44" type="line"/>
			<point x="218" y="44" type="line" smooth="yes"/>
			<point x="157" y="44"/>
			<point x="131" y="59"/>
			<point x="131" y="108" type="curve" smooth="yes"/>
			<point x="131" y="172"/>
			<point x="173" y="264"/>
			<point x="244" y="355" type="curve"/>
			<point x="219" y="378" type="line"/>
			<point x="145" y="278"/>
			<point x="91" y="184"/>
			<point x="91" y="103" type="curve" smooth="yes"/>
			<point x="91" y="28"/>
			<point x="126" y="0"/>
		</contour>
		<contour>
			<point x="454" y="139" type="line"/>
			<point x="505" y="234"/>
			<point x="540" y="330"/>
			<point x="540" y="486" type="curve" smooth="yes"/>
			<point x="540" y="507"/>
			<point x="540" y="527"/>
			<point x="538" y="548" type="curve"/>
			<point x="491" y="548" type="line"/>
			<point x="493" y="525"/>
			<point x="495" y="502"/>
			<point x="495" y="481" type="curve" smooth="yes"/>
			<point x="495" y="338"/>
			<point x="470" y="249"/>
			<point x="426" y="156" type="curve"/>
		</contour>
		<contour>
			<point x="528" y="-5" type="curve"/>
			<point x="579" y="4" type="line"/>
			<point x="414" y="176"/>
			<point x="238" y="370"/>
			<point x="130" y="553" type="curve"/>
			<point x="80" y="545" type="line"/>
			<point x="203" y="356"/>
			<point x="379" y="153"/>
		</contour>
	</outline>
</glyph>
<glyph name="pmGimel" format="2">
	<unicode hex="10862"/>
	<advance width="376"/>
	<outline>
		<contour>
			<point x="262" y="0" type="line"/>
			<point x="302" y="0" type="line"/>
			<point x="266" y="417" type="line" smooth="yes"/>
			<point x="258" y="502"/>
			<point x="220" y="548"/>
			<point x="139" y="548" type="curve" smooth="yes"/>
			<point x="75" y="548" type="line"/>
			<point x="75" y="504" type="line"/>
			<point x="127" y="504" type="line" smooth="yes"/>
			<point x="195" y="504"/>
			<point x="225" y="476"/>
			<point x="231" y="400" type="curve" smooth="yes"/>
		</contour>
		<contour>
			<point x="53" y="-8" type="line"/>
			<point x="162" y="-2"/>
			<point x="254" y="84"/>
			<point x="262" y="156" type="curve"/>
			<point x="251" y="188" type="line"/>
			<point x="237" y="107"/>
			<point x="147" y="44"/>
			<point x="53" y="37" type="curve"/>
		</contour>
	</outline>
</glyph>
<glyph name="pmDaleth" format="2">
	<unicode hex="10863"/>
	<advance width="477"/>
	<outline>
		<contour>
			<point x="5" y="504" type="line"/>
			<point x="434" y="504" type="line"/>
			<point x="434" y="548" type="line"/>
			<point x="5" y="548" type="line"/>
		</contour>
		<contour>
			<point x="300" y="0" type="line"/>
			<point x="340" y="0" type="line"/>
			<point x="340" y="504" type="line"/>
			<point x="308" y="504" type="line"/>
			<point x="301" y="476"/>
			<point x="300" y="446"/>
			<point x="300" y="408" type="curve" smooth="yes"/>
		</contour>
	</outline>
</glyph>
<glyph name="pmHe" format="2">
	<unicode hex="10864"/>
	<advance width="627"/>
	<outline>
		<contour>
			<point x="488" y="0" type="line"/>
			<point x="528" y="0" type="line"/>
			<point x="528" y="350" type="line" smooth="yes"/>
			<point x="528" y="495"/>
			<point x="458" y="548"/>
			<point x="349" y="548" type="curve" smooth="yes"/>
			<point x="91" y="548" type="line"/>
			<point x="91" y="504" type="line"/>
			<point x="336" y="504" type="line" smooth="yes"/>
			<point x="429" y="504"/>
			<point x="488" y="464"/>
			<point x="488" y="337" type="curve" smooth="yes"/>
		</contour>
		<contour>
			<point x="65" y="-3" type="curve"/>
			<point x="118" y="-3" type="line"/>
			<point x="177" y="117"/>
			<point x="241" y="334"/>
			<point x="268" y="520" type="curve"/>
			<point x="231" y="528" type="line"/>
			<point x="208" y="343"/>
			<point x="136" y="125"/>
		</contour>
	</outline>
</glyph>
<glyph name="pmWaw" format="2">
	<unicode hex="10865"/>
	<advance width="284"/>
	<outline>
		<contour>
			<point x="145" y="0" type="line"/>
			<point x="185" y="0" type="line"/>
			<point x="185" y="388" type="line" smooth="yes"/>
			<point x="185" y="514"/>
			<point x="138" y="548"/>
			<point x="44" y="548" type="curve" smooth="yes"/>
			<point x="5" y="548" type="line"/>
			<point x="5" y="504" type="line"/>
			<point x="31" y="504" type="line" smooth="yes"/>
			<point x="108" y="504"/>
			<point x="145" y="483"/>
			<point x="145" y="375" type="curve" smooth="yes"/>
		</contour>
	</outline>
</glyph>
<glyph name="pmYodh" format="2">
	<unicode hex="10869"/>
	<advance width="557"/>
	<outline>
		<contour>
			<point x="60" y="211" type="curve"/>
			<point x="107" y="215" type="line"/>
			<point x="107" y="436"/>
			<point x="167" y="514"/>
			<point x="276" y="514" type="curve" smooth="yes"/>
			<point x="385" y="514"/>
			<point x="445" y="435"/>
			<point x="445" y="210" type="curve"/>
			<point x="493" y="215" type="line"/>
			<point x="490" y="472"/>
			<point x="412" y="560"/>
			<point x="278" y="560" type="curve" smooth="yes"/>
			<point x="142" y="560"/>
			<point x="63" y="469"/>
		</contour>
	</outline>
</glyph>
<glyph name="pmLamedh" format="2">
	<unicode hex="1086B"/>
	<advance width="452"/>
	<outline>
		<contour>
			<point x="214" y="208" type="curve" smooth="yes"/>
			<point x="372" y="208" type="line"/>
			<point x="397" y="252" type="line"/>
			<point x="221" y="252" type="line" smooth="yes"/>
			<point x="125" y="252"/>
			<point x="87" y="277"/>
			<point x="87" y="364" type="curve" smooth="yes"/>
			<point x="87" y="474"/>
			<point x="164" y="587"/>
			<point x="346" y="699" type="curve"/>
			<point x="324" y="734" type="line"/>
			<point x="135" y="618"/>
			<point x="47" y="484"/>
			<point x="47" y="358" type="curve" smooth="yes"/>
			<point x="47" y="254"/>
			<point x="88" y="208"/>
		</contour>
	</outline>
</glyph>
<glyph name="pmNun" format="2">
	<unicode hex="1086E"/>
	<advance width="398"/>
	<outline>
		<contour>
			<point x="53" y="0" type="line"/>
			<point x="299" y="0" type="line"/>
			<point x="299" y="379" type="line" smooth="yes"/>
			<point x="299" y="512"/>
			<point x="249" y="548"/>
			<point x="148" y="548" type="curve" smooth="yes"/>
			<point x="75" y="548" type="line"/>
			<point x="75" y="504" type="line"/>
			<point x="136" y="504" type="line" smooth="yes"/>
			<point x="221" y="504"/>
			<point x="259" y="482"/>
			<point x="259" y="366" type="curve" smooth="yes"/>
			<point x="259" y="42" type="line"/>
			<point x="53" y="42" type="line"/>
		</contour>
	</outline>
</glyph>
<glyph name="pmSamekh" format="2">
	<unicode hex="1086F"/>
	<advance width="579"/>
	<outline>
		<contour>
			<point x="298" y="-12" type="curve" smooth="yes"/>
			<point x="425" y="-12"/>
			<point x="524" y="130"/>
			<point x="524" y="387" type="curve" smooth="yes"/>
			<point x="524" y="508"/>
			<point x="480" y="548"/>
			<point x="388" y="548" type="curve" smooth="yes"/>
			<point x="4" y="548" type="line"/>
			<point x="4" y="504" type="line"/>
			<point x="381" y="504" type="line" smooth="yes"/>
			<point x="454" y="504"/>
			<point x="486" y="476"/>
			<point x="486" y="383" type="curve" smooth="yes"/>
			<point x="486" y="156"/>
			<point x="396" y="34"/>
			<point x="300" y="34" type="curve" smooth="yes"/>
			<point x="163" y="34"/>
			<point x="114" y="161"/>
			<point x="112" y="524" type="curve"/>
			<point x="74" y="514" type="line"/>
			<point x="76" y="125"/>
			<point x="137" y="-12"/>
		</contour>
	</outline>
</glyph>
<glyph name="pmResh" format="2">
	<unicode hex="10874"/>
	<advance width="460"/>
	<outline>
		<contour>
			<point x="321" y="0" type="line"/>
			<point x="361" y="0" type="line"/>
			<point x="361" y="350" type="line" smooth="yes"/>
			<point x="361" y="495"/>
			<point x="290" y="548"/>
			<point x="182" y="548" type="curve" smooth="yes"/>
			<point x="5" y="548" type="line"/>
			<point x="5" y="504" type="line"/>
			<point x="169" y="504" type="line" smooth="yes"/>
			<point x="262" y="504"/>
			<point x="321" y="464"/>
			<point x="321" y="337" type="curve" smooth="yes"/>
		</contour>
	</outline>
</glyph>
<glyph name="pmTaw" format="2">
	<unicode hex="10876"/>
	<advance width="663"/>
	<outline>
		<contour>
			<point x="524" y="0" type="line"/>
			<point x="564" y="0" type="line"/>
			<point x="564" y="350" type="line" smooth="yes"/>
			<point x="564" y="495"/>
			<point x="494" y="548"/>
			<point x="385" y="548" type="curve" smooth="yes"/>
			<point x="75" y="548" type="line"/>
			<point x="75" y="504" type="line"/>
			<point x="373" y="504" type="line" smooth="yes"/>
			<point x="465" y="504"/>
			<point x="524" y="464"/>
			<point x="524" y="337" type="curve" smooth="yes"/>
		</contour>
		<contour>
			<point x="53" y="0" type="line"/>
			<point x="206" y="0" type="line"/>
			<point x="212" y="34" type="line"/>
			<point x="196" y="181"/>
			<point x="190" y="313"/>
			<point x="190" y="419" type="curve" smooth="yes"/>
			<point x="190" y="504" type="line"/>
			<point x="158" y="504" type="line"/>
			<point x="151" y="478"/>
			<point x="151" y="449"/>
			<point x="151" y="412" type="curve" smooth="yes"/>
			<point x="151" y="303"/>
			<point x="158" y="179"/>
			<point x="169" y="42" type="curve"/>
			<point x="53" y="42" type="line"/>
		</contour>
	</outline>
</glyph>
<glyph name="hrAleph" format="2">
	<unicode hex="108E0"/>
	<advance width="627"/>
	<outline>
		<contour>
			<point x="91" y="0" type="line"/>
			<point x="349" y="0" type="line" smooth="yes"/>
			<point x="458" y="0"/>
			<point x="528" y="53"/>
			<point x="528" y="198" type="curve" smooth="yes"/>
			<point x="528" y="548" type="line"/>
			<point x="488" y="548" type="line"/>
			<point x="488" y="212" type="line" smooth="yes"/>
			<point x="488" y="84"/>
			<point x="429" y="44"/>
			<point x="336" y="44" type="curve" smooth="yes"/>
			<point x="91" y="44" type="line"/>
		</contour>
		<contour>
			<point x="229" y="27" type="curve"/>
			<point x="266" y="32" type="line"/>
			<point x="242" y="216"/>
			<point x="175" y="435"/>
			<point x="116" y="553" type="curve"/>
			<point x="67" y="546" type="line"/>
			<point x="131" y="421"/>
			<point x="206" y="207"/>
		</contour>
	</outline>
</glyph>
<glyph name="hrGimel" format="2">
	<unicode hex="108E2"/>
	<advance width="510"/>
	<outline>
		<contour>
			<point x="53" y="0" type="line"/>
			<point x="460" y="0" type="line"/>
			<point x="468" y="36" type="line"/>
			<point x="283" y="193"/>
			<point x="142" y="364"/>
			<point x="70" y="553" type="curve"/>
			<point x="22" y="546" type="line"/>
			<point x="97" y="356"/>
			<point x="229" y="187"/>
			<point x="419" y="24" type="curve"/>
			<point x="432" y="42" type="line"/>
			<point x="53" y="42" type="line"/>
		</contour>
	</outline>
	<anchor name="aboveHE" x="244" y="590"/>
	<anchor name="belowPrimaryHE" x="245" y="-29"/>
	<anchor name="centerHE" x="125" y="168"/>
	<anchor name="aboveLeftHE" x="0" y="590"/>
</glyph>
<glyph name="hrHe" format="2">
	<unicode hex="108E4"/>
	<advance width="596"/>
	<outline>
		<contour>
			<point x="96" y="0" type="curve"/>
			<point x="140" y="0" type="line"/>
			<point x="138" y="24"/>
			<point x="136" y="46"/>
			<point x="136" y="67" type="curve" smooth="yes"/>
			<point x="136" y="211"/>
			<point x="163" y="299"/>
			<point x="207" y="392" type="curve"/>
			<point x="180" y="409" type="line"/>
			<point x="129" y="314"/>
			<point x="94" y="218"/>
			<point x="94" y="62" type="curve" smooth="yes"/>
			<point x="94" y="42"/>
			<point x="94" y="21"/>
		</contour>
		<contour>
			<point x="524" y="-5" type="curve"/>
			<point x="575" y="3" type="line"/>
			<point x="410" y="176"/>
			<point x="234" y="370"/>
			<point x="126" y="553" type="curve"/>
			<point x="76" y="545" type="line"/>
			<point x="200" y="355"/>
			<point x="375" y="153"/>
		</contour>
		<component base="aiZayin" xOffset="421"/>
	</outline>
	<anchor name="aboveHE" x="312" y="590"/>
	<anchor name="belowPrimaryHE" x="319" y="-29"/>
	<anchor name="aboveLeftHE" x="38" y="590"/>
	<anchor name="centerHE" x="253" y="117"/>
</glyph>
<glyph name="hrWaw" format="2">
	<unicode hex="108E5"/>
	<advance width="566"/>
	<outline>
		<contour>
			<point x="273" y="-12" type="line"/>
			<point x="410" y="86"/>
			<point x="468" y="184"/>
			<point x="468" y="282" type="curve" smooth="yes"/>
			<point x="468" y="449"/>
			<point x="364" y="530"/>
			<point x="226" y="558" type="curve"/>
			<point x="215" y="514" type="line"/>
			<point x="330" y="486"/>
			<point x="428" y="420"/>
			<point x="428" y="279" type="curve" smooth="yes"/>
			<point x="428" y="192"/>
			<point x="377" y="113"/>
			<point x="242" y="16" type="curve"/>
		</contour>
	</outline>
</glyph>
<glyph name="hrTeth" format="2">
	<unicode hex="108E8"/>
	<advance width="562"/>
	<outline>
		<contour>
			<point x="311" y="-12" type="curve" smooth="yes"/>
			<point x="422" y="-12"/>
			<point x="506" y="55"/>
			<point x="506" y="170" type="curve" smooth="yes"/>
			<point x="506" y="277"/>
			<point x="445" y="312"/>
			<point x="362" y="312" type="curve" smooth="yes"/>
			<point x="330" y="312" type="line"/>
			<point x="330" y="268" type="line"/>
			<point x="356" y="268" type="line" smooth="yes"/>
			<point x="418" y="268"/>
			<point x="466" y="246"/>
			<point x="466" y="168" type="curve" smooth="yes"/>
			<point x="466" y="80"/>
			<point x="405" y="32"/>
			<point x="317" y="32" type="curve" smooth="yes"/>
			<point x="201" y="32"/>
			<point x="139" y="81"/>
			<point x="139" y="233" type="curve" smooth="yes"/>
			<point x="139" y="374"/>
			<point x="206" y="511"/>
			<point x="511" y="527" type="curve"/>
			<point x="501" y="565" type="line"/>
			<point x="173" y="544"/>
			<point x="99" y="392"/>
			<point x="99" y="224" type="curve" smooth="yes"/>
			<point x="99" y="54"/>
			<point x="173" y="-12"/>
		</contour>
	</outline>
</glyph>
<glyph name="hrYodh" format="2">
	<unicode hex="108E9"/>
	<advance width="469"/>
	<outline>
		<contour>
			<point x="390" y="-12" type="curve"/>
			<point x="392" y="27" type="line"/>
			<point x="244" y="27"/>
			<point x="98" y="151"/>
			<point x="98" y="308" type="curve" smooth="yes"/>
			<point x="98" y="432"/>
			<point x="179" y="519"/>
			<point x="284" y="519" type="curve" smooth="yes"/>
			<point x="336" y="519"/>
			<point x="378" y="500"/>
			<point x="408" y="470" type="curve"/>
			<point x="432" y="499" type="line"/>
			<point x="398" y="532"/>
			<point x="352" y="558"/>
			<point x="283" y="558" type="curve" smooth="yes"/>
			<point x="159" y="558"/>
			<point x="52" y="467"/>
			<point x="52" y="308" type="curve" smooth="yes"/>
			<point x="52" y="118"/>
			<point x="225" y="-12"/>
		</contour>
	</outline>
</glyph>
<glyph name="hrLamedh" format="2">
	<unicode hex="108EB"/>
	<advance width="379"/>
	<outline>
		<contour>
			<point x="121" y="-12" type="line"/>
			<point x="284" y="157"/>
			<point x="324" y="260"/>
			<point x="324" y="395" type="curve" smooth="yes"/>
			<point x="324" y="604"/>
			<point x="27" y="741"/>
			<point x="-314" y="743" type="curve"/>
			<point x="-325" y="698" type="line"/>
			<point x="-21" y="696"/>
			<point x="284" y="578"/>
			<point x="284" y="393" type="curve" smooth="yes"/>
			<point x="284" y="268"/>
			<point x="252" y="185"/>
			<point x="90" y="16" type="curve"/>
		</contour>
	</outline>
</glyph>
<glyph name="hrNun" format="2">
	<unicode hex="108ED"/>
	<advance width="242"/>
	<outline>
		<contour>
			<point x="-36" y="-201" type="line"/>
			<point x="-6" y="-201" type="line" smooth="yes"/>
			<point x="95" y="-201"/>
			<point x="145" y="-165"/>
			<point x="145" y="-32" type="curve" smooth="yes"/>
			<point x="145" y="548" type="line"/>
			<point x="105" y="548" type="line"/>
			<point x="105" y="-18" type="line" smooth="yes"/>
			<point x="105" y="-134"/>
			<point x="66" y="-156"/>
			<point x="-18" y="-156" type="curve" smooth="yes"/>
			<point x="-36" y="-156" type="line"/>
		</contour>
	</outline>
</glyph>
<glyph name="hrAyn" format="2">
	<unicode hex="108EF"/>
	<advance width="560"/>
	<outline>
		<contour>
			<point x="280" y="196" type="curve" smooth="yes"/>
			<point x="417" y="196"/>
			<point x="496" y="286"/>
			<point x="500" y="553" type="curve"/>
			<point x="451" y="546" type="line"/>
			<point x="451" y="317"/>
			<point x="391" y="242"/>
			<point x="281" y="242" type="curve" smooth="yes"/>
			<point x="171" y="242"/>
			<point x="112" y="319"/>
			<point x="112" y="553" type="curve"/>
			<point x="63" y="546" type="line"/>
			<point x="66" y="284"/>
			<point x="145" y="196"/>
		</contour>
	</outline>
</glyph>
<glyph name="hrPe" format="2">
	<unicode hex="108F0"/>
	<advance width="544"/>
	<outline>
		<contour>
			<point x="406" y="-197" type="line"/>
			<point x="446" y="-197" type="line"/>
			<point x="446" y="340" type="line" smooth="yes"/>
			<point x="446" y="509"/>
			<point x="368" y="560"/>
			<point x="249" y="560" type="curve" smooth="yes"/>
			<point x="140" y="560"/>
			<point x="59" y="492"/>
			<point x="59" y="376" type="curve" smooth="yes"/>
			<point x="59" y="268"/>
			<point x="120" y="232"/>
			<point x="202" y="232" type="curve" smooth="yes"/>
			<point x="235" y="232" type="line"/>
			<point x="235" y="278" type="line"/>
			<point x="208" y="278" type="line" smooth="yes"/>
			<point x="147" y="278"/>
			<point x="99" y="300"/>
			<point x="99" y="378" type="curve" smooth="yes"/>
			<point x="99" y="467"/>
			<point x="159" y="516"/>
			<point x="245" y="516" type="curve" smooth="yes"/>
			<point x="342" y="516"/>
			<point x="406" y="482"/>
			<point x="406" y="328" type="curve" smooth="yes"/>
		</contour>
	</outline>
</glyph>
<glyph name="pnBet" format="2">
	<unicode hex="10901"/>
	<advance width="508"/>
	<outline>
		<contour>
			<point x="84" y="0" type="line"/>
			<point x="411" y="0" type="line"/>
			<point x="411" y="514" type="line"/>
			<point x="244" y="514" type="line" smooth="yes"/>
			<point x="119" y="514"/>
			<point x="46" y="464"/>
			<point x="46" y="362" type="curve" smooth="yes"/>
			<point x="46" y="259"/>
			<point x="128" y="220"/>
			<point x="248" y="220" type="curve" smooth="yes"/>
			<point x="371" y="220" type="line"/>
			<point x="371" y="42" type="line"/>
			<point x="84" y="42" type="line"/>
		</contour>
		<contour>
			<point x="255" y="258" type="line" smooth="yes"/>
			<point x="144" y="258"/>
			<point x="88" y="289"/>
			<point x="88" y="363" type="curve" smooth="yes"/>
			<point x="88" y="438"/>
			<point x="142" y="472"/>
			<point x="251" y="472" type="curve" smooth="yes"/>
			<point x="371" y="472" type="line"/>
			<point x="371" y="258" type="line"/>
		</contour>
	</outline>
</glyph>
<glyph name="pnGaml" format="2">
	<unicode hex="10902"/>
	<advance width="420"/>
	<outline>
		<contour>
			<point x="280" y="0" type="line"/>
			<point x="323" y="0" type="line"/>
			<point x="323" y="512" type="line"/>
			<point x="24" y="512" type="line"/>
			<point x="24" y="470" type="line"/>
			<point x="280" y="470" type="line"/>
		</contour>
	</outline>
</glyph>
<glyph name="pnDelt" format="2">
	<unicode hex="10903"/>
	<advance width="544"/>
	<outline>
		<contour>
			<point x="315" y="0" type="curve" smooth="yes"/>
			<point x="447" y="0" type="line"/>
			<point x="447" y="550" type="line"/>
			<point x="316" y="550" type="line" smooth="yes"/>
			<point x="146" y="550"/>
			<point x="62" y="445"/>
			<point x="62" y="275" type="curve" smooth="yes"/>
			<point x="62" y="106"/>
			<point x="146" y="0"/>
		</contour>
		<contour>
			<point x="319" y="44" type="line" smooth="yes"/>
			<point x="169" y="44"/>
			<point x="104" y="130"/>
			<point x="104" y="275" type="curve" smooth="yes"/>
			<point x="104" y="412"/>
			<point x="169" y="505"/>
			<point x="319" y="505" type="curve" smooth="yes"/>
			<point x="407" y="505" type="line"/>
			<point x="407" y="44" type="line"/>
		</contour>
		<contour>
			<point x="407" y="-120" type="line"/>
			<point x="447" y="-120" type="line"/>
			<point x="447" y="72" type="line"/>
			<point x="407" y="55" type="line"/>
		</contour>
	</outline>
</glyph>
<glyph name="pnHe" format="2">
	<unicode hex="10904"/>
	<advance width="462"/>
	<outline>
		<contour>
			<point x="323" y="-197" type="line"/>
			<point x="365" y="-197" type="line"/>
			<point x="365" y="512" type="line"/>
			<point x="57" y="512" type="line"/>
			<point x="57" y="470" type="line"/>
			<point x="323" y="470" type="line"/>
			<point x="323" y="292" type="line"/>
			<point x="99" y="292" type="line"/>
			<point x="99" y="253" type="line"/>
			<point x="323" y="253" type="line"/>
			<point x="323" y="42" type="line"/>
			<point x="48" y="42" type="line"/>
			<point x="48" y="0" type="line"/>
			<point x="323" y="0" type="line"/>
		</contour>
	</outline>
</glyph>
<glyph name="pnZai" format="2">
	<unicode hex="10906"/>
	<advance width="476"/>
	<outline>
		<contour>
			<point x="57" y="0" type="line"/>
			<point x="427" y="0" type="line"/>
			<point x="427" y="44" type="line"/>
			<point x="110" y="44" type="line"/>
			<point x="423" y="486" type="line"/>
			<point x="418" y="512" type="line"/>
			<point x="79" y="512" type="line"/>
			<point x="79" y="468" type="line"/>
			<point x="365" y="468" type="line"/>
			<point x="51" y="27" type="line"/>
		</contour>
	</outline>
</glyph>
<glyph name="pnHet" format="2">
	<unicode hex="10907"/>
	<advance width="599"/>
	<outline>
		<contour>
			<point x="462" y="-197" type="line"/>
			<point x="502" y="-197" type="line"/>
			<point x="502" y="512" type="line"/>
			<point x="139" y="512" type="line"/>
			<point x="139" y="699" type="line"/>
			<point x="99" y="699" type="line"/>
			<point x="99" y="0" type="line"/>
			<point x="462" y="0" type="line"/>
		</contour>
		<contour>
			<point x="139" y="292" type="line"/>
			<point x="139" y="470" type="line"/>
			<point x="462" y="470" type="line"/>
			<point x="462" y="292" type="line"/>
		</contour>
		<contour>
			<point x="139" y="42" type="line"/>
			<point x="139" y="252" type="line"/>
			<point x="462" y="252" type="line"/>
			<point x="462" y="42" type="line"/>
		</contour>
	</outline>
</glyph>
<glyph name="pnYod" format="2">
	<unicode hex="10909"/>
	<advance width="479"/>
	<outline>
		<contour>
			<point x="93" y="269" type="line"/>
			<point x="265" y="269" type="line"/>
			<point x="265" y="310" type="line"/>
			<point x="93" y="310" type="line"/>
		</contour>
		<contour>
			<point x="94" y="0" type="line"/>
			<point x="425" y="0" type="line"/>
			<point x="425" y="44" type="line"/>
			<point x="149" y="44" type="line"/>
			<point x="421" y="522" type="line"/>
			<point x="421" y="548" type="line"/>
			<point x="78" y="548" type="line"/>
			<point x="78" y="504" type="line"/>
			<point x="366" y="504" type="line"/>
			<point x="94" y="27" type="line"/>
		</contour>
	</outline>
</glyph>
<glyph name="pnKaf" format="2">
	<unicode hex="1090A"/>
	<advance width="497"/>
	<outline>
		<contour>
			<point x="304" y="-197" type="line"/>
			<point x="344" y="-197" type="line"/>
			<point x="344" y="512" type="line"/>
			<point x="304" y="512" type="line"/>
			<point x="304" y="411" type="line"/>
			<point x="316" y="415" type="line"/>
			<point x="289" y="491"/>
			<point x="199" y="524"/>
			<point x="48" y="524" type="curve"/>
			<point x="48" y="480" type="line"/>
			<point x="231" y="480"/>
			<point x="304" y="433"/>
			<point x="304" y="345" type="curve" smooth="yes"/>
			<point x="304" y="250"/>
			<point x="231" y="205"/>
			<point x="48" y="205" type="curve"/>
			<point x="48" y="161" type="line"/>
			<point x="194" y="161"/>
			<point x="287" y="194"/>
			<point x="316" y="265" type="curve"/>
			<point x="304" y="269" type="line"/>
		</contour>
	</outline>
</glyph>
<glyph name="pnNun" format="2">
	<unicode hex="1090D"/>
	<advance width="553"/>
	<outline>
		<contour>
			<point x="414" y="-197" type="line"/>
			<point x="456" y="-197" type="line"/>
			<point x="456" y="512" type="line"/>
			<point x="419" y="512" type="line"/>
			<point x="415" y="312"/>
			<point x="336" y="208"/>
			<point x="242" y="208" type="curve" smooth="yes"/>
			<point x="152" y="208"/>
			<point x="103" y="293"/>
			<point x="103" y="517" type="curve"/>
			<point x="60" y="511" type="line"/>
			<point x="62" y="255"/>
			<point x="130" y="161"/>
			<point x="239" y="161" type="curve" smooth="yes"/>
			<point x="322" y="161"/>
			<point x="393" y="234"/>
			<point x="426" y="332" type="curve"/>
			<point x="422" y="336" type="line"/>
			<point x="416" y="256"/>
			<point x="414" y="209"/>
			<point x="414" y="161" type="curve" smooth="yes"/>
		</contour>
	</outline>
</glyph>
<glyph name="pnSemk" format="2">
	<unicode hex="1090E"/>
	<advance width="492"/>
	<outline>
		<contour>
			<point x="226" y="-120" type="line"/>
			<point x="266" y="-120" type="line"/>
			<point x="266" y="158" type="line"/>
			<point x="459" y="158" type="line"/>
			<point x="459" y="203" type="line"/>
			<point x="266" y="203" type="line"/>
			<point x="266" y="336" type="line"/>
			<point x="426" y="336" type="line"/>
			<point x="426" y="378" type="line"/>
			<point x="266" y="378" type="line"/>
			<point x="266" y="504" type="line"/>
			<point x="459" y="504" type="line"/>
			<point x="459" y="548" type="line"/>
			<point x="32" y="548" type="line"/>
			<point x="32" y="504" type="line"/>
			<point x="226" y="504" type="line"/>
			<point x="226" y="378" type="line"/>
			<point x="65" y="378" type="line"/>
			<point x="65" y="336" type="line"/>
			<point x="226" y="336" type="line"/>
			<point x="226" y="203" type="line"/>
			<point x="32" y="203" type="line"/>
			<point x="32" y="158" type="line"/>
			<point x="226" y="158" type="line"/>
		</contour>
	</outline>
</glyph>
<glyph name="pnPe" format="2">
	<unicode hex="10910"/>
	<advance width="573"/>
	<outline>
		<contour>
			<point x="430" y="-120" type="line"/>
			<point x="470" y="-120" type="line"/>
			<point x="470" y="354" type="line" smooth="yes"/>
			<point x="470" y="516"/>
			<point x="375" y="560"/>
			<point x="282" y="560" type="curve" smooth="yes"/>
			<point x="188" y="560"/>
			<point x="94" y="516"/>
			<point x="94" y="354" type="curve" smooth="yes"/>
			<point x="94" y="274" type="line"/>
			<point x="134" y="274" type="line"/>
			<point x="134" y="344" type="line" smooth="yes"/>
			<point x="134" y="475"/>
			<point x="203" y="512"/>
			<point x="282" y="512" type="curve" smooth="yes"/>
			<point x="360" y="512"/>
			<point x="430" y="475"/>
			<point x="430" y="344" type="curve" smooth="yes"/>
		</contour>
	</outline>
</glyph>
<glyph name="pnQof" format="2">
	<unicode hex="10912"/>
	<advance width="575"/>
	<outline>
		<contour>
			<point x="267" y="-120" type="line"/>
			<point x="307" y="-120" type="line"/>
			<point x="307" y="541" type="line"/>
			<point x="267" y="541" type="line"/>
		</contour>
		<contour>
			<point x="287" y="94" type="curve" smooth="yes"/>
			<point x="424" y="94"/>
			<point x="523" y="185"/>
			<point x="523" y="328" type="curve" smooth="yes"/>
			<point x="523" y="471"/>
			<point x="424" y="560"/>
			<point x="287" y="560" type="curve" smooth="yes"/>
			<point x="149" y="560"/>
			<point x="51" y="471"/>
			<point x="51" y="328" type="curve" smooth="yes"/>
			<point x="51" y="185"/>
			<point x="149" y="94"/>
		</contour>
		<contour>
			<point x="287" y="142" type="curve" smooth="yes"/>
			<point x="170" y="142"/>
			<point x="93" y="214"/>
			<point x="93" y="328" type="curve" smooth="yes"/>
			<point x="93" y="443"/>
			<point x="170" y="512"/>
			<point x="287" y="512" type="curve" smooth="yes"/>
			<point x="404" y="512"/>
			<point x="482" y="443"/>
			<point x="482" y="328" type="curve" smooth="yes"/>
			<point x="482" y="214"/>
			<point x="404" y="142"/>
		</contour>
	</outline>
</glyph>
<glyph name="pnRosh" format="2">
	<unicode hex="10913"/>
	<advance width="517"/>
	<outline>
		<contour>
			<point x="380" y="-197" type="line"/>
			<point x="420" y="-197" type="line"/>
			<point x="420" y="512" type="line"/>
			<point x="291" y="512" type="line" smooth="yes"/>
			<point x="149" y="512"/>
			<point x="55" y="455"/>
			<point x="55" y="337" type="curve" smooth="yes"/>
			<point x="55" y="209"/>
			<point x="160" y="161"/>
			<point x="294" y="161" type="curve" smooth="yes"/>
			<point x="380" y="161" type="line"/>
		</contour>
		<contour>
			<point x="301" y="205" type="line" smooth="yes"/>
			<point x="174" y="205"/>
			<point x="95" y="243"/>
			<point x="95" y="338" type="curve" smooth="yes"/>
			<point x="95" y="428"/>
			<point x="172" y="468"/>
			<point x="298" y="468" type="curve" smooth="yes"/>
			<point x="380" y="468" type="line"/>
			<point x="380" y="205" type="line"/>
		</contour>
	</outline>
</glyph>
<glyph name="pnShin" format="2">
	<unicode hex="10914"/>
	<advance width="777"/>
	<outline>
		<contour>
			<point x="218" y="161" type="curve" smooth="yes"/>
			<point x="297" y="161"/>
			<point x="369" y="230"/>
			<point x="393" y="380" type="curve"/>
			<point x="384" y="380" type="line"/>
			<point x="399" y="231"/>
			<point x="456" y="161"/>
			<point x="529" y="161" type="curve" smooth="yes"/>
			<point x="639" y="161"/>
			<point x="718" y="285"/>
			<point x="724" y="512" type="curve"/>
			<point x="684" y="512" type="line"/>
			<point x="681" y="320"/>
			<point x="619" y="208"/>
			<point x="532" y="208" type="curve" smooth="yes"/>
			<point x="457" y="208"/>
			<point x="413" y="302"/>
			<point x="413" y="516" type="curve"/>
			<point x="373" y="511" type="line"/>
			<point x="369" y="320"/>
			<point x="308" y="208"/>
			<point x="221" y="208" type="curve" smooth="yes"/>
			<point x="144" y="208"/>
			<point x="103" y="293"/>
			<point x="103" y="517" type="curve"/>
			<point x="60" y="511" type="line"/>
			<point x="62" y="255"/>
			<point x="122" y="161"/>
		</contour>
	</outline>
</glyph>
<glyph name="pnTau" format="2">
	<unicode hex="10915"/>
	<advance width="502"/>
	<outline>
		<contour>
			<point x="231" y="0" type="line"/>
			<point x="271" y="0" type="line"/>
			<point x="271" y="258" type="line"/>
			<point x="480" y="258" type="line"/>
			<point x="480" y="302" type="line"/>
			<point x="271" y="302" type="line"/>
			<point x="271" y="548" type="line"/>
			<point x="231" y="548" type="line"/>
			<point x="231" y="302" type="line"/>
			<point x="22" y="302" type="line"/>
			<point x="22" y="258" type="line"/>
			<point x="231" y="258" type="line"/>
		</contour>
	</outline>
</glyph>
<glyph name="ampersand.S" format="2">
	<advance width="570"/>
	<outline>
		<contour>
			<point x="543" y="-12" type="curve"/>
			<point x="558" y="27" type="line"/>
			<point x="517" y="42"/>
			<point x="467" y="71"/>
			<point x="416" y="114" type="curve" smooth="yes"/>
			<point x="299" y="212"/>
			<point x="147" y="343"/>
			<point x="147" y="454" type="curve" smooth="yes"/>
			<point x="147" y="513"/>
			<point x="190" y="559"/>
			<point x="263" y="559" type="curve" smooth="yes"/>
			<point x="310" y="559"/>
			<point x="342" y="551"/>
			<point x="388" y="514" type="curve"/>
			<point x="410" y="546" type="line"/>
			<point x="361" y="586"/>
			<point x="326" y="600"/>
			<point x="261" y="600" type="curve" smooth="yes"/>
			<point x="170" y="600"/>
			<point x="107" y="538"/>
			<point x="107" y="453" type="curve" smooth="yes"/>
			<point x="107" y="332"/>
			<point x="262" y="190"/>
			<point x="390" y="81" type="curve" smooth="yes"/>
			<point x="446" y="34"/>
			<point x="498" y="4"/>
		</contour>
		<contour>
			<point x="225" y="-12" type="curve" smooth="yes"/>
			<point x="306" y="-12"/>
			<point x="367" y="29"/>
			<point x="416" y="86" type="curve" smooth="yes"/>
			<point x="472" y="152"/>
			<point x="516" y="237"/>
			<point x="546" y="327" type="curve"/>
			<point x="503" y="327" type="line"/>
			<point x="476" y="242"/>
			<point x="436" y="168"/>
			<point x="385" y="110" type="curve" smooth="yes"/>
			<point x="343" y="62"/>
			<point x="287" y="29"/>
			<point x="228" y="29" type="curve" smooth="yes"/>
			<point x="146" y="29"/>
			<point x="77" y="80"/>
			<point x="77" y="162" type="curve" smooth="yes"/>
			<point x="77" y="228"/>
			<point x="128" y="276"/>
			<point x="188" y="321" type="curve"/>
			<point x="173" y="353" type="line"/>
			<point x="103" y="301"/>
			<point x="36" y="245"/>
			<point x="36" y="158" type="curve" smooth="yes"/>
			<point x="36" y="53"/>
			<point x="121" y="-12"/>
		</contour>
	</outline>
</glyph>
<glyph name="cedi.S" format="2">
	<advance width="479"/>
	<outline>
		<contour>
			<point x="292" y="-12" type="curve" smooth="yes"/>
			<point x="364" y="-12"/>
			<point x="413" y="21"/>
			<point x="451" y="79" type="curve"/>
			<point x="425" y="104" type="line"/>
			<point x="392" y="54"/>
			<point x="350" y="32"/>
			<point x="294" y="32" type="curve" smooth="yes"/>
			<point x="174" y="32"/>
			<point x="106" y="129"/>
			<point x="106" y="277" type="curve" smooth="yes"/>
			<point x="106" y="424"/>
			<point x="175" y="516"/>
			<point x="296" y="516" type="curve" smooth="yes"/>
			<point x="349" y="516"/>
			<point x="390" y="498"/>
			<point x="420" y="458" type="curve"/>
			<point x="445" y="484" type="line"/>
			<point x="416" y="530"/>
			<point x="360" y="560"/>
			<point x="295" y="560" type="curve" smooth="yes"/>
			<point x="156" y="560"/>
			<point x="67" y="450"/>
			<point x="67" y="276" type="curve" smooth="yes"/>
			<point x="67" y="101"/>
			<point x="154" y="-12"/>
		</contour>
		<contour>
			<point x="273" y="-110" type="line"/>
			<point x="307" y="-110" type="line"/>
			<point x="307" y="657" type="line"/>
			<point x="273" y="657" type="line"/>
		</contour>
	</outline>
</glyph>
<glyph name="dong.S" format="2">
	<advance width="479"/>
	<outline>
		<contour>
			<point x="224" y="107" type="curve" smooth="yes"/>
			<point x="275" y="107"/>
			<point x="313" y="132"/>
			<point x="343" y="164" type="curve"/>
			<point x="346" y="164" type="line"/>
			<point x="351" y="117" type="line"/>
			<point x="382" y="117" type="line"/>
			<point x="382" y="655" type="line"/>
			<point x="343" y="655" type="line"/>
			<point x="343" y="519" type="line"/>
			<point x="347" y="414" type="line"/>
			<point x="312" y="446"/>
			<point x="283" y="465"/>
			<point x="232" y="465" type="curve" smooth="yes"/>
			<point x="147" y="465"/>
			<point x="71" y="398"/>
			<point x="71" y="291" type="curve" smooth="yes"/>
			<point x="71" y="171"/>
			<point x="131" y="107"/>
		</contour>
		<contour>
			<point x="230" y="149" type="curve" smooth="yes"/>
			<point x="154" y="149"/>
			<point x="111" y="205"/>
			<point x="111" y="292" type="curve" smooth="yes"/>
			<point x="111" y="364"/>
			<point x="165" y="423"/>
			<point x="234" y="423" type="curve" smooth="yes"/>
			<point x="277" y="423"/>
			<point x="305" y="411"/>
			<point x="343" y="376" type="curve"/>
			<point x="343" y="208" type="line"/>
			<point x="306" y="166"/>
			<point x="268" y="149"/>
		</contour>
		<contour>
			<point x="197" y="554" type="line"/>
			<point x="382" y="554" type="line"/>
			<point x="463" y="558" type="line"/>
			<point x="463" y="587" type="line"/>
			<point x="197" y="587" type="line"/>
		</contour>
		<contour>
			<point x="80" y="0" type="line"/>
			<point x="415" y="0" type="line"/>
			<point x="415" y="35" type="line"/>
			<point x="80" y="35" type="line"/>
		</contour>
	</outline>
</glyph>
<glyph name="five.Dnom" format="2">
	<advance width="362"/>
	<outline>
		<contour>
			<point x="181" y="-12" type="curve" smooth="yes"/>
			<point x="253" y="-12"/>
			<point x="311" y="37"/>
			<point x="311" y="113" type="curve" smooth="yes"/>
			<point x="311" y="194"/>
			<point x="256" y="236"/>
			<point x="183" y="236" type="curve" smooth="yes"/>
			<point x="153" y="236"/>
			<point x="130" y="227"/>
			<point x="111" y="216" type="curve"/>
			<point x="121" y="316" type="line"/>
			<point x="291" y="316" type="line"/>
			<point x="291" y="352" type="line"/>
			<point x="89" y="352" type="line"/>
			<point x="73" y="185" type="line"/>
			<point x="96" y="170" type="line"/>
			<point x="118" y="187"/>
			<point x="143" y="203"/>
			<point x="180" y="203" type="curve" smooth="yes"/>
			<point x="237" y="203"/>
			<point x="275" y="169"/>
			<point x="275" y="114" type="curve" smooth="yes"/>
			<point x="275" y="62"/>
			<point x="235" y="25"/>
			<point x="182" y="25" type="curve" smooth="yes"/>
			<point x="129" y="25"/>
			<point x="91" y="44"/>
			<point x="67" y="76" type="curve"/>
			<point x="42" y="50" type="line"/>
			<point x="70" y="15"/>
			<point x="113" y="-12"/>
		</contour>
	</outline>
</glyph>
<glyph name="five.ph" format="2">
	<advance width="479"/>
	<outline>
		<contour>
			<point x="227" y="-103" type="curve" smooth="yes"/>
			<point x="330" y="-103"/>
			<point x="431" y="-27"/>
			<point x="431" y="110" type="curve" smooth="yes"/>
			<point x="431" y="249"/>
			<point x="344" y="311"/>
			<point x="236" y="311" type="curve" smooth="yes"/>
			<point x="189" y="311"/>
			<point x="155" y="298"/>
			<point x="122" y="278" type="curve"/>
			<point x="142" y="509" type="line"/>
			<point x="397" y="509" type="line"/>
			<point x="397" y="548" type="line"/>
			<point x="102" y="548" type="line"/>
			<point x="79" y="249" type="line"/>
			<point x="110" y="230" type="line"/>
			<point x="148" y="256"/>
			<point x="180" y="273"/>
			<point x="229" y="273" type="curve" smooth="yes"/>
			<point x="324" y="273"/>
			<point x="385" y="210"/>
			<point x="385" y="108" type="curve" smooth="yes"/>
			<point x="385" y="5"/>
			<point x="311" y="-64"/>
			<point x="226" y="-64" type="curve" smooth="yes"/>
			<point x="139" y="-64"/>
			<point x="89" y="-26"/>
			<point x="51" y="14" type="curve"/>
			<point x="26" y="-17" type="line"/>
			<point x="67" y="-58"/>
			<point x="125" y="-103"/>
		</contour>
	</outline>
</glyph>
<glyph name="four.Dnom" format="2">
	<advance width="362"/>
	<outline>
		<contour>
			<point x="222" y="0" type="line"/>
			<point x="258" y="0" type="line"/>
			<point x="258" y="390" type="line"/>
			<point x="222" y="390" type="line"/>
			<point x="45" y="137" type="line"/>
			<point x="45" y="112" type="line"/>
			<point x="316" y="112" type="line"/>
			<point x="316" y="148" type="line"/>
			<point x="93" y="148" type="line"/>
			<point x="166" y="254" type="line"/>
			<point x="222" y="338" type="line"/>
			<point x="226" y="338" type="line"/>
			<point x="222" y="234" type="line"/>
		</contour>
	</outline>
</glyph>
<glyph name="four.he" format="2">
	<advance width="479"/>
	<outline>
		<contour>
			<point x="310" y="-91" type="line"/>
			<point x="353" y="-91" type="line"/>
			<point x="353" y="548" type="line"/>
			<point x="313" y="548" type="line"/>
			<point x="16" y="126" type="line"/>
			<point x="16" y="99" type="line"/>
			<point x="448" y="99" type="line"/>
			<point x="448" y="138" type="line"/>
			<point x="70" y="138" type="line"/>
			<point x="258" y="402" type="line"/>
			<point x="276" y="431"/>
			<point x="294" y="455"/>
			<point x="310" y="482" type="curve"/>
			<point x="314" y="482" type="line"/>
			<point x="312" y="452"/>
			<point x="310" y="401"/>
			<point x="310" y="372" type="curve" smooth="yes"/>
		</contour>
	</outline>
</glyph>
<glyph name="franc.S" format="2">
	<advance width="479"/>
	<outline>
		<contour>
			<point x="136" y="0" type="line"/>
			<point x="177" y="0" type="line"/>
			<point x="177" y="269" type="line"/>
			<point x="397" y="269" type="line"/>
			<point x="397" y="309" type="line"/>
			<point x="177" y="309" type="line"/>
			<point x="177" y="508" type="line"/>
			<point x="450" y="508" type="line"/>
			<point x="450" y="548" type="line"/>
			<point x="136" y="548" type="line"/>
		</contour>
		<contour>
			<point x="55" y="119" type="line"/>
			<point x="333" y="119" type="line"/>
			<point x="333" y="155" type="line"/>
			<point x="138" y="155" type="line"/>
			<point x="55" y="152" type="line"/>
		</contour>
	</outline>
</glyph>
<glyph name="guarani.S" format="2">
	<advance width="479"/>
	<outline>
		<contour>
			<point x="287" y="-12" type="curve" smooth="yes"/>
			<point x="348" y="-12"/>
			<point x="396" y="10"/>
			<point x="438" y="55" type="curve"/>
			<point x="438" y="287" type="line"/>
			<point x="276" y="287" type="line"/>
			<point x="276" y="244" type="line"/>
			<point x="399" y="244" type="line"/>
			<point x="399" y="75" type="line"/>
			<point x="377" y="50"/>
			<point x="334" y="30"/>
			<point x="288" y="30" type="curve" smooth="yes"/>
			<point x="179" y="30"/>
			<point x="96" y="104"/>
			<point x="96" y="277" type="curve" smooth="yes"/>
			<point x="96" y="448"/>
			<point x="188" y="518"/>
			<point x="286" y="518" type="curve" smooth="yes"/>
			<point x="333" y="518"/>
			<point x="364" y="505"/>
			<point x="400" y="476" type="curve"/>
			<point x="425" y="508" type="line"/>
			<point x="384" y="542"/>
			<point x="344" y="560"/>
			<point x="286" y="560" type="curve" smooth="yes"/>
			<point x="165" y="560"/>
			<point x="57" y="477"/>
			<point x="57" y="276" type="curve" smooth="yes"/>
			<point x="57" y="73"/>
			<point x="156" y="-12"/>
		</contour>
		<contour>
			<point x="259" y="-110" type="line"/>
			<point x="296" y="-110" type="line"/>
			<point x="296" y="6" type="line"/>
			<point x="259" y="6" type="line"/>
		</contour>
		<contour>
			<point x="259" y="544" type="line"/>
			<point x="296" y="544" type="line"/>
			<point x="296" y="658" type="line"/>
			<point x="259" y="658" type="line"/>
		</contour>
	</outline>
</glyph>
<glyph name="guillemotright.lat" format="2">
	<advance width="399"/>
	<outline>
		<contour>
			<point x="78" y="72" type="line"/>
			<point x="216" y="233" type="line"/>
			<point x="216" y="271" type="line"/>
			<point x="78" y="432" type="line"/>
			<point x="54" y="411" type="line"/>
			<point x="176" y="252" type="line"/>
			<point x="54" y="91" type="line"/>
		</contour>
		<contour>
			<point x="219" y="72" type="line"/>
			<point x="356" y="233" type="line"/>
			<point x="356" y="271" type="line"/>
			<point x="219" y="432" type="line"/>
			<point x="195" y="411" type="line"/>
			<point x="317" y="252" type="line"/>
			<point x="195" y="91" type="line"/>
		</contour>
	</outline>
</glyph>
<glyph name="heAyin.1" format="2">
	<advance width="562"/>
	<outline>
		<contour>
			<point x="53" y="0" type="line"/>
			<point x="119" y="0" type="line" smooth="yes"/>
			<point x="363" y="0"/>
			<point x="507" y="244"/>
			<point x="507" y="418" type="curve" smooth="yes"/>
			<point x="507" y="515"/>
			<point x="467" y="548"/>
			<point x="379" y="548" type="curve" smooth="yes"/>
			<point x="310" y="548" type="line"/>
			<point x="310" y="504" type="line"/>
			<point x="371" y="504" type="line" smooth="yes"/>
			<point x="438" y="504"/>
			<point x="467" y="481"/>
			<point x="467" y="411" type="curve" smooth="yes"/>
			<point x="467" y="258"/>
			<point x="340" y="42"/>
			<point x="121" y="42" type="curve" smooth="yes"/>
			<point x="53" y="42" type="line"/>
		</contour>
		<contour>
			<point x="222" y="41" type="curve"/>
			<point x="258" y="53" type="line"/>
			<point x="229" y="190"/>
			<point x="204" y="290"/>
			<point x="173" y="396" type="curve" smooth="yes"/>
			<point x="137" y="522"/>
			<point x="118" y="548"/>
			<point x="45" y="548" type="curve" smooth="yes"/>
			<point x="23" y="548" type="line"/>
			<point x="23" y="504" type="line"/>
			<point x="30" y="504" type="line" smooth="yes"/>
			<point x="94" y="504"/>
			<point x="102" y="488"/>
			<point x="137" y="377" type="curve" smooth="yes"/>
			<point x="170" y="273"/>
			<point x="194" y="173"/>
		</contour>
	</outline>
	<anchor name="aboveHE" x="262" y="584"/>
	<anchor name="belowPrimaryHE" x="316" y="-30"/>
	<anchor name="aboveLeftHE" x="-11" y="584"/>
</glyph>
<glyph name="heAyin.a" format="2">
	<advance width="560"/>
	<outline>
		<contour>
			<point x="54" y="0" type="line"/>
			<point x="122" y="0" type="line" smooth="yes"/>
			<point x="358" y="0"/>
			<point x="502" y="244"/>
			<point x="502" y="420" type="curve" smooth="yes"/>
			<point x="502" y="515"/>
			<point x="463" y="546"/>
			<point x="382" y="546" type="curve" smooth="yes"/>
			<point x="312" y="546" type="line"/>
			<point x="312" y="516" type="line"/>
			<point x="378" y="516" type="line" smooth="yes"/>
			<point x="444" y="516"/>
			<point x="474" y="493"/>
			<point x="474" y="420" type="curve" smooth="yes"/>
			<point x="474" y="256"/>
			<point x="342" y="28"/>
			<point x="118" y="28" type="curve" smooth="yes"/>
			<point x="54" y="28" type="line"/>
		</contour>
		<contour>
			<point x="44" y="516" type="line"/>
			<point x="218" y="516" type="line"/>
			<point x="218" y="546" type="line"/>
			<point x="44" y="546" type="line"/>
		</contour>
		<contour>
			<point x="264" y="32" type="curve"/>
			<point x="286" y="48" type="line"/>
			<point x="198" y="152"/>
			<point x="138" y="298"/>
			<point x="138" y="406" type="curve" smooth="yes"/>
			<point x="138" y="460"/>
			<point x="140" y="490"/>
			<point x="166" y="518" type="curve"/>
			<point x="166" y="546" type="line"/>
			<point x="44" y="546" type="line"/>
			<point x="44" y="516" type="line"/>
			<point x="144" y="516" type="line"/>
			<point x="156" y="536" type="line"/>
			<point x="121" y="505"/>
			<point x="110" y="465"/>
			<point x="110" y="406" type="curve" smooth="yes"/>
			<point x="110" y="283"/>
			<point x="179" y="138"/>
		</contour>
	</outline>
	<anchor name="aboveHE" x="265" y="590"/>
	<anchor name="belowPrimaryHE" x="320" y="-30"/>
	<anchor name="aboveLeftHE" x="-10" y="590"/>
</glyph>
<glyph name="heQamats.kaf" format="2">
	<outline>
		<contour>
			<point x="76" y="-88" type="line"/>
			<point x="-77" y="-88" type="line"/>
			<point x="-77" y="-128" type="line"/>
			<point x="-17" y="-128" type="line"/>
			<point x="-25" y="-217" type="line"/>
			<point x="25" y="-217" type="line"/>
			<point x="17" y="-128" type="line"/>
			<point x="76" y="-128" type="line"/>
		</contour>
	</outline>
	<anchor name="_centerSecondaryHE" x="0" y="-30"/>
</glyph>
<glyph name="heQamats.short" format="2">
	<outline>
		<contour>
			<point x="76" y="-88" type="line"/>
			<point x="-77" y="-88" type="line"/>
			<point x="-77" y="-128" type="line"/>
			<point x="-17" y="-128" type="line"/>
			<point x="-25" y="-217" type="line"/>
			<point x="25" y="-217" type="line"/>
			<point x="17" y="-128" type="line"/>
			<point x="76" y="-128" type="line"/>
		</contour>
	</outline>
	<anchor name="_belowPrimaryHE" x="0" y="-30"/>
	<anchor name="_belowLeftHE" x="-76" y="-30"/>
	<anchor name="_belowRightHE" x="76" y="-30"/>
	<anchor name="belowPrimaryHE" x="-137" y="-30"/>
	<anchor name="_belowSecondaryHE" x="0" y="-30"/>
</glyph>
<glyph name="heQamatsQatan.short" format="2">
	<outline>
		<contour>
			<point x="-16" y="-311" type="line"/>
			<point x="16" y="-311" type="line"/>
			<point x="16" y="-137" type="line"/>
			<point x="77" y="-137" type="line"/>
			<point x="77" y="-105" type="line"/>
			<point x="-77" y="-105" type="line"/>
			<point x="-77" y="-137" type="line"/>
			<point x="-16" y="-137" type="line"/>
		</contour>
	</outline>
	<anchor name="_belowPrimaryHE" x="0" y="-29"/>
	<anchor name="_belowLeftHE" x="-76" y="-29"/>
	<anchor name="_belowRightHE" x="76" y="-29"/>
	<anchor name="belowPrimaryHE" x="-137" y="-29"/>
	<anchor name="_belowSecondaryHE" x="0" y="-29"/>
</glyph>
<glyph name="heSamekh.1" format="2">
	<advance width="590"/>
	<outline>
		<contour>
			<point x="299" y="-12" type="curve" smooth="yes"/>
			<point x="431" y="-12"/>
			<point x="534" y="113"/>
			<point x="534" y="387" type="curve" smooth="yes"/>
			<point x="534" y="507"/>
			<point x="497" y="548"/>
			<point x="417" y="548" type="curve" smooth="yes"/>
			<point x="5" y="548" type="line"/>
			<point x="5" y="504" type="line"/>
			<point x="409" y="504" type="line" smooth="yes"/>
			<point x="469" y="504"/>
			<point x="496" y="476"/>
			<point x="496" y="383" type="curve" smooth="yes"/>
			<point x="496" y="138"/>
			<point x="402" y="34"/>
			<point x="300" y="34" type="curve" smooth="yes"/>
			<point x="225" y="34"/>
			<point x="160" y="77"/>
			<point x="142" y="288" type="curve" smooth="yes"/>
			<point x="125" y="485"/>
			<point x="112" y="524"/>
			<point x="27" y="524" type="curve" smooth="yes"/>
			<point x="5" y="524" type="line"/>
			<point x="5" y="504" type="line"/>
			<point x="11" y="504" type="line" smooth="yes"/>
			<point x="82" y="504"/>
			<point x="88" y="470"/>
			<point x="103" y="284" type="curve" smooth="yes"/>
			<point x="122" y="46"/>
			<point x="204" y="-12"/>
		</contour>
	</outline>
	<anchor name="aboveHE" x="314" y="584"/>
	<anchor name="belowPrimaryHE" x="324" y="-30"/>
	<anchor name="centerHE" x="314" y="296"/>
	<anchor name="aboveLeftHE" x="2" y="584"/>
</glyph>
<glyph name="heSamekh.5" format="2">
	<advance width="591"/>
	<outline>
		<contour>
			<point x="300" y="-12" type="curve" smooth="yes"/>
			<point x="431" y="-12"/>
			<point x="535" y="110"/>
			<point x="535" y="387" type="curve" smooth="yes"/>
			<point x="535" y="507"/>
			<point x="498" y="548"/>
			<point x="418" y="548" type="curve" smooth="yes"/>
			<point x="24" y="548" type="line"/>
			<point x="24" y="504" type="line"/>
			<point x="410" y="504" type="line" smooth="yes"/>
			<point x="468" y="504"/>
			<point x="496" y="477"/>
			<point x="496" y="383" type="curve" smooth="yes"/>
			<point x="496" y="136"/>
			<point x="401" y="34"/>
			<point x="301" y="34" type="curve" smooth="yes"/>
			<point x="207" y="34"/>
			<point x="145" y="103"/>
			<point x="145" y="242" type="curve" smooth="yes"/>
			<point x="145" y="504" type="line"/>
			<point x="113" y="504" type="line"/>
			<point x="106" y="477"/>
			<point x="105" y="448"/>
			<point x="105" y="410" type="curve" smooth="yes"/>
			<point x="105" y="236" type="line" smooth="yes"/>
			<point x="105" y="73"/>
			<point x="185" y="-12"/>
		</contour>
	</outline>
	<anchor name="aboveHE" x="314" y="584"/>
	<anchor name="belowPrimaryHE" x="324" y="-30"/>
	<anchor name="centerHE" x="314" y="296"/>
	<anchor name="aboveLeftHE" x="2" y="584"/>
</glyph>
<glyph name="heSheva.kaf" format="2">
	<outline>
		<contour>
			<point x="0" y="-84" type="curve" smooth="yes"/>
			<point x="-20" y="-84"/>
			<point x="-36" y="-99"/>
			<point x="-36" y="-120" type="curve" smooth="yes"/>
			<point x="-36" y="-140"/>
			<point x="-20" y="-156"/>
			<point x="0" y="-156" type="curve" smooth="yes"/>
			<point x="20" y="-156"/>
			<point x="36" y="-140"/>
			<point x="36" y="-120" type="curve" smooth="yes"/>
			<point x="36" y="-99"/>
			<point x="20" y="-84"/>
		</contour>
		<contour>
			<point x="0" y="-205" type="curve" smooth="yes"/>
			<point x="-20" y="-205"/>
			<point x="-36" y="-221"/>
			<point x="-36" y="-241" type="curve" smooth="yes"/>
			<point x="-36" y="-262"/>
			<point x="-20" y="-277"/>
			<point x="0" y="-277" type="curve" smooth="yes"/>
			<point x="20" y="-277"/>
			<point x="36" y="-262"/>
			<point x="36" y="-241" type="curve" smooth="yes"/>
			<point x="36" y="-221"/>
			<point x="20" y="-205"/>
		</contour>
	</outline>
	<anchor name="_centerSecondaryHE" x="0" y="-30"/>
</glyph>
<glyph name="heShin.1" format="2">
	<advance width="698"/>
	<outline>
		<contour>
			<point x="339" y="-12" type="curve" smooth="yes"/>
			<point x="507" y="-12"/>
			<point x="642" y="184"/>
			<point x="642" y="391" type="curve" smooth="yes"/>
			<point x="642" y="516"/>
			<point x="607" y="548"/>
			<point x="525" y="548" type="curve" smooth="yes"/>
			<point x="490" y="548" type="line"/>
			<point x="490" y="504" type="line"/>
			<point x="519" y="504" type="line" smooth="yes"/>
			<point x="579" y="504"/>
			<point x="604" y="483"/>
			<point x="604" y="383" type="curve" smooth="yes"/>
			<point x="604" y="207"/>
			<point x="487" y="31"/>
			<point x="342" y="31" type="curve" smooth="yes"/>
			<point x="220" y="31"/>
			<point x="160" y="75"/>
			<point x="142" y="292" type="curve" smooth="yes"/>
			<point x="124" y="508"/>
			<point x="111" y="548"/>
			<point x="27" y="548" type="curve" smooth="yes"/>
			<point x="5" y="548" type="line"/>
			<point x="5" y="504" type="line"/>
			<point x="11" y="504" type="line" smooth="yes"/>
			<point x="82" y="504"/>
			<point x="88" y="470"/>
			<point x="103" y="284" type="curve" smooth="yes"/>
			<point x="122" y="45"/>
			<point x="200" y="-12"/>
		</contour>
		<contour>
			<point x="243" y="39" type="line"/>
			<point x="345" y="167"/>
			<point x="412" y="328"/>
			<point x="412" y="425" type="curve" smooth="yes"/>
			<point x="412" y="512"/>
			<point x="390" y="548"/>
			<point x="316" y="548" type="curve" smooth="yes"/>
			<point x="280" y="548" type="line"/>
			<point x="280" y="504" type="line"/>
			<point x="300" y="504" type="line" smooth="yes"/>
			<point x="364" y="504"/>
			<point x="374" y="478"/>
			<point x="374" y="417" type="curve" smooth="yes"/>
			<point x="374" y="332"/>
			<point x="312" y="179"/>
			<point x="218" y="62" type="curve"/>
		</contour>
	</outline>
	<anchor name="aboveHE" x="326" y="584"/>
	<anchor name="belowPrimaryHE" x="360" y="-30"/>
	<anchor name="sinHE" x="55" y="554"/>
	<anchor name="centerHE" x="424" y="256"/>
	<anchor name="shinHE" x="520" y="554"/>
	<anchor name="aboveLeftHE" x="-45" y="584"/>
</glyph>
<glyph name="heShin.4" format="2">
	<advance width="698"/>
	<outline>
		<contour>
			<point x="339" y="-12" type="curve" smooth="yes"/>
			<point x="507" y="-12"/>
			<point x="642" y="184"/>
			<point x="642" y="391" type="curve" smooth="yes"/>
			<point x="642" y="516"/>
			<point x="607" y="548"/>
			<point x="525" y="548" type="curve" smooth="yes"/>
			<point x="490" y="548" type="line"/>
			<point x="490" y="504" type="line"/>
			<point x="519" y="504" type="line" smooth="yes"/>
			<point x="579" y="504"/>
			<point x="604" y="483"/>
			<point x="604" y="383" type="curve" smooth="yes"/>
			<point x="604" y="207"/>
			<point x="487" y="31"/>
			<point x="342" y="31" type="curve" smooth="yes"/>
			<point x="221" y="31"/>
			<point x="145" y="96"/>
			<point x="143" y="271" type="curve" smooth="yes"/>
			<point x="143" y="418" type="line" smooth="yes"/>
			<point x="143" y="492"/>
			<point x="121" y="524"/>
			<point x="45" y="524" type="curve" smooth="yes"/>
			<point x="23" y="524" type="line"/>
			<point x="23" y="504" type="line"/>
			<point x="29" y="504" type="line" smooth="yes"/>
			<point x="92" y="504"/>
			<point x="103" y="478"/>
			<point x="103" y="418" type="curve" smooth="yes"/>
			<point x="103" y="265" type="line" smooth="yes"/>
			<point x="104" y="67"/>
			<point x="198" y="-12"/>
		</contour>
		<contour>
			<point x="242" y="38" type="line"/>
			<point x="345" y="165"/>
			<point x="412" y="328"/>
			<point x="412" y="425" type="curve" smooth="yes"/>
			<point x="412" y="512"/>
			<point x="390" y="548"/>
			<point x="316" y="548" type="curve" smooth="yes"/>
			<point x="281" y="548" type="line"/>
			<point x="281" y="504" type="line"/>
			<point x="301" y="504" type="line" smooth="yes"/>
			<point x="364" y="504"/>
			<point x="374" y="478"/>
			<point x="374" y="417" type="curve" smooth="yes"/>
			<point x="374" y="332"/>
			<point x="312" y="179"/>
			<point x="218" y="62" type="curve"/>
		</contour>
		<contour>
			<point x="23" y="504" type="line"/>
			<point x="190" y="504" type="line"/>
			<point x="190" y="548" type="line"/>
			<point x="23" y="548" type="line"/>
		</contour>
	</outline>
	<anchor name="aboveHE" x="326" y="584"/>
	<anchor name="belowPrimaryHE" x="360" y="-30"/>
	<anchor name="sinHE" x="55" y="554"/>
	<anchor name="centerHE" x="424" y="256"/>
	<anchor name="shinHE" x="520" y="554"/>
	<anchor name="aboveLeftHE" x="-45" y="584"/>
</glyph>
<glyph name="heShin.a" format="2">
	<advance width="690"/>
	<outline>
		<contour>
			<point x="336" y="-12" type="curve" smooth="yes"/>
			<point x="500" y="-12"/>
			<point x="632" y="186"/>
			<point x="632" y="390" type="curve" smooth="yes"/>
			<point x="632" y="514"/>
			<point x="599" y="546"/>
			<point x="522" y="546" type="curve" smooth="yes"/>
			<point x="488" y="546" type="line"/>
			<point x="488" y="516" type="line"/>
			<point x="518" y="516" type="line" smooth="yes"/>
			<point x="580" y="516"/>
			<point x="606" y="495"/>
			<point x="606" y="390" type="curve" smooth="yes"/>
			<point x="606" y="204"/>
			<point x="486" y="18"/>
			<point x="336" y="18" type="curve" smooth="yes"/>
			<point x="214" y="18"/>
			<point x="134" y="79"/>
			<point x="134" y="276" type="curve" smooth="yes"/>
			<point x="134" y="386"/>
			<point x="148" y="450"/>
			<point x="164" y="516" type="curve"/>
			<point x="142" y="516" type="line"/>
			<point x="123" y="455"/>
			<point x="106" y="398"/>
			<point x="106" y="276" type="curve" smooth="yes"/>
			<point x="106" y="61"/>
			<point x="198" y="-12"/>
		</contour>
		<contour>
			<point x="226" y="29" type="line"/>
			<point x="332" y="156"/>
			<point x="404" y="326"/>
			<point x="404" y="428" type="curve" smooth="yes"/>
			<point x="404" y="510"/>
			<point x="385" y="546"/>
			<point x="316" y="546" type="curve" smooth="yes"/>
			<point x="280" y="546" type="line"/>
			<point x="280" y="516" type="line"/>
			<point x="302" y="516" type="line" smooth="yes"/>
			<point x="368" y="516"/>
			<point x="378" y="489"/>
			<point x="378" y="426" type="curve" smooth="yes"/>
			<point x="378" y="336"/>
			<point x="310" y="170"/>
			<point x="212" y="50" type="curve"/>
		</contour>
		<contour>
			<point x="44" y="516" type="line"/>
			<point x="218" y="516" type="line"/>
			<point x="218" y="546" type="line"/>
			<point x="44" y="546" type="line"/>
		</contour>
	</outline>
	<anchor name="aboveHE" x="325" y="590"/>
	<anchor name="belowPrimaryHE" x="360" y="-30"/>
	<anchor name="sinHE" x="50" y="560"/>
	<anchor name="centerHE" x="425" y="255"/>
	<anchor name="shinHE" x="520" y="560"/>
	<anchor name="aboveLeftHE" x="-50" y="590"/>
</glyph>
<glyph name="heTet.5" format="2">
	<advance width="590"/>
	<outline>
		<contour>
			<point x="299" y="-12" type="curve" smooth="yes"/>
			<point x="431" y="-12"/>
			<point x="534" y="113"/>
			<point x="534" y="387" type="curve" smooth="yes"/>
			<point x="534" y="507"/>
			<point x="497" y="548"/>
			<point x="417" y="548" type="curve" smooth="yes"/>
			<point x="289" y="548" type="line"/>
			<point x="289" y="504" type="line"/>
			<point x="409" y="504" type="line" smooth="yes"/>
			<point x="469" y="504"/>
			<point x="496" y="476"/>
			<point x="496" y="383" type="curve" smooth="yes"/>
			<point x="496" y="138"/>
			<point x="402" y="34"/>
			<point x="300" y="34" type="curve" smooth="yes"/>
			<point x="205" y="34"/>
			<point x="143" y="102"/>
			<point x="143" y="242" type="curve" smooth="yes"/>
			<point x="143" y="548" type="line"/>
			<point x="103" y="548" type="line"/>
			<point x="103" y="236" type="line" smooth="yes"/>
			<point x="103" y="73"/>
			<point x="184" y="-12"/>
		</contour>
	</outline>
	<anchor name="aboveHE" x="314" y="584"/>
	<anchor name="belowPrimaryHE" x="324" y="-30"/>
	<anchor name="centerHE" x="314" y="296"/>
	<anchor name="aboveLeftHE" x="2" y="584"/>
</glyph>
